<svg xmlns="http://www.w3.org/2000/svg" height="60" width="60" viewBox="0 0 60 60" preserveAspectRatio="xMinYMid" aria-hidden="true" focusable="false"><path d="M1.5,28h57c0.4,0,0.8-0.3,0.9-0.7c0.1-0.4,0-0.9-0.4-1.1l-7.4-5.1v-9.8c0-0.5-0.4-1-1-1h-7.9c-0.5,0-1,0.4-1,1
	v3L30.6,6.6c-0.3-0.2-0.8-0.2-1.1,0L0.9,26.2c-0.4,0.2-0.5,0.7-0.4,1.1C0.7,27.8,1.1,28,1.5,28 M47.7,42.8c0,0.5-0.4,1-1,1H31
	c-0.5,0-1-0.4-1-1v-7.9c0-0.5,0.4-1,1-1h15.7c0.5,0,1,0.4,1,1V42.8z M25.6,51.6H12.8v-2c0-0.3,0.2-0.5,0.5-0.5h11.8
	c0.3,0,0.5,0.2,0.5,0.5V51.6z M14.3,34.9c0-0.5,0.4-1,1-1h7.9c0.5,0,1,0.4,1,1v11.8c0,0.5-0.4,1-1,1h-7.9c-0.5,0-1-0.4-1-1V34.9z
	 M58.5,51.6h-4.9V31c0-0.5-0.4-1-1-1H7.4c-0.5,0-1,0.4-1,1v20.7H1.5c-0.5,0-1,0.4-1,1c0,0.5,0.4,1,1,1h5.9h45.2h5.9c0.5,0,1-0.4,1-1
	C59.5,52.1,59.1,51.6,58.5,51.6L58.5,51.6z" fill="#fff"/>
</svg>
