<svg xmlns="http://www.w3.org/2000/svg" height="60" width="60" viewBox="0 0 60 60" preserveAspectRatio="xMinYMid" aria-hidden="true" focusable="false"><path d="m19.2 35.1c-1.2 0-2.2 1-2.2 2.2s1 2.2 2.2 2.2 2.2-1 2.2-2.2c-.1-1.3-1-2.2-2.2-2.2m21 14.3c-3.9 0-7-3.2-7-7 0-3.9 3.2-7 7-7 3.9 0 7 3.2 7 7 .1 3.8-3.1 7-7 7m0-17.2c-5.6 0-10.2 4.6-10.2 10.2s4.6 10.2 10.2 10.2 10.2-4.6 10.2-10.2-4.6-10.2-10.2-10.2m-.3 22.2c-6.6 0-11.9-5.3-11.9-11.8s5.4-11.8 11.9-11.8c6.6 0 11.9 5.3 11.9 11.8s-5.3 11.8-11.9 11.8m-21.5-13.4c-2.2 0-4-1.8-4-3.9 0-2.2 1.8-3.9 4-3.9s4 1.8 4 3.9-1.8 3.9-4 3.9m35.7-12.6h-3.4l-1.9-3.2c-.8-1.1-1.8-2.1-3.2-3l-.2-.1h-10.5l-.2.1c-1.4.9-2.5 1.8-3.2 2.9l-3.1 3.2h-5.6v-.8c0-1.4-1.3-3.2-2.9-3.2h-1.6c-1.4 0-3.1 1.7-3.1 3.1v.9c-2.6.3-4 1.9-4 4.6v20.6c0 2.9 1.7 4.5 4.9 4.6h37.9c3.2-.1 4.9-1.8 4.9-4.6v-21.2c.1-2.7-1.4-3.9-4.8-3.9m-38.5-18.7-2.5 2 1.3 3.3c.1.2 0 .4-.2.5-.1.1-.2.1-.3.1s-.2 0-.3-.1l-3-2.1-3 2.1c-.2.1-.4.1-.5 0s-.1-.3-.1-.5l1.3-3.3-2.5-2c-.2-.1-.2-.3-.2-.5.1-.2.3-.3.5-.3h2.9l1.3-2.9c.1-.2.2-.3.4-.3s.4.1.4.3l1.3 2.9h2.9c.2 0 .4.1.4.3.1.2.1.4-.1.5m-4.9-8c-5.3 0-9.7 4.2-9.7 9.4 0 5.1 9 16.9 9.3 17.4.1.1.2.2.4.2.1 0 .3-.1.4-.2.4-.5 9.3-12.3 9.3-17.4 0-5.2-4.3-9.4-9.7-9.4" fill="#fff"/></svg>