<svg xmlns="http://www.w3.org/2000/svg" height="60" width="60" viewBox="0 0 60 60" preserveAspectRatio="xMinYMid" aria-hidden="true" focusable="false"><path d="m12.2 12.5c3 0 5.4-2.4 5.4-5.4s-2.4-5.4-5.4-5.4-5.4 2.4-5.4 5.4c.1 3 2.5 5.4 5.4 5.4m28.2 12.9c2.5 0 4.5-2 4.5-4.5s-2-4.5-4.5-4.5-4.5 2-4.5 4.5 2 4.5 4.5 4.5m18 23.5c-.2-.5-.7-.7-1.2-.5l-2.7 1.2-4-8.9c-.4-1-1.4-1.6-2.5-1.6h-6.3v-5.4h6.3c1.5 0 2.7-1.2 2.7-2.7s-1.2-2.7-2.7-2.7h-9c-1.5 0-2.7 1.2-2.7 2.7v10.8c0 1.5 1.2 2.7 2.7 2.7h7.3l2.9 6.5c.4 1 1.4 1.6 2.5 1.6.4 0 .8-.1 1.1-.2 1.4-.6 5.2-2.3 5.2-2.3.4-.2.6-.8.4-1.2m-9.6 4.2c-.5-.6-1.4-.7-2-.3-2.1 1.6-4.6 2.5-7.3 2.5-6.6 0-12.1-5.4-12.1-12.1 0-4.5 2.5-8.6 6.4-10.7.7-.4 1-1.2.6-1.9s-1.3-1-1.9-.6c-4.9 2.6-8 7.6-8 13.2 0 8.2 6.7 14.9 14.9 14.9 3.3 0 6.4-1.1 9-3 .3-.2.5-.6.6-.9.1-.4 0-.8-.2-1.1m-36.6-21.3s-3.9-2.9-3.9-5c0-2.4 3.2-3.2 3.9-.2.7-3 3.9-2.2 3.9.2 0 2.1-3.9 5-3.9 5zm4.4-17.3-4.4 5.5-4.4-5.5-6.3 2.2v17.5l4.9 2.8 2.6 19.3h6.4l2.6-19.3 4.9-2.1v-17.6z" fill="#fff"/></svg>