<svg height="64" preserveAspectRatio="xMinYMid" aria-hidden="true" focusable="false" viewBox="0 0 64 64" width="64" xmlns="http://www.w3.org/2000/svg"><path d="M3.28,36.83a13.29,13.29,0,0,1,26.58,0h0v.3a.61.61,0,0,1-.21.46l-4.9,4.15A6.05,6.05,0,0,0,23,48.43a4.19,4.19,0,0,0,.4.79.64.64,0,0,1,.08.36l-.86,10.31A1.21,1.21,0,0,1,21.4,61H11.74a1.21,1.21,0,0,1-1.21-1.11L9.46,47.05a.6.6,0,0,0-.6-.55H4.49a1.21,1.21,0,0,1-1.21-1.21Zm24.59,8.75a1.2,1.2,0,0,0-.14,1.7,1.22,1.22,0,0,0,.92.43h3a.6.6,0,0,1,.61.6V59.79A1.21,1.21,0,0,0,33.49,61h6a1.21,1.21,0,0,0,1.21-1.21V54.35a3.63,3.63,0,0,1,7.25,0v5.44A1.21,1.21,0,0,0,49.19,61h6.05a1.21,1.21,0,0,0,1.2-1.21V48.31a.6.6,0,0,1,.61-.6h3a1.21,1.21,0,0,0,.78-2.13L45.14,32.29a1.19,1.19,0,0,0-1.56,0Zm3.2-34.12a7.25,7.25,0,1,0,7.25-7.25A7.26,7.26,0,0,0,31.07,11.46Zm2.06,22a.6.6,0,0,0,.71.47.57.57,0,0,0,.27-.13l6.35-5.36h0a5.56,5.56,0,0,1,6.68-.69A.6.6,0,0,0,48,27a11,11,0,0,0-14.79-4.57,11.15,11.15,0,0,0-3.55,3,.6.6,0,0,0,0,.75A16.84,16.84,0,0,1,33.13,33.47Zm-25-22A8.46,8.46,0,1,0,16.57,3,8.46,8.46,0,0,0,8.11,11.46ZM27.87,45.58a1.2,1.2,0,0,0-.14,1.7,1.22,1.22,0,0,0,.92.43h3a.6.6,0,0,1,.61.6V59.79A1.21,1.21,0,0,0,33.49,61h6a1.21,1.21,0,0,0,1.21-1.21V54.35a3.63,3.63,0,0,1,7.25,0v5.44A1.21,1.21,0,0,0,49.19,61h6.05a1.21,1.21,0,0,0,1.2-1.21V48.31a.6.6,0,0,1,.61-.6h3a1.21,1.21,0,0,0,.78-2.13L45.14,32.29a1.19,1.19,0,0,0-1.56,0Z" fill="#222737"/></svg>