<svg height="64" preserveAspectRatio="xMinYMid" aria-hidden="true" focusable="false" viewBox="0 0 64 64" width="64" xmlns="http://www.w3.org/2000/svg"><path d="M24.9,35.54a1.59,1.59,0,0,1-1.59,1.59H15.92a1.59,1.59,0,1,1,0-3.18c1,0,1.18-1.52,1.18-2.11v-.26H15.92a1.59,1.59,0,1,1,0-3.18H17.1V26.75A3.77,3.77,0,0,1,21,22.86a3.77,3.77,0,0,1,3.9,3.89,1.59,1.59,0,1,1-3.17,0c0-.5-.22-.72-.73-.72s-.72.22-.72.72V28.4h1.18a1.59,1.59,0,1,1,0,3.18H20.28v.26A6.76,6.76,0,0,1,20,34h3.36A1.59,1.59,0,0,1,24.9,35.54ZM48.3,3.38h-26a7.53,7.53,0,0,0-7.8,7.24v3A15.07,15.07,0,0,1,19,12.94l.67,0V11.83A1.26,1.26,0,0,1,21,10.62H49.6a1.27,1.27,0,0,1,1.3,1.21V49.29a1.26,1.26,0,0,1-1.3,1.21H21a1.26,1.26,0,0,1-1.3-1.21V48.6c-.23,0-.45,0-.67,0h0a14.88,14.88,0,0,1-4.51-.7v6.18a7.54,7.54,0,0,0,7.8,7.26h26a7.55,7.55,0,0,0,7.8-7.26V10.62A7.54,7.54,0,0,0,48.3,3.38ZM20.59,46a15.31,15.31,0,0,1-4.51-.71A15,15,0,0,1,5.62,31c0-.27,0-.53,0-.79s0-.7.09-1A15,15,0,0,1,16.08,16.71,14.76,14.76,0,0,1,20.61,16c.23,0,.45,0,.67,0a15,15,0,0,1,2.6,29.59,14.79,14.79,0,0,1-2.6.33c-.22,0-.44,0-.67,0Zm-4.51-4.1a11.72,11.72,0,0,0,4.48.92h.05c.23,0,.45,0,.67,0a11.81,11.81,0,0,0,0-23.58c-.22,0-.44,0-.67,0a11.64,11.64,0,0,0-4.53.92A11.85,11.85,0,0,0,9,29.16,10.75,10.75,0,0,0,9,33,11.85,11.85,0,0,0,16.08,41.89Z" fill="#222737"/></svg>