<svg height="64" preserveAspectRatio="xMinYMid" aria-hidden="true" focusable="false" viewBox="0 0 64 64" width="64" xmlns="http://www.w3.org/2000/svg"><path d="M15.2,24a5.34,5.34,0,1,1,5.33,5.33A5.33,5.33,0,0,1,15.2,24ZM38,29.36A5.34,5.34,0,1,0,32.68,24,5.32,5.32,0,0,0,38,29.36Zm7.89,23.7h-4c-.22,1.31-.43,2.54-.63,3.61s-.45,1.28-1,1.29H35.77c-.53,0-.77-.19-1-1.29s-.42-2.3-.63-3.61h-4l4.54-13.42a.71.71,0,0,0-.45-.91.72.72,0,0,0-.91.45l-2.19,6.5a2,2,0,0,1-3.68,0l-1.14-3.41A95,95,0,0,1,23.7,56.67c-.31,1.08-.45,1.28-1,1.29H18.26c-.53,0-.67-.21-1-1.29A84.52,84.52,0,0,1,15,45l-.89-.77-.08.25A124.13,124.13,0,0,1,12.5,57.05c-.14.78-.32.9-.69.91H8.49c-.38,0-.55-.13-.69-.9-.54-2.84-1.16-7.13-1.63-10.61l-1,2.86a1.33,1.33,0,1,1-2.53-.85l2.2-6.55c.63-1.85,1.88-3.19,5.22-3.19a5.81,5.81,0,0,1,1.74.29l.63-1.86a3.72,3.72,0,1,1,1.28-3.77c.73-2,2.86-2.79,6.74-2.79s6.17.77,6.89,2.91l1.89,5.63,1.89-5.63c.4-1.2,3.25-2.91,6.85-2.91s6.45,1.71,6.85,2.91l3.67,10.93a2,2,0,0,1,.09.76h3.63V37.72h1.68a7.47,7.47,0,0,1,0,14.94H50.39A7.43,7.43,0,0,1,45,50.31Zm-1.16-7.87-2-6a.71.71,0,0,0-.9-.45.72.72,0,0,0-.46.91l.07.18,2.87,5.37Zm5.87,11.63a3,3,0,1,1-3-3A3,3,0,0,1,50.62,56.82Zm-2.23,0a.75.75,0,0,0-1.5,0,.75.75,0,0,0,1.5,0Zm11.27,0a3,3,0,1,1-3-3A3,3,0,0,1,59.66,56.82Zm-2.23,0a.75.75,0,0,0-1.5,0,.75.75,0,0,0,1.5,0ZM43.5,11.89l7.39,7.71a.72.72,0,0,0,1,0l0,0,7.37-7.7a5.09,5.09,0,0,0-5.88-8.15,5.22,5.22,0,0,0-1.32,1l-.44.44a.36.36,0,0,1-.51,0l-.44-.44a5.09,5.09,0,0,0-7.2,0,5,5,0,0,0-1,1.32h0A5.08,5.08,0,0,0,43.5,11.89Z" fill="#222737"/></svg>