<svg height="64" preserveAspectRatio="xMinYMid" aria-hidden="true" focusable="false" viewBox="0 0 64 64" width="64" xmlns="http://www.w3.org/2000/svg"><path d="M42.45,41.92v7.16a1.2,1.2,0,0,1-1.19,1.2H39.13a.57.57,0,0,0-.59.54l-.87,10.3a1.18,1.18,0,0,1-1.18,1.09H29.33a1.19,1.19,0,0,1-1.19-1.09l-.86-10.3a.59.59,0,0,0-.6-.54H24.55a1.2,1.2,0,0,1-1.19-1.2V41.92a9.56,9.56,0,0,1,6.47-9,.6.6,0,0,0,.36-.34.6.6,0,0,0-.32-.79,7.76,7.76,0,1,1,6.07,0,.56.56,0,0,0-.33.36.61.61,0,0,0,.37.77A9.54,9.54,0,0,1,42.45,41.92ZM15.1,17.83a.6.6,0,0,1-.37-.77.61.61,0,0,1,.31-.34,6.55,6.55,0,1,0-5.56,0,.59.59,0,0,1,.29.8.58.58,0,0,1-.34.31,8.37,8.37,0,0,0-5.52,7.86v3.58A1.19,1.19,0,0,0,5.1,30.46h2a.6.6,0,0,1,.59.53l1,9.16a1.19,1.19,0,0,0,1.18,1.06h4.78a1.19,1.19,0,0,0,1.18-1.06l1-9.16a.6.6,0,0,1,.59-.53h2a1.19,1.19,0,0,0,1.19-1.19h0V25.68A8.37,8.37,0,0,0,15.1,17.83Zm41.29,0a.59.59,0,0,1-.36-.77.55.55,0,0,1,.31-.34,6.57,6.57,0,1,0-5.56,0,.58.58,0,0,1,.34.57.59.59,0,0,1-.39.54,8.37,8.37,0,0,0-5.52,7.86v3.58a1.2,1.2,0,0,0,1.19,1.19h2A.6.6,0,0,1,49,31l1,9.16a1.2,1.2,0,0,0,1.19,1.06h4.77a1.2,1.2,0,0,0,1.19-1.06l1-9.16a.59.59,0,0,1,.59-.53h2a1.19,1.19,0,0,0,1.19-1.19V25.68A8.38,8.38,0,0,0,56.39,17.83Zm-41.29,0a.6.6,0,0,1-.37-.77.61.61,0,0,1,.31-.34,6.55,6.55,0,1,0-5.56,0,.59.59,0,0,1,.29.8.58.58,0,0,1-.34.31,8.37,8.37,0,0,0-5.52,7.86v3.58A1.19,1.19,0,0,0,5.1,30.46h2a.6.6,0,0,1,.59.53l1,9.16a1.19,1.19,0,0,0,1.18,1.06h4.78a1.19,1.19,0,0,0,1.18-1.06l1-9.16a.6.6,0,0,1,.59-.53h2a1.19,1.19,0,0,0,1.19-1.19h0V25.68A8.37,8.37,0,0,0,15.1,17.83Zm41.29,0a.59.59,0,0,1-.36-.77.55.55,0,0,1,.31-.34,6.57,6.57,0,1,0-5.56,0,.58.58,0,0,1,.34.57.59.59,0,0,1-.39.54,8.37,8.37,0,0,0-5.52,7.86v3.58a1.2,1.2,0,0,0,1.19,1.19h2A.6.6,0,0,1,49,31l1,9.16a1.2,1.2,0,0,0,1.19,1.06h4.77a1.2,1.2,0,0,0,1.19-1.06l1-9.16a.59.59,0,0,1,.59-.53h2a1.19,1.19,0,0,0,1.19-1.19V25.68A8.38,8.38,0,0,0,56.39,17.83Z" fill="#222737"/></svg>