<svg height="64" preserveAspectRatio="xMinYMid" aria-hidden="true" focusable="false" viewBox="0 0 64 64" width="64" xmlns="http://www.w3.org/2000/svg"><path d="M18.45,50.91a5.36,5.36,0,1,0-5.36,5.36A5.37,5.37,0,0,0,18.45,50.91Zm-7.1,0a1.74,1.74,0,1,1,1.74,1.74A1.74,1.74,0,0,1,11.35,50.91ZM56.82,10.09H27.27a1.82,1.82,0,0,0,0,3.63H56.82a.55.55,0,0,1,.56.55V56.82a.56.56,0,0,1-.56.56h-36a10,10,0,0,0,2.35-6.47V13.09A10.09,10.09,0,1,0,3,13.09V50.91A10.11,10.11,0,0,0,13.09,61H56.82A4.18,4.18,0,0,0,61,56.82V14.27A4.18,4.18,0,0,0,56.82,10.09ZM13.09,6.63a6.46,6.46,0,0,1,6.46,6.46V43.18a10.05,10.05,0,0,0-12.92,0V13.09A6.46,6.46,0,0,1,13.09,6.63ZM6.63,50.91a6.46,6.46,0,1,1,6.46,6.47A6.46,6.46,0,0,1,6.63,50.91ZM52.18,35.49a1,1,0,0,1-1,1H49.86a.26.26,0,0,0-.25.26v10a1,1,0,0,1-1,1H42.67a.25.25,0,0,1-.25-.26V42.68a2.57,2.57,0,0,0-5.14,0v4.88a.26.26,0,0,1-.26.26h-5.9a1,1,0,0,1-1-1v-10a.26.26,0,0,0-.26-.26H28.55a1,1,0,0,1-.73-.3,1,1,0,0,1,0-1.45l11.3-11.3a1,1,0,0,1,1.45,0L43,25.9a.26.26,0,0,0,.19.07.25.25,0,0,0,.25-.26v-.49a1,1,0,0,1,1-1h3.08a1,1,0,0,1,1,1v6.15a.27.27,0,0,0,.08.18l3.21,3.22A1,1,0,0,1,52.18,35.49Z" fill="#222737"/></svg>