<svg height="64" preserveAspectRatio="xMinYMid" aria-hidden="true" focusable="false" viewBox="0 0 64 64" width="64" xmlns="http://www.w3.org/2000/svg"><path d="M54.69,3H45.13A5.07,5.07,0,0,0,40.06,8v.17a5.07,5.07,0,0,0,5.07,5.07h9.56a5.07,5.07,0,0,0,5.06-5.07V8A5.07,5.07,0,0,0,54.69,3Zm1,5.23a1,1,0,0,1-1,1H45.13a1,1,0,0,1-1-1V8a1,1,0,0,1,1-1h9.56a1,1,0,0,1,1,1ZM45.14,19.7v-.18a5.07,5.07,0,0,0-5.06-5.06H30.51a5.07,5.07,0,0,0-5.06,5.06v.18a5.07,5.07,0,0,0,5.06,5.06h9.57A5.07,5.07,0,0,0,45.14,19.7Zm-15.65,0v-.18a1,1,0,0,1,1-1h9.57a1,1,0,0,1,1,1v.18a1,1,0,0,1-1,1H30.51A1,1,0,0,1,29.49,19.7ZM54.69,27H45.13a5.07,5.07,0,0,0-5.07,5.06v.17a5.07,5.07,0,0,0,5.07,5.06h9.56a5.07,5.07,0,0,0,5.06-5.06v-.17A5.07,5.07,0,0,0,54.69,27Zm1,5.23a1,1,0,0,1-1,1H45.13a1,1,0,0,1-1-1v-.17a1,1,0,0,1,1-1h9.56a1,1,0,0,1,1,1ZM20.87,40.41A18,18,0,0,1,30.9,44a1.26,1.26,0,0,0,.77.26h8.61a2.59,2.59,0,0,1,0,5.18H29.93a1.3,1.3,0,1,0,0,2.59H40.28a5.17,5.17,0,0,0,4.62-2.87,1.29,1.29,0,0,1,.75-.66l8.86-2.94a6.43,6.43,0,0,1,6.24,1.24,1.39,1.39,0,0,1,.36.44,1.33,1.33,0,0,1-.58,1.79C31.21,63.9,40.22,63.74,13.68,54.85a1.29,1.29,0,0,0-1.1.13L3.73,60.51a.67.67,0,0,1-.34.09A.64.64,0,0,1,2.74,60V46a.64.64,0,0,1,.36-.58l7.81-3.92a10.33,10.33,0,0,1,4.63-1.09Z" fill="#222737"/></svg>