<svg height="64" preserveAspectRatio="xMinYMid" aria-hidden="true" focusable="false" viewBox="0 0 64 64" width="64" xmlns="http://www.w3.org/2000/svg"><path d="M46.57,29.3A15.71,15.71,0,1,0,62.27,45,15.71,15.71,0,0,0,46.57,29.3Zm7.25,11.06-7,9.36a3.63,3.63,0,0,1-5.08.72,3.17,3.17,0,0,1-.39-.34l-3.62-3.62a1.81,1.81,0,0,1,2.47-2.66l.09.09,3.14,3.15a.61.61,0,0,0,.85,0l.06-.07,6.6-8.8a1.81,1.81,0,1,1,2.9,2.17ZM14.54,25.67a1.82,1.82,0,0,1,1.82-1.81H32.07a1.81,1.81,0,1,1,0,3.62H16.36A1.82,1.82,0,0,1,14.54,25.67Zm0,8.46a1.82,1.82,0,0,1,1.82-1.81h7.25a1.81,1.81,0,1,1,0,3.62H16.36A1.82,1.82,0,0,1,14.54,34.13Zm0,8.46a1.82,1.82,0,0,1,1.82-1.81H23a1.81,1.81,0,1,1,0,3.62H16.36A1.82,1.82,0,0,1,14.54,42.59ZM17,17.82H37.5a.61.61,0,0,0,.61-.61V10a.6.6,0,0,0-.61-.6H33.27v-.6a6.06,6.06,0,0,0-6.08-6,6,6,0,0,0-6,6.26v.39H17a.6.6,0,0,0-.6.6v7.25A.6.6,0,0,0,17,17.82ZM27.23,6.34a1.81,1.81,0,1,1-1.81,1.81A1.81,1.81,0,0,1,27.23,6.34ZM34,59.65a.62.62,0,0,1,.21.46.6.6,0,0,1-.6.6H9.11a4.84,4.84,0,0,1-4.84-4.83V14.19A4.84,4.84,0,0,1,9.11,9.36h3a.6.6,0,0,1,.6.6v3.63a.6.6,0,0,1-.6.6H10.32A1.21,1.21,0,0,0,9.11,15.4V54.67a1.21,1.21,0,0,0,1.21,1.21h20a.61.61,0,0,1,.48.25A19.17,19.17,0,0,0,34,59.65Zm12.6-34-.57,0h0a.6.6,0,0,1-.6-.6V15.4a1.21,1.21,0,0,0-1.21-1.21H42.34a.6.6,0,0,1-.61-.6V10h0a.6.6,0,0,1,.61-.6h3a4.83,4.83,0,0,1,4.83,4.83V25.31a.38.38,0,0,1,0,.1.6.6,0,0,1-.69.5A20.41,20.41,0,0,0,46.57,25.67Z" fill="#222737"/></svg>