<svg height="64" preserveAspectRatio="xMinYMid" aria-hidden="true" focusable="false" viewBox="0 0 64 64" width="64" xmlns="http://www.w3.org/2000/svg"><path d="M46.17,15.09a1.21,1.21,0,0,1,.95-.06,1.23,1.23,0,0,1,.75,1.56L44.52,26a1.24,1.24,0,0,1-1.16.81,1.34,1.34,0,0,1-.4-.07l-9.13-3.2a1.23,1.23,0,0,1-.14-2.26l2.39-1.18h0a.61.61,0,0,0,.25-.83l-3.94-7.18a.64.64,0,0,0-.25-.24.61.61,0,0,0-.83.24L24.79,23.94l-.14.25A3.06,3.06,0,0,1,19.42,21L27,7.16a5.51,5.51,0,0,1,9.66,0l5.17,9.4a.61.61,0,0,0,.81.25l3.49-1.72Zm4.77,18a3.06,3.06,0,1,0-5.48,2.74,1.28,1.28,0,0,0,.11.2l7.55,13.76a.61.61,0,0,1-.23.83.63.63,0,0,1-.3.07H44.35a.61.61,0,0,1-.62-.61V46.38a1.23,1.23,0,0,0-2.08-.88l-7.51,7.35a1.23,1.23,0,0,0,0,1.73l0,0L41.65,62a1.24,1.24,0,0,0,.86.34,1.09,1.09,0,0,0,.47-.09,1.22,1.22,0,0,0,.75-1.13V57.4a.61.61,0,0,1,.62-.61H54.66a5.5,5.5,0,0,0,4.83-8.17ZM4.29,54.1A5.54,5.54,0,0,0,9,56.8H24.49a3.07,3.07,0,1,0,0-6.13H11.11a.61.61,0,0,1-.62-.61.6.6,0,0,1,.08-.29l5.23-9.5a.62.62,0,0,1,.83-.24l0,0,2.21,1.39a1.15,1.15,0,0,0,.65.19,1.23,1.23,0,0,0,1.23-1.22,1.24,1.24,0,0,0,0-.27l-2.11-9.45a1.22,1.22,0,0,0-1.45-.93l-9.66,2a1.23,1.23,0,0,0-.4,2.24l3.32,2.08a.63.63,0,0,1,.21.82L4.2,48.64A5.54,5.54,0,0,0,4.29,54.1Z" fill="#222737"/></svg>