<svg height="64" preserveAspectRatio="xMinYMid" aria-hidden="true" focusable="false" viewBox="0 0 64 64" width="64" xmlns="http://www.w3.org/2000/svg"><path d="M51.06,23.35a1.59,1.59,0,0,1-1.58,1.59h-7.4a1.59,1.59,0,1,1,0-3.18c1,0,1.19-1.52,1.19-2.11v-.26H42.08a1.59,1.59,0,1,1,0-3.17h1.19V14.57a3.9,3.9,0,1,1,7.79,0,1.59,1.59,0,0,1-3.17,0c0-.51-.22-.73-.73-.73s-.72.22-.72.73v1.65h1.19a1.59,1.59,0,0,1,0,3.17H46.44v.26a6.67,6.67,0,0,1-.32,2.11h3.36A1.59,1.59,0,0,1,51.06,23.35ZM43.65,36.57a15,15,0,0,1-15-15c0-.26,0-.53,0-.79l-1-.87a1.7,1.7,0,0,0-2.2,0L3.38,38.61A1.71,1.71,0,0,0,3.17,41a1.74,1.74,0,0,0,1.31.6h5.1v17a1.7,1.7,0,0,0,1.7,1.7h8.5a1.7,1.7,0,0,0,1.7-1.7V51a5.1,5.1,0,0,1,10.2,0v7.65a1.7,1.7,0,0,0,1.7,1.7h8.5a1.7,1.7,0,0,0,1.7-1.7v-17h5.1a1.7,1.7,0,0,0,1.1-3L46.93,36.2a14.61,14.61,0,0,1-3.26.37ZM49,33.31a15.22,15.22,0,0,1-3.26.37h0a15,15,0,0,1-15-15c0-.27,0-.53,0-.79s.06-.7.1-1A15,15,0,1,1,49,33.31ZM57.6,18.68a11.82,11.82,0,0,0-23.49-1.83,11.39,11.39,0,0,0,0,3.86A11.84,11.84,0,0,0,45.72,30.5h.06A11.83,11.83,0,0,0,57.6,18.68Z" fill="#222737"/></svg>