<svg height="64" preserveAspectRatio="xMinYMid" aria-hidden="true" focusable="false" viewBox="0 0 64 64" width="64" xmlns="http://www.w3.org/2000/svg"><path d="M60.84,5.5v53a2.5,2.5,0,0,1-2.5,2.5h-52a2.5,2.5,0,0,1-2.5-2.5V37a2.5,2.5,0,0,1,5,0V56H44.46V54.19a2.5,2.5,0,0,1,5,0V56h6.38V43.25H40.6v4.26a2.5,2.5,0,0,1-5,0V36.86a2.5,2.5,0,0,1,5,0v1.39H55.84V8H49.46V20.34a2.5,2.5,0,0,1-5,0V8H8.82v2.76a2.5,2.5,0,1,1-5,0V5.5A2.5,2.5,0,0,1,6.32,3h52A2.5,2.5,0,0,1,60.84,5.5Zm-28.78,19-2.83-2.84a.24.24,0,0,1-.07-.16V16a.9.9,0,0,0-.9-.9H25.55a.9.9,0,0,0-.91.9v.44a.23.23,0,0,1-.22.23.24.24,0,0,1-.16-.07L22.12,14.5a.91.91,0,0,0-1.28,0l-9.95,10a.91.91,0,0,0,0,1.28.94.94,0,0,0,.64.26h1.13a.23.23,0,0,1,.23.23V35a.9.9,0,0,0,.9.91H29.16a.91.91,0,0,0,.91-.91V26.22a.22.22,0,0,1,.22-.23h1.13a.9.9,0,0,0,.64-1.54Z" fill="#222737"/></svg>