<svg height="64" preserveAspectRatio="xMinYMid" aria-hidden="true" focusable="false" viewBox="0 0 64 64" width="64" xmlns="http://www.w3.org/2000/svg"><path d="M46.77,36.9A12.05,12.05,0,0,1,60.69,52.61a1.12,1.12,0,0,1-.29.46,1.2,1.2,0,0,1-1.7,0l-5.93-5.93a1.25,1.25,0,0,0-.86-.35H48.5A1.21,1.21,0,0,0,47.29,48v3.41a1.17,1.17,0,0,0,.35.85l5.92,5.92a1.32,1.32,0,0,1,.29.48,1.2,1.2,0,0,1-.77,1.52,12,12,0,0,1-3.85.63,12.77,12.77,0,0,1-2.46-.26,12.08,12.08,0,0,1-9.32-14.3,1.2,1.2,0,0,0-.31-1.11l-2-2a1.21,1.21,0,0,1,0-1.71l6.83-6.82a1.21,1.21,0,0,1,1.71,0l2,2A1.21,1.21,0,0,0,46.77,36.9ZM29.61,20.54l-2.05-2.05a1.2,1.2,0,0,1-.31-1.11A12.06,12.06,0,0,0,11.54,3.46a1.21,1.21,0,0,0-.46,2L17,11.4a1.19,1.19,0,0,1,.35.85v3.42a1.21,1.21,0,0,1-1.21,1.21H12.75a1.22,1.22,0,0,1-.86-.36L6,10.61a1.2,1.2,0,0,0-1.7,0,1.22,1.22,0,0,0-.3.48A12.06,12.06,0,0,0,17.91,26.7,1.22,1.22,0,0,1,19,27l2.06,2.06a1.21,1.21,0,0,0,1.71,0l6.82-6.83a1.19,1.19,0,0,0,0-1.7S29.62,20.54,29.61,20.54Zm14,5.52-5.47-5.47a1.2,1.2,0,0,0-1.71,0L6,51a4.82,4.82,0,0,0,0,6.83l.34.35a4.83,4.83,0,0,0,6.84,0h0L43.58,27.77A1.21,1.21,0,0,0,43.58,26.06Zm5.72,0A3.31,3.31,0,0,0,54,26l6.43-6.43a3.29,3.29,0,0,0,0-4.66L50.81,5.35a1.19,1.19,0,0,0-1.49-.17A9.27,9.27,0,0,1,38.06,3.32a1.23,1.23,0,0,0-1.71,0L33.8,5.86a3.31,3.31,0,0,0,0,4.66Z" fill="#222737"/></svg>