<svg height="64" preserveAspectRatio="xMinYMid" aria-hidden="true" focusable="false" viewBox="0 0 64 64" width="64" xmlns="http://www.w3.org/2000/svg"><path d="M11.46,48a5.32,5.32,0,1,1,5.32-5.32A5.32,5.32,0,0,1,11.46,48Zm0,1.92a8.67,8.67,0,0,0-8.24,6,.61.61,0,0,0,.37.77l.2,0H19.13a.6.6,0,0,0,.57-.79A8.7,8.7,0,0,0,11.46,49.92Zm35.77-7.23a5.32,5.32,0,1,0,5.32-5.32,5.32,5.32,0,0,0-5.32,5.32Zm5.32,7.23a8.69,8.69,0,0,0-8.25,6,.6.6,0,0,0,.38.76.69.69,0,0,0,.2,0H60.21a.63.63,0,0,0,.49-.24.61.61,0,0,0,.08-.54A8.69,8.69,0,0,0,52.55,49.92ZM26.69,47.51A5.32,5.32,0,1,0,32,42.19,5.31,5.31,0,0,0,26.69,47.51ZM32,54.75a8.7,8.7,0,0,0-8.24,6,.62.62,0,0,0,.38.77.69.69,0,0,0,.2,0H39.67a.59.59,0,0,0,.6-.61.57.57,0,0,0,0-.18A8.7,8.7,0,0,0,32,54.75ZM30.29,40.27,22.72,32.7a.64.64,0,0,0-.43-.18H18.71a4.83,4.83,0,0,1-4.83-4.83V8.35a4.83,4.83,0,0,1,4.83-4.83H50.13A4.83,4.83,0,0,1,55,8.35V27.69a4.83,4.83,0,0,1-4.83,4.83H35a.6.6,0,0,0-.6.61v5.43a2.42,2.42,0,0,1-4.13,1.71ZM49.52,27.69h0a.59.59,0,0,0,.6-.61V9a.61.61,0,0,0-.6-.61H19.31a.61.61,0,0,0-.6.61V27.08h0a.6.6,0,0,0,.6.6h4.24a2.38,2.38,0,0,1,1.7.72l3.31,3.29a.61.61,0,0,0,1-.43V30.1A2.41,2.41,0,0,1,32,27.69Zm-7.25-6a1.82,1.82,0,0,0-1.82-1.82H23.54a1.82,1.82,0,0,0,0,3.63H40.45A1.81,1.81,0,0,0,42.27,21.65ZM21.73,14.4a1.81,1.81,0,0,0,1.81,1.81H45.29a1.82,1.82,0,0,0,0-3.63H23.54A1.82,1.82,0,0,0,21.73,14.4Z" fill="#222737"/></svg>