<svg height="64" preserveAspectRatio="xMinYMid" aria-hidden="true" focusable="false" viewBox="0 0 64 64" width="64" xmlns="http://www.w3.org/2000/svg"><path d="M60.8,44.28s0-.09,0-.13L60.26,43a2.81,2.81,0,0,0-3.14-1.63l-.1,0a1.6,1.6,0,0,1-1.25-3l.08,0a2.8,2.8,0,0,0,1-3.4l-.49-1.15-.06-.13a4.17,4.17,0,0,0-5.49-1.79l-8.68,3.7h0L26.85,42.12a4.15,4.15,0,0,0-2.53,5.19.78.78,0,0,1,.05.14l.5,1.15A2.78,2.78,0,0,0,28,50.23a1.55,1.55,0,0,0,.23-.06,1.6,1.6,0,0,1,2,.95,1.58,1.58,0,0,1-.8,2,1.32,1.32,0,0,0-.2.12,2.78,2.78,0,0,0-1,3.39l.49,1.16.06.12a4.15,4.15,0,0,0,3.68,2.21,4,4,0,0,0,1.81-.42l24-10.19A4.16,4.16,0,0,0,60.8,44.28ZM32.94,56.58l-.11.05a.76.76,0,0,1-1-.28l-.25-.59a5,5,0,0,0-3.82-9l-.25-.59a.77.77,0,0,1,.49-.91l.11,0L42,39.36l5.1,11.21ZM57.11,46.3l-.11,0-6.83,2.91L45.07,38l7.12-3,.1-.05a.76.76,0,0,1,1,.27l.27.63a5.23,5.23,0,0,0-1.76,5.89c0,.06.05.13.08.19a5.24,5.24,0,0,0,5.47,2.82l.26.62A.76.76,0,0,1,57.11,46.3ZM42,43.5a1.69,1.69,0,0,1-.9,2.21L35.94,47.9a1.69,1.69,0,0,1-1.32-3.11l5.15-2.19A1.69,1.69,0,0,1,42,43.5Zm.12,3.8a1.69,1.69,0,0,1,1.32,3.11L38.28,52.6a1.57,1.57,0,0,1-.66.14A1.69,1.69,0,0,1,37,49.49Zm6.78-25.52a5.47,5.47,0,1,1,5.47,5.46A5.47,5.47,0,0,1,48.89,21.78ZM10.5,24.12l-.85-9.59a21.25,21.25,0,0,1,4.44-3.19l8.61,3.74v5.33L14.76,26.2Zm14.83-9L34,11.38a21.12,21.12,0,0,1,4.43,3.23l-.89,9.54-4.07,2.19-8.13-5.93ZM14.43,40.93,5.07,38.85a20.9,20.9,0,0,1-1.68-5.12l6.2-7.13,4.23,2.07,3.08,9.51ZM45,30l-4.84-5.48.67-7.25A21,21,0,0,1,45,29.82ZM34.13,29l4.35-2.34,4.64,5.25L38,34.06h0L31.6,36.77ZM7.9,24.54,3,30.15v-.33A21,21,0,0,1,7.25,17.19Zm14.8,26c.46.34-1,.4-1.3.13l-4.87-8.09L19,39.81h5.5l-1.76.75a4.15,4.15,0,0,0-2.53,5.19s0,.09.05.13l.5,1.16ZM24,22.71l7.58,5.52-2.9,9H19.34l-2.9-8.95Zm0-9.93L17.41,9.91a20.75,20.75,0,0,1,13.26,0Zm-10,30.77,3.81,6.33A21,21,0,0,1,6.89,42Z" fill="#222737"/></svg>