<svg height="64" preserveAspectRatio="xMinYMid" aria-hidden="true" focusable="false" viewBox="0 0 64 64" width="64" xmlns="http://www.w3.org/2000/svg"><path d="M55.06,21c0,.51,0,1,0,1.54,0,15.72-12,33.86-33.86,33.86A33.66,33.66,0,0,1,3,51a24.2,24.2,0,0,0,2.84.17,23.92,23.92,0,0,0,14.78-5.1A11.9,11.9,0,0,1,9.5,37.84a11.81,11.81,0,0,0,2.24.21,11.66,11.66,0,0,0,3.14-.42A11.9,11.9,0,0,1,5.33,26v-.15a11.83,11.83,0,0,0,5.39,1.48A11.91,11.91,0,0,1,7,11.42,33.8,33.8,0,0,0,31.56,23.85a12.1,12.1,0,0,1-.3-2.71A11.9,11.9,0,0,1,51.84,13a24.1,24.1,0,0,0,7.56-2.89,12,12,0,0,1-5.23,6.58A23.43,23.43,0,0,0,61,14.82,24.16,24.16,0,0,1,55.06,21Z" fill="#222737"/></svg>