<svg height="64" preserveAspectRatio="xMinYMid" aria-hidden="true" focusable="false" viewBox="0 0 64 64" width="64" xmlns="http://www.w3.org/2000/svg"><path d="M32,3A29,29,0,1,0,61,32,29,29,0,0,0,32,3Zm0,53.17A24.17,24.17,0,1,1,56.17,32,24.17,24.17,0,0,1,32,56.17ZM47.71,29V40.46a3.62,3.62,0,0,1-3.63,3.62H19.92a3.62,3.62,0,0,1-3.62-3.62V29a.61.61,0,0,1,.92-.52l11.92,7.44a5.44,5.44,0,0,0,5.76,0l11.89-7.44a.6.6,0,0,1,.92.52Zm0-5.47a.2.2,0,0,1-.07.15L33,32.86a1.82,1.82,0,0,1-1.93,0L16.38,23.69a.16.16,0,0,1-.09-.15,3.62,3.62,0,0,1,3.63-3.62H44.08A3.62,3.62,0,0,1,47.71,23.54Z" fill="#222737"/></svg>