<svg height="64" preserveAspectRatio="xMinYMid" aria-hidden="true" focusable="false" viewBox="0 0 64 64" width="64" xmlns="http://www.w3.org/2000/svg"><path d="M60.05,15.89a1.85,1.85,0,0,0-1.86.08s-5.4,3.41-15.33,3.32l0,14.51a21.79,21.79,0,0,1-1.32,7.38,7.12,7.12,0,0,1,1.32-.13,7.25,7.25,0,0,1,7.25,7.25H37.29A21.92,21.92,0,0,1,30,53.66a17.9,17.9,0,0,0,12.92,5.51A18.14,18.14,0,0,0,61,41.05V17.49A1.83,1.83,0,0,0,60.05,15.89ZM46.5,33.8a3.63,3.63,0,1,1,7.25,0Zm-7.25,0V10.24a1.8,1.8,0,0,0-1-1.59,1.82,1.82,0,0,0-1.86.07s-5.22,3.33-15.31,3.33S5.92,8.8,5.81,8.73A1.79,1.79,0,0,0,4,8.64a1.81,1.81,0,0,0-1,1.6V33.8a18.13,18.13,0,1,0,36.25,0ZM13.87,22.93a3.62,3.62,0,0,1,3.63,3.62H10.25A3.62,3.62,0,0,1,13.87,22.93Zm7.26,18.12a7.25,7.25,0,0,1-7.25-7.25h14.5A7.26,7.26,0,0,1,21.13,41.05Zm3.62-14.5a3.63,3.63,0,0,1,7.25,0Z" fill="#222737"/></svg>