<svg height="64" preserveAspectRatio="xMinYMid" aria-hidden="true" focusable="false" viewBox="0 0 64 64" width="64" xmlns="http://www.w3.org/2000/svg"><path d="M20.09,26.84A12.09,12.09,0,1,0,8,14.75,12.09,12.09,0,0,0,20.09,26.84ZM13.09,13a1.2,1.2,0,0,1,1.47-.86,1.27,1.27,0,0,1,.32.13,16.72,16.72,0,0,0,8.73,2.52,14.12,14.12,0,0,0,2.25-.17,1.22,1.22,0,0,1,1.38,1,2,2,0,0,1,0,.35,7.25,7.25,0,0,1-14.4-1.2A6.78,6.78,0,0,1,13.09,13ZM24.71,41.34a1.21,1.21,0,0,1-1.2,1.21H4.39a1.34,1.34,0,0,1-.35,0A1.22,1.22,0,0,1,3.23,41,18.21,18.21,0,0,1,20.59,28.05a17.91,17.91,0,0,1,8.7,2.26,1.19,1.19,0,0,1,.5.54,1.21,1.21,0,0,1-.57,1.61,7.82,7.82,0,0,0-4.51,7.06Zm32-6H32.57a4.22,4.22,0,0,0-4.23,4.22V56.44a4.23,4.23,0,0,0,4.23,4.23H56.74A4.22,4.22,0,0,0,61,56.44V39.52A4.22,4.22,0,0,0,56.74,35.3Zm0,21.75H32.57a.63.63,0,0,1-.61-.61V49.19a.61.61,0,0,1,.61-.6H56.74a.6.6,0,0,1,.6.6v7.25A.6.6,0,0,1,56.74,57.05ZM32.57,38.92H56.74a.6.6,0,0,1,.6.6v2.42a.6.6,0,0,1-.6.61H32.57a.61.61,0,0,1-.61-.61V39.52A.62.62,0,0,1,32.57,38.92Z" fill="#222737"/></svg>