<svg height="64" preserveAspectRatio="xMinYMid" aria-hidden="true" focusable="false" viewBox="0 0 64 64" width="64" xmlns="http://www.w3.org/2000/svg"><path d="M21.05,39A17.88,17.88,0,0,1,31,42.63a1.26,1.26,0,0,0,.77.26h8.53a2.57,2.57,0,1,1,0,5.13H30a1.29,1.29,0,0,0,0,2.57H40.28a5.13,5.13,0,0,0,4.58-2.85,1.3,1.3,0,0,1,.75-.65l8.78-2.91a6.37,6.37,0,0,1,6.19,1.23,1.35,1.35,0,0,1,.35.43,1.31,1.31,0,0,1-.57,1.77C31.29,62.32,40.22,62.17,13.92,53.35a1.3,1.3,0,0,0-1.09.13L4.06,59a.7.7,0,0,1-.34.1.64.64,0,0,1-.64-.64V44.58A.64.64,0,0,1,3.43,44l7.74-3.88A10.32,10.32,0,0,1,15.76,39ZM54.37,13.22A18.8,18.8,0,0,1,54,16.91a15.77,15.77,0,0,1-3.53,7.32,21.83,21.83,0,0,1-6.83,5.12,18.47,18.47,0,0,1-8.37,2.06,16.82,16.82,0,0,1-5.47-.9c-.19-.06-.75-.33-1.68-.8A5.73,5.73,0,0,0,26.28,29c-.21,0-.46.21-.76.62A13.88,13.88,0,0,0,24.66,31a6.16,6.16,0,0,1-1,1.34,1.65,1.65,0,0,1-1.15.61,2.07,2.07,0,0,1-1-.21,1.62,1.62,0,0,1-.59-.46,7.55,7.55,0,0,1-.52-.8,2.28,2.28,0,0,0-.11-.21L20.21,31a.93.93,0,0,1-.06-.18,2.28,2.28,0,0,1,0-.26,2.23,2.23,0,0,1,.59-1.4A6.71,6.71,0,0,1,22,27.93a14,14,0,0,0,1.3-1.07c.39-.37.59-.67.59-.91a4.58,4.58,0,0,0-.27-.73,4.91,4.91,0,0,1-.3-.84,10.91,10.91,0,0,1-.18-2,10.79,10.79,0,0,1,.84-4.2,11.43,11.43,0,0,1,2.27-3.53A16.43,16.43,0,0,1,29.53,12a17.84,17.84,0,0,1,3.9-1.83,12.66,12.66,0,0,1,2.77-.49c1.14-.09,2.29-.15,3.43-.17S41.9,9.46,43,9.41A15.5,15.5,0,0,0,46.16,9a5,5,0,0,0,2.17-1.08l.56-.56.57-.54c.37-.36.55-.48.51-.38s.2,0,.7-.31.77-.33.83-.08a1.66,1.66,0,0,1,1.35.88A6.55,6.55,0,0,1,53.76,9c.2.84.35,1.63.46,2.37A14,14,0,0,1,54.37,13.22ZM44.58,17a1.2,1.2,0,0,0-.36-.86,1.18,1.18,0,0,0-.86-.36,18.86,18.86,0,0,0-6.08,1,17.57,17.57,0,0,0-5,2.56,30.87,30.87,0,0,0-4.5,4.19,1.25,1.25,0,0,0-.37.86,1.15,1.15,0,0,0,.37.86,1.16,1.16,0,0,0,.86.36,1.28,1.28,0,0,0,.86-.36c.34-.3.81-.76,1.41-1.36l1.28-1.26a17.32,17.32,0,0,1,5.13-3.36,16.34,16.34,0,0,1,6-1,1.15,1.15,0,0,0,.86-.37A1.18,1.18,0,0,0,44.58,17Z" fill="#222737"/></svg>