<svg height="64" preserveAspectRatio="xMinYMid" aria-hidden="true" focusable="false" viewBox="0 0 64 64" width="64" xmlns="http://www.w3.org/2000/svg"><path d="M50.49,17.44a1.21,1.21,0,0,1-.77-1.53L54,3.83a1.21,1.21,0,0,1,2.3,0l4.22,12.08a1.07,1.07,0,0,1,.07.39,1.21,1.21,0,0,1-1.21,1.2H50.87A1.21,1.21,0,0,1,50.49,17.44Zm-6.27-7.19v43.5a2.41,2.41,0,0,1-2.41,2.42h-35a3.64,3.64,0,0,1-3.63-3.63V11.46A3.63,3.63,0,0,1,6.77,7.84h35A2.41,2.41,0,0,1,44.22,10.25ZM38.79,51.33a.6.6,0,0,0,.6-.6V13.27a.6.6,0,0,0-.6-.6H12.21a.6.6,0,0,0-.61.6V50.73a.6.6,0,0,0,.61.6ZM18.85,18.71V26a1.21,1.21,0,0,0,1.21,1.21H30.94A1.21,1.21,0,0,0,32.14,26V18.71a1.21,1.21,0,0,0-1.2-1.21H20.06A1.21,1.21,0,0,0,18.85,18.71Zm30.21,2.42V48.92a1.21,1.21,0,0,0,1.21,1.21h9.66a1.21,1.21,0,0,0,1.21-1.21V21.13a1.21,1.21,0,0,0-1.21-1.21H50.27A1.21,1.21,0,0,0,49.06,21.13ZM59.93,52.54H50.27a1.21,1.21,0,0,0-1.21,1.21V55a6,6,0,0,0,12.08,0V53.75A1.21,1.21,0,0,0,59.93,52.54Z" fill="#222737"/></svg>