<svg height="64" preserveAspectRatio="xMinYMid" aria-hidden="true" focusable="false" viewBox="0 0 64 64" width="64" xmlns="http://www.w3.org/2000/svg"><path d="M4.26,44.75V36.29a13.28,13.28,0,0,1,23.47-8.54.61.61,0,0,1,.1.61,8.17,8.17,0,0,0-.6,3.09v13.9a.6.6,0,0,1-.61.6H25.27a.6.6,0,0,0-.6.56L23.6,59.35a1.21,1.21,0,0,1-1.21,1.1H12.72a1.21,1.21,0,0,1-1.21-1.1L10.45,46.51a.61.61,0,0,0-.6-.56H5.47A1.21,1.21,0,0,1,4.26,44.75ZM9.1,12.12a8.46,8.46,0,1,0,8.46-8.46A8.46,8.46,0,0,0,9.1,12.12ZM30.85,31.45a4.83,4.83,0,0,1,4.83-4.83H57.43a4.83,4.83,0,0,1,4.83,4.83V48.37a4.83,4.83,0,0,1-4.83,4.83H50.64a.57.57,0,0,0-.38.14L42,59.92a2.3,2.3,0,0,1-1.51.53A2.41,2.41,0,0,1,38.1,58V53.81a.61.61,0,0,0-.61-.61H35.68a4.83,4.83,0,0,1-4.83-4.83ZM49.58,48.37h7.25a.6.6,0,0,0,.6-.6V32.06a.6.6,0,0,0-.6-.61H36.29a.61.61,0,0,0-.61.61V47.77a.61.61,0,0,0,.61.59h4.22a2.42,2.42,0,0,1,2.42,2.42v1a.61.61,0,0,0,1,.49l4.16-3.33A2.44,2.44,0,0,1,49.58,48.37ZM40.51,38.7H52.6a1.81,1.81,0,0,0,0-3.62H40.51a1.81,1.81,0,1,0,0,3.62Zm9.07,4.23a1.81,1.81,0,0,0-1.82-1.81H40.51a1.82,1.82,0,0,0,0,3.63h7.25A1.82,1.82,0,0,0,49.58,42.93ZM9.1,12.12a8.46,8.46,0,1,0,8.46-8.46A8.46,8.46,0,0,0,9.1,12.12ZM30.85,31.45a4.83,4.83,0,0,1,4.83-4.83H57.43a4.83,4.83,0,0,1,4.83,4.83V48.37a4.83,4.83,0,0,1-4.83,4.83H50.64a.57.57,0,0,0-.38.14L42,59.92a2.3,2.3,0,0,1-1.51.53A2.41,2.41,0,0,1,38.1,58V53.81a.61.61,0,0,0-.61-.61H35.68a4.83,4.83,0,0,1-4.83-4.83ZM49.58,48.37h7.25a.6.6,0,0,0,.6-.6V32.06a.6.6,0,0,0-.6-.61H36.29a.61.61,0,0,0-.61.61V47.77a.61.61,0,0,0,.61.59h4.22a2.42,2.42,0,0,1,2.42,2.42v1a.61.61,0,0,0,1,.49l4.16-3.33A2.44,2.44,0,0,1,49.58,48.37ZM40.51,38.7H52.6a1.81,1.81,0,0,0,0-3.62H40.51a1.81,1.81,0,1,0,0,3.62Zm9.07,4.23a1.81,1.81,0,0,0-1.82-1.81H40.51a1.82,1.82,0,0,0,0,3.63h7.25A1.82,1.82,0,0,0,49.58,42.93Z" fill="#222737"/></svg>