<svg height="64" preserveAspectRatio="xMinYMid" aria-hidden="true" focusable="false" viewBox="0 0 64 64" width="64" xmlns="http://www.w3.org/2000/svg"><path d="m13.03,15.41c-.67-2.64.93-5.32,3.56-5.99l15.38-3.91h0s4.76-1.22,4.76-1.22l4.48-1.14c2.64-.66,5.31.93,5.99,3.57l3.75,14.8c.67,2.64-.93,5.32-3.56,5.99l-1.38.35h-14.61c-.27,0-.51-.19-.57-.45-.08-.32.11-.64.43-.73l14.96-3.8-3.15-15.11-1.04.26-24.21,6,1.37,5.81s0,.09,0,.14l1.72,7.14s.02.09.02.14c0,.33-.27.6-.6.6h-3.69c-.27,0-.51-.18-.58-.45l-3.04-12Zm44.25,17.69v5.52c0,1.02-.82,1.84-1.84,1.84h-.48c.3.33.48.76.48,1.23v15.63c0,2.03-1.65,3.68-3.68,3.68H12.23c-2.03,0-3.68-1.65-3.68-3.68v-15.63c0-.48.19-.91.48-1.23h-.48c-1.02,0-1.84-.82-1.84-1.84v-5.52c0-2.03,1.65-3.68,3.68-3.68h43.22c2.03,0,3.68,1.65,3.68,3.68Zm-18.39,12.82c0-1.27-1.03-2.3-2.3-2.3h-7.36c-1.27,0-2.3,1.03-2.3,2.3s1.03,2.3,2.3,2.3h7.36c1.27,0,2.3-1.03,2.3-2.3Zm-9.39-21.33c.76.49,1.77.26,2.26-.5l2.2-3.45,3.45,2.2c.76.49,1.77.26,2.26-.5.49-.76.26-1.77-.5-2.26l-3.45-2.2,2.2-3.45c.49-.76.26-1.77-.5-2.26s-1.77-.26-2.26.5l-2.2,3.45-3.45-2.2c-.76-.49-1.77-.26-2.26.5-.49.76-.26,1.77.5,2.26l3.45,2.2-2.2,3.45c-.49.76-.26,1.77.5,2.26Z" fill="#222737"/></svg>