<svg height="64" preserveAspectRatio="xMinYMid" aria-hidden="true" focusable="false" viewBox="0 0 64 64" width="64" xmlns="http://www.w3.org/2000/svg"><path d="M55.85,7.59H7.51a4.84,4.84,0,0,0-4.83,4.84V45.18a4.74,4.74,0,0,0,4.73,4.71h6.15v8.45A2.41,2.41,0,0,0,16,60.76a2.45,2.45,0,0,0,1.38-.43L32.44,49.89H55.85a4.84,4.84,0,0,0,4.83-4.84V12.43A4.84,4.84,0,0,0,55.85,7.59Zm0,36.86a.6.6,0,0,1-.61.6H31.68a2.39,2.39,0,0,0-1.37.43L18.39,53.73V47.47A2.42,2.42,0,0,0,16,45.05H8.12a.61.61,0,0,1-.61-.6V13a.61.61,0,0,1,.61-.6H55.24a.6.6,0,0,1,.61.6ZM25.64,23.3a2.41,2.41,0,0,1,2.42-2.41H47.39a2.42,2.42,0,1,1,0,4.83H28.06A2.42,2.42,0,0,1,25.64,23.3Zm0,10.88a2.42,2.42,0,0,1,2.42-2.42H47.39a2.42,2.42,0,1,1,0,4.83H28.06A2.41,2.41,0,0,1,25.64,34.18ZM18.39,19.67a3.63,3.63,0,1,1-3.63,3.63A3.63,3.63,0,0,1,18.39,19.67Zm0,10.88a3.63,3.63,0,1,1-3.63,3.62A3.62,3.62,0,0,1,18.39,30.55Z" fill="#222737"/></svg>