<svg height="64" preserveAspectRatio="xMinYMid" aria-hidden="true" focusable="false" viewBox="0 0 64 64" width="64" xmlns="http://www.w3.org/2000/svg"><path d="M27.36,22.62A12.92,12.92,0,0,1,24,12.68a4.93,4.93,0,0,1,0-.55A8.94,8.94,0,0,1,32.72,3a5.25,5.25,0,0,1,.56,0,8.93,8.93,0,0,1,8.16,9.65,13,13,0,0,1-3.39,10,5.11,5.11,0,0,0,.17,3.63,1.2,1.2,0,0,1,0,2.23,25.19,25.19,0,0,1-5.54,2.26,25.31,25.31,0,0,1-5.53-2.26,1.2,1.2,0,0,1,.06-2.24A5.1,5.1,0,0,0,27.36,22.62Zm28.32,8.77V50.48a3.65,3.65,0,0,1-2.41,3.42l-19.74,7a2.47,2.47,0,0,1-1.61,0l-19.74-7a3.63,3.63,0,0,1-2.41-3.42V31.4a3.79,3.79,0,0,1,.2-1.21A3.63,3.63,0,0,1,14.6,28l18.12,6.4L50.85,28a3.62,3.62,0,0,1,4.83,3.41ZM14.6,49.2a.61.61,0,0,0,.4.57l14.5,5.11a.78.78,0,0,0,.21,0,.6.6,0,0,0,.6-.61V39.08a.59.59,0,0,0-.41-.57L15.4,33.39a.65.65,0,0,0-.2,0,.62.62,0,0,0-.6.61ZM50.85,34a.45.45,0,0,0,0-.2A.6.6,0,0,0,50,33.4l-14.5,5.12a.6.6,0,0,0-.4.57V54.31a.52.52,0,0,0,0,.21.6.6,0,0,0,.77.36l14.5-5.11a.61.61,0,0,0,.4-.57Z" fill="#222737"/></svg>