<svg height="64" preserveAspectRatio="xMinYMid" aria-hidden="true" focusable="false" viewBox="0 0 64 64" width="64" xmlns="http://www.w3.org/2000/svg"><path d="M23.81,30.19a2.41,2.41,0,0,1-2.41,2.42H19a2.42,2.42,0,0,1,0-4.84H21.4A2.42,2.42,0,0,1,23.81,30.19Zm9.67-2.42H31.06a2.42,2.42,0,0,0,0,4.84h2.42a2.42,2.42,0,1,0,0-4.84Zm12.08,0H43.15a2.42,2.42,0,0,0,0,4.84h2.41a2.42,2.42,0,0,0,0-4.84ZM21.4,37.44H19a2.42,2.42,0,1,0,0,4.83H21.4a2.42,2.42,0,0,0,0-4.83Zm12.08,0H31.06a2.42,2.42,0,0,0,0,4.83h2.42a2.42,2.42,0,1,0,0-4.83Zm12.08,0H43.15a2.42,2.42,0,1,0,0,4.83h2.41a2.42,2.42,0,1,0,0-4.83ZM21.4,47.11H19a2.42,2.42,0,1,0,0,4.83H21.4a2.42,2.42,0,0,0,0-4.83Zm12.08,0H31.06a2.42,2.42,0,0,0,0,4.83h2.42a2.42,2.42,0,1,0,0-4.83Zm12.08,0H43.15a2.42,2.42,0,1,0,0,4.83h2.41a2.42,2.42,0,1,0,0-4.83Zm14.5-32.63V55.57a4.83,4.83,0,0,1-4.83,4.83H9.31a4.83,4.83,0,0,1-4.83-4.83V14.48A4.83,4.83,0,0,1,9.31,9.65h3.63a1.21,1.21,0,0,1,1.21,1.21V16.3a1.81,1.81,0,1,0,3.62,0V4.82a2.42,2.42,0,1,1,4.83,0V9.05a.62.62,0,0,0,.61.6h15.1a1.21,1.21,0,0,1,1.21,1.21V16.3a1.82,1.82,0,0,0,3.63,0V4.82a2.42,2.42,0,1,1,4.83,0V9.05a.6.6,0,0,0,.6.6h6.65A4.83,4.83,0,0,1,60.06,14.48ZM55.23,25.36A1.21,1.21,0,0,0,54,24.15H10.52a1.21,1.21,0,0,0-1.21,1.21v29a1.21,1.21,0,0,0,1.21,1.21H54a1.21,1.21,0,0,0,1.21-1.21Z" fill="#222737"/></svg>