<svg height="64" preserveAspectRatio="xMinYMid" aria-hidden="true" focusable="false" viewBox="0 0 64 64" width="64" xmlns="http://www.w3.org/2000/svg"><path d="M36.54,42.6l-2.33-7h2a1.43,1.43,0,0,0,0-2.85H32.25a1.42,1.42,0,0,0-1.35,1.87l1.39,4.22-1,1.29H19.14l-1.56-2.58h.36a1.42,1.42,0,0,0,0-2.84H13.49a1.42,1.42,0,1,0,0,2.84h.77L21.75,50H20.19a8.82,8.82,0,1,0,0,2.84h4.08a1.44,1.44,0,0,0,1.12-.54l8-10.21.47,1.44a8.84,8.84,0,1,0,2.71-.89ZM15.24,50a4.09,4.09,0,1,0,0,2.85h2.06a6,6,0,1,1,0-2.85Zm9.19-1.1-3.58-5.93h8.21ZM37.9,57.33a6,6,0,0,1-3.15-11.1l.63,1.9a4.1,4.1,0,1,0,2.71-.87l-.63-1.91a6,6,0,1,1,.44,12ZM47,13.14l4.66,3.49L49.89,22.2H44.1l-1.81-5.57Zm13.47,4.53A13.47,13.47,0,1,0,47,31.26,13.6,13.6,0,0,0,60.42,17.67Zm-4.66,5.49L51.61,24l-2.24,3.75,1.55.69a11.61,11.61,0,0,1-7.94,0l1.56-.69L42.29,24l-4.14-.87-.26,1.65a11.45,11.45,0,0,1-2.42-7.14v-.35l1.12,1.14,2.94-3.31-.43-4.27-1.64.35a11.15,11.15,0,0,1,6.47-4.71l-1,1.4,3.89,1.74,3.88-1.74L50,6.44a11.86,11.86,0,0,1,6.48,4.7l-1.64-.35-.43,4.27,2.93,3.31,1.12-1.13v.35A11.56,11.56,0,0,1,56,24.81Z" fill="#222737"/></svg>