<svg height="64" preserveAspectRatio="xMinYMid" aria-hidden="true" focusable="false" viewBox="0 0 64 64" width="64" xmlns="http://www.w3.org/2000/svg"><path d="M51.39,21.06h0v-6a1.14,1.14,0,0,0-1.14-1.14H9.33a1.14,1.14,0,0,0-1.14,1.14V42.34a1.14,1.14,0,0,0,1.14,1.14H28.65a2.27,2.27,0,0,1,.46,4.5.57.57,0,0,0-.46.56V52a.57.57,0,0,0,.57.57h.57a2.28,2.28,0,0,1,0,4.55H18.42a2.28,2.28,0,0,1,0-4.55h5.12a.56.56,0,0,0,.57-.57V48.59a.56.56,0,0,0-.57-.56H8.19a4.55,4.55,0,0,1-4.54-4.55V13.92A4.54,4.54,0,0,1,8.19,9.38h43.2a4.55,4.55,0,0,1,4.55,4.54v9.31A14.92,14.92,0,0,0,51.39,21.06ZM61.65,38.47A14.81,14.81,0,0,1,46.86,53.26h0A14.8,14.8,0,0,1,32.07,38.47a15.57,15.57,0,0,1,.12-1.81,14.8,14.8,0,0,1,14.67-13,14.53,14.53,0,0,1,4,.56h0a14.9,14.9,0,0,1,4.55,2.16h0A14.81,14.81,0,0,1,61.65,38.47ZM47.51,36.9V35.28c0-.5.21-.72.71-.72s.72.22.72.72a1.57,1.57,0,0,0,3.13,0,3.85,3.85,0,1,0-7.69,0V36.9H43.21a1.57,1.57,0,1,0,0,3.14h1.17v.25c0,.58-.21,2.09-1.17,2.09a1.57,1.57,0,1,0,0,3.13H50.5a1.57,1.57,0,1,0,0-3.13H47.19a6.59,6.59,0,0,0,.32-2.09V40h1.17a1.57,1.57,0,1,0,0-3.14Z" fill="#222737"/></svg>