<svg height="64" preserveAspectRatio="xMinYMid" aria-hidden="true" focusable="false" viewBox="0 0 64 64" width="64" xmlns="http://www.w3.org/2000/svg"><path d="M58.17,37a2.13,2.13,0,0,0-.55.07l-2.07.58L53.4,32.41a4.69,4.69,0,0,0-4-2.69H29.23a4.68,4.68,0,0,0-4,2.69l-2.15,5.24-2-.57a2.13,2.13,0,0,0-.55-.07,1.68,1.68,0,0,0-1.69,1.78V40A2.19,2.19,0,0,0,21,42.19h.23l-.35.85a16.58,16.58,0,0,0-1,5.21V58.67A2.19,2.19,0,0,0,22,60.86h2.85A2.19,2.19,0,0,0,27,58.67v-2.6H51.57v2.6a2.19,2.19,0,0,0,2.18,2.19h2.86a2.19,2.19,0,0,0,2.18-2.19V48.25a16.3,16.3,0,0,0-1-5.21l-.35-.85h.27A2.19,2.19,0,0,0,59.86,40V38.79A1.68,1.68,0,0,0,58.17,37ZM25.44,41.27l2.45-6.65A2.84,2.84,0,0,1,30.3,33h18a2.82,2.82,0,0,1,2.41,1.61l2.12,6.65a1.09,1.09,0,0,1-1.08,1.62H26.52A1.09,1.09,0,0,1,25.44,41.27ZM31.89,51a.88.88,0,0,1-.87.88H24.83A.88.88,0,0,1,24,51v-3a.87.87,0,0,1,.87-.88H31a.87.87,0,0,1,.87.88Zm22.7,0a.89.89,0,0,1-.88.88H47.53a.89.89,0,0,1-.88-.88v-3a.88.88,0,0,1,.88-.88h6.18a.88.88,0,0,1,.88.88Zm-22.82-34A14.21,14.21,0,1,0,17.56,31.27,14.22,14.22,0,0,0,31.77,17.06ZM17.56,27.88A10.82,10.82,0,1,1,28.39,17.06,10.83,10.83,0,0,1,17.56,27.88Zm1-19.25H14.68A1.7,1.7,0,0,0,13,10.32V23.8a1.7,1.7,0,0,0,3.39,0V19.72h2.16a5.55,5.55,0,0,0,0-11.09Zm0,7.7H16.37V12h2.16a2.16,2.16,0,0,1,0,4.31Z" fill="#222737"/></svg>