<svg height="64" preserveAspectRatio="xMinYMid" aria-hidden="true" focusable="false" viewBox="0 0 64 64" width="64" xmlns="http://www.w3.org/2000/svg"><path d="M5.9,45.12V41A.65.65,0,0,1,6,40.61a.6.6,0,0,1,.85-.09,30.86,30.86,0,0,0,14.86,5.34.61.61,0,0,1,.52.54,19,19,0,0,0,2.2,7.23.57.57,0,0,1,.07.34.6.6,0,0,1-.65.55C13.6,53.57,5.9,49.73,5.9,45.12Zm0-10.83c0,4.26,6.56,7.86,15.66,9.15a.62.62,0,0,0,.68-.55,19.32,19.32,0,0,1,1.84-6.78.59.59,0,0,0-.27-.8.83.83,0,0,0-.21-.06c-6.68-.64-13-2.52-16.72-5.53a.6.6,0,0,0-1,.46Zm22.87-9.63c-8.43,0-17.23-2-21.89-5.8a.61.61,0,0,0-.85.08.68.68,0,0,0-.13.39v4.13c0,4.88,8.61,8.9,19.78,9.53a.6.6,0,0,0,.51-.24A19.12,19.12,0,0,1,49.43,27a.59.59,0,0,0,.69-.15,5.11,5.11,0,0,0,1.51-3.44V19.33a.6.6,0,0,0-.6-.6.58.58,0,0,0-.38.13C46,22.66,37.2,24.66,28.77,24.66ZM5.9,12.63c0,5.31,10.24,9.63,22.87,9.63s22.86-4.32,22.86-9.63S41.39,3,28.77,3,5.9,7.31,5.9,12.63ZM46.13,48.38H42.57a7.26,7.26,0,0,0,.34-2.24v-.28h1.26a1.68,1.68,0,1,0,0-3.36H42.91V40.75c0-.54.23-.77.77-.77s.77.23.77.77a1.68,1.68,0,1,0,3.36,0,4.13,4.13,0,0,0-8.26,0V42.5H38.29a1.68,1.68,0,0,0,0,3.36h1.26v.28c0,.62-.22,2.24-1.26,2.24a1.68,1.68,0,0,0,0,3.36h7.84a1.68,1.68,0,0,0,0-3.36Zm12-3.27A15.91,15.91,0,0,1,42.21,61h0A15.91,15.91,0,0,1,26.32,45.11a17.72,17.72,0,0,1,.13-1.94A15.88,15.88,0,0,1,58.1,45.11Zm-3.36,0a12.52,12.52,0,0,0-24.89-1.94,12.39,12.39,0,0,0-.16,1.94A12.55,12.55,0,0,0,42.2,57.64h0A12.54,12.54,0,0,0,54.74,45.11Z" fill="#222737"/></svg>