<svg height="64" preserveAspectRatio="xMinYMid" aria-hidden="true" focusable="false" viewBox="0 0 64 64" width="64" xmlns="http://www.w3.org/2000/svg"><path d="M9,47.9H55a1.21,1.21,0,0,1,1.21,1.21l-.08,2.4a1.21,1.21,0,0,1-1.21,1.21H9a1.21,1.21,0,0,1-1.21-1.21l.07-2.4A1.21,1.21,0,0,1,9,47.9Zm50.75,7.25H4.21A1.21,1.21,0,0,0,3,56.36v2.42A1.21,1.21,0,0,0,4.21,60H59.79A1.21,1.21,0,0,0,61,58.78V56.36A1.21,1.21,0,0,0,59.79,55.15Zm-43.5-9.68a1.21,1.21,0,0,0,1.21-1.21V27.34a1.19,1.19,0,0,0-1.21-1.19H11.46a1.19,1.19,0,0,0-1.21,1.19V44.26a1.21,1.21,0,0,0,1.21,1.21Zm12.09,0a1.21,1.21,0,0,0,1.2-1.21V27.34a1.19,1.19,0,0,0-1.2-1.19H23.54a1.19,1.19,0,0,0-1.21,1.19V44.26a1.21,1.21,0,0,0,1.21,1.21Zm12.08,0a1.21,1.21,0,0,0,1.21-1.21V27.34a1.19,1.19,0,0,0-1.21-1.19H35.62a1.19,1.19,0,0,0-1.2,1.19V44.26a1.21,1.21,0,0,0,1.2,1.21Zm12.08,0a1.21,1.21,0,0,0,1.21-1.21V27.34a1.19,1.19,0,0,0-1.21-1.19H47.71a1.19,1.19,0,0,0-1.21,1.19V44.26a1.21,1.21,0,0,0,1.21,1.21ZM6.62,23.74H57.38a1.21,1.21,0,0,0,1.2-1.21V17.69a1.2,1.2,0,0,0-1.2-1.2H6.62a1.2,1.2,0,0,0-1.2,1.2v4.84A1.21,1.21,0,0,0,6.62,23.74Zm0-9.69H57.4a1.21,1.21,0,0,0,.33-2.37L32.47,2.08a1.21,1.21,0,0,0-.95,0L6.15,11.73a1.21,1.21,0,0,0,.47,2.32Z" fill="#222737"/></svg>