<svg height="64" preserveAspectRatio="xMinYMid" aria-hidden="true" focusable="false" viewBox="0 0 64 64" width="64" xmlns="http://www.w3.org/2000/svg"><path d="M41.22,48.12a7.75,7.75,0,0,1,2.51,5.77,8,8,0,0,1-8,8A8.38,8.38,0,0,1,30.42,60a9.25,9.25,0,0,1-2.66-5v-1a8.87,8.87,0,0,1,1-4,8.14,8.14,0,0,1,2.66-2.81,7.83,7.83,0,0,1,4.44-1.33h.74A6.93,6.93,0,0,1,41.22,48.12Zm11-34.18-2.52,1.62L48,16.6l-3.55,2.22h-.3L41.83,44.41a11.26,11.26,0,0,0-4.89-1.63h-1a9.79,9.79,0,0,0-4.14.89A10.78,10.78,0,0,0,26,49.58a12.77,12.77,0,0,0-.74,4v1a11.67,11.67,0,0,0,1.92,5H19.64a5,5,0,0,1-4.88-4.14L8.25,18.82H6.77A2.7,2.7,0,0,1,4.11,16.6v-.44a2.81,2.81,0,0,1,2.81-2.81H42.86l1.33-.89,4.88-3.11c.15-.15.3-.29.45-.29a2.46,2.46,0,0,1,3.25,1A2.91,2.91,0,0,1,52.18,13.94ZM22.3,32.72a6.19,6.19,0,0,1-1-3.4,5,5,0,0,1,.15-1.48l1.33.74a.72.72,0,0,0,.88,0,.81.81,0,0,0,.45-.74V21.18c0-.29,0-.44-.15-.59s-.15-.15-.3-.15a.76.76,0,0,0-.88,0l-.3.15-2.22,1.33-.44.3-.45.3-1.77,1-.44.3a.8.8,0,0,0-.45.74.82.82,0,0,0,.45.74l.59.29.88.45A8,8,0,0,0,18,29.32v1a10,10,0,0,0,1.48,4.15Zm13.17.89L32.66,32a6.41,6.41,0,0,1-4,3.26V33.76a.81.81,0,0,0-.44-.74.94.94,0,0,0-.89,0l-.74.44-.44.3-.45.29-1.33.74-2.81,1.63c-.14.15-.29.15-.29.29a.55.55,0,0,0-.15.45c0,.15.15.29.15.44s.15.15.29.3l.3.15,2.22,1.18.44.29.44.3,1.48.89.74.44a.55.55,0,0,0,.45.15.54.54,0,0,0,.44-.15c.15-.15.44-.29.44-.44a.52.52,0,0,0,.15-.3V38.64A9.23,9.23,0,0,0,35.47,33.61Zm1.62-10.06A.8.8,0,0,0,36.8,23a.15.15,0,0,0-.15-.15.94.94,0,0,0-.89,0l-1.48.89a8.9,8.9,0,0,0-7.1-3.4h-.59v3.25h.59a6,6,0,0,1,4.29,1.78l-1.33.74a.83.83,0,0,0,0,1.47l.74.45.44.15.45.29,1.48.89,2.51,1.48a.55.55,0,0,0,.45.15h.14c.15,0,.15-.15.3-.15s.15-.15.29-.3a.53.53,0,0,0,.15-.44V23.55Zm5-12.84v-.15h.3c0-3.7-3-4.88-6.36-5.18H35.6C31.9,5.09,19,4.2,14.3,3.9a6.14,6.14,0,0,0-5,1.63,7,7,0,0,0-1.92,5.18H42.1Z" fill="#222737"/></svg>