<svg height="64" preserveAspectRatio="xMinYMid" aria-hidden="true" focusable="false" viewBox="0 0 64 64" width="64" xmlns="http://www.w3.org/2000/svg"><path d="M3.38,36.5a13.3,13.3,0,0,1,26-4,.57.57,0,0,1-.08.52,16.82,16.82,0,0,0-2.93,9.49,15.86,15.86,0,0,0,.27,2.92s0,.06,0,.1a.61.61,0,0,1-.61.61H24.4a.61.61,0,0,0-.61.55L22.72,59.57a1.21,1.21,0,0,1-1.21,1.11H11.84a1.22,1.22,0,0,1-1.21-1.11L9.57,46.72a.61.61,0,0,0-.6-.55H4.59A1.21,1.21,0,0,1,3.38,45ZM8.22,12.32a8.46,8.46,0,1,0,8.46-8.46A8.46,8.46,0,0,0,8.22,12.32ZM32.06,35.38A13.3,13.3,0,1,1,54.49,49.67a.6.6,0,0,0,.08.75l6.13,6.13A2.42,2.42,0,0,1,57.28,60l-6.12-6.13a.62.62,0,0,0-.76-.08A13.3,13.3,0,0,1,32.06,35.38Zm2.75,7.16a8.47,8.47,0,1,0,8.47-8.46A8.46,8.46,0,0,0,34.81,42.54ZM8.22,12.32a8.46,8.46,0,1,0,8.46-8.46A8.46,8.46,0,0,0,8.22,12.32ZM32.06,35.38A13.3,13.3,0,1,1,54.49,49.67a.6.6,0,0,0,.08.75l6.13,6.13A2.42,2.42,0,0,1,57.28,60l-6.12-6.13a.62.62,0,0,0-.76-.08A13.3,13.3,0,0,1,32.06,35.38Zm2.75,7.16a8.47,8.47,0,1,0,8.47-8.46A8.46,8.46,0,0,0,34.81,42.54Z" fill="#222737"/></svg>