<svg height="64" preserveAspectRatio="xMinYMid" aria-hidden="true" focusable="false" viewBox="0 0 64 64" width="64" xmlns="http://www.w3.org/2000/svg"><path d="M32,7.86c7.74,0,8.66,0,11.72.17A15.92,15.92,0,0,1,49.1,9a8.86,8.86,0,0,1,3.34,2.17,9.07,9.07,0,0,1,2.17,3.33,16.25,16.25,0,0,1,1,5.38c.14,3.06.16,4,.16,11.72s0,8.66-.16,11.72a16.32,16.32,0,0,1-1,5.39,9.61,9.61,0,0,1-5.51,5.5,15.92,15.92,0,0,1-5.38,1c-3.06.14-4,.17-11.72.17s-8.66,0-11.72-.17a15.92,15.92,0,0,1-5.38-1,9.61,9.61,0,0,1-5.51-5.5,16.32,16.32,0,0,1-1-5.39c-.14-3.06-.16-4-.16-11.72s0-8.66.16-11.72a16.25,16.25,0,0,1,1-5.38,9.07,9.07,0,0,1,2.17-3.33A8.86,8.86,0,0,1,14.9,9a15.92,15.92,0,0,1,5.38-1c3.06-.14,4-.17,11.72-.17m0-5.23c-7.88,0-8.86,0-12,.18a21.25,21.25,0,0,0-7,1.35A14.23,14.23,0,0,0,7.87,7.5a14.21,14.21,0,0,0-3.35,5.14,21.66,21.66,0,0,0-1.35,7C3,22.77,3,23.76,3,31.63s0,8.87.17,12a21.72,21.72,0,0,0,1.35,7A14.84,14.84,0,0,0,13,59.11a21.25,21.25,0,0,0,7,1.35c3.1.14,4.08.17,12,.17s8.86,0,12-.17a21.25,21.25,0,0,0,7-1.35,14.84,14.84,0,0,0,8.48-8.48,21.72,21.72,0,0,0,1.35-7c.14-3.09.17-4.08.17-12s0-8.86-.17-11.95a21.66,21.66,0,0,0-1.35-7A14.84,14.84,0,0,0,51,4.16a21.25,21.25,0,0,0-7-1.35c-3.1-.14-4.08-.18-12-.18Zm0,14.11A14.9,14.9,0,1,0,46.89,31.63,14.89,14.89,0,0,0,32,16.74ZM32,41.3a9.67,9.67,0,1,1,9.67-9.67A9.67,9.67,0,0,1,32,41.3ZM47.48,12.67A3.48,3.48,0,1,0,51,16.15,3.48,3.48,0,0,0,47.48,12.67Z" fill="#222737"/></svg>