<svg height="64" preserveAspectRatio="xMinYMid" aria-hidden="true" focusable="false" viewBox="0 0 64 64" width="64" xmlns="http://www.w3.org/2000/svg"><path d="M30.75,37.34a5.83,5.83,0,0,1,1.9,4.36,6,6,0,0,1-6,6,6.39,6.39,0,0,1-4-1.45,7.08,7.08,0,0,1-2-3.81V41.7a6.7,6.7,0,0,1,.78-3,6.15,6.15,0,0,1,2-2.13,5.94,5.94,0,0,1,3.36-1h.56A5.21,5.21,0,0,1,30.75,37.34Zm6.4-24.66,1.9-1.23a2.2,2.2,0,0,0,.45-2.91A1.87,1.87,0,0,0,37,7.76c-.11,0-.22.11-.33.22L33,10.33,32,11H4.78a2.13,2.13,0,0,0-2.13,2.13v.34a2,2,0,0,0,2,1.68H5.79l4.93,27.77a3.82,3.82,0,0,0,3.69,3.14h5.71a8.76,8.76,0,0,1-1.45-3.81v-.79a9.52,9.52,0,0,1,.56-3A8.13,8.13,0,0,1,23.6,34a7.43,7.43,0,0,1,3.13-.67h.79a8.51,8.51,0,0,1,3.69,1.23L33,15.15h.23l2.69-1.68ZM31.42,9V8.89h.23c0-2.8-2.24-3.69-4.82-3.92h-.34C23.69,4.75,14,4.08,10.37,3.85A4.68,4.68,0,0,0,6.56,5.08,5.33,5.33,0,0,0,5.1,9H31.42ZM44.37,37.74h7.52a9.3,9.3,0,0,1,3-3.3c1.47-1,1.36-1.71,1.36-1.71s-2.13.5-2.5-.62a1.46,1.46,0,0,0-2.51-.63A12.3,12.3,0,0,1,50,32.58s-2.51-2.35-3.76-2.35c-2.34,0-1.91,3.25-3.13,2.5s-2.5-.62-2.5,0,.81,1.29,1.66,2.18A8.79,8.79,0,0,1,44.37,37.74Zm15,13.15c0-5-1.25-6.89-3.75-8.76-2.11-1.58-3.14-1.88-3.76-3.14H44.37c-.62,1.26-1.65,1.56-3.75,3.14-2.51,1.87-3.76,3.75-3.76,8.76s-1.25,5.64-1.25,6.89,3.75,2.5,12.52,2.5S60.65,59,60.65,57.78,59.4,55.9,59.4,50.89Z" fill="#222737"/></svg>