<svg height="64" preserveAspectRatio="xMinYMid" aria-hidden="true" focusable="false" viewBox="0 0 64 64" width="64" xmlns="http://www.w3.org/2000/svg"><path d="M61,11.75a4.9,4.9,0,0,0-1.48-3.48,4.72,4.72,0,0,0-3.47-1.36c-9.28.28-18.6,2.1-23.32,5.58a1.19,1.19,0,0,1-1.43,0C26.6,9,17.25,7.19,8,6.91A4.73,4.73,0,0,0,4.49,8.27,4.85,4.85,0,0,0,3,11.75v35a4.83,4.83,0,0,0,4.72,4.83c14.44.42,21.88,4.4,21.88,6a2.42,2.42,0,1,0,4.84,0c0-1.61,7.43-5.59,21.83-6A4.83,4.83,0,0,0,61,46.79ZM9,46.83a1.21,1.21,0,0,1-1.15-1.21L7.82,13A1.21,1.21,0,0,1,9,11.79h.06c13.56.62,20.54,4.4,20.54,6V49.38a1.21,1.21,0,0,1-1.21,1.21,1.33,1.33,0,0,1-.48-.1A55.46,55.46,0,0,0,9,46.83Zm47.15-1.21A1.21,1.21,0,0,1,55,46.83a55.48,55.48,0,0,0-18.85,3.65,1.21,1.21,0,0,1-1.59-.62,1.15,1.15,0,0,1-.1-.48V17.75c0-1.55,7-5.34,20.47-5.95A1.21,1.21,0,0,1,56.19,13V13ZM26.54,23.5a1.81,1.81,0,0,1-2.28,1.18,55,55,0,0,0-11.72-2.3,1.81,1.81,0,0,1,.35-3.6,57.35,57.35,0,0,1,12.52,2.46A1.81,1.81,0,0,1,26.54,23.5Zm0,10.09a1.81,1.81,0,0,1-2.28,1.17,54.39,54.39,0,0,0-11.72-2.29,1.81,1.81,0,0,1,.35-3.61,58,58,0,0,1,12.52,2.46A1.82,1.82,0,0,1,26.54,33.59Zm0,10.08a1.81,1.81,0,0,1-2.28,1.18,53.81,53.81,0,0,0-11.72-2.3,1.81,1.81,0,0,1,.35-3.61,58,58,0,0,1,12.52,2.47A1.81,1.81,0,0,1,26.54,43.67Zm11-20.12a1.81,1.81,0,0,1,1.11-2.31,57.47,57.47,0,0,1,12.52-2.46,1.81,1.81,0,1,1,.35,3.6,55,55,0,0,0-11.72,2.3A1.81,1.81,0,0,1,37.55,23.55Zm0,10.08a1.82,1.82,0,0,1,1.11-2.31,58.06,58.06,0,0,1,12.52-2.46,1.81,1.81,0,0,1,.35,3.61,54.39,54.39,0,0,0-11.72,2.29A1.81,1.81,0,0,1,37.55,33.63Zm0,10.08a1.81,1.81,0,0,1,1.11-2.31,58.08,58.08,0,0,1,12.52-2.47,1.81,1.81,0,0,1,.35,3.61,53.81,53.81,0,0,0-11.72,2.3A1.81,1.81,0,0,1,37.55,43.71Z" fill="#222737"/></svg>