<svg height="64" preserveAspectRatio="xMinYMid" aria-hidden="true" focusable="false" viewBox="0 0 64 64" width="64" xmlns="http://www.w3.org/2000/svg"><path d="M32.2,31.44a.62.62,0,0,0,.57.41H48.18a.6.6,0,0,0,.6-.61v0A10.79,10.79,0,0,0,37.92,21.12a10.94,10.94,0,0,0-8.7,4.26.62.62,0,0,0,0,.75A16.66,16.66,0,0,1,32.2,31.44ZM24.63,39.1a7.22,7.22,0,0,1,3.68-6.28.61.61,0,0,0,.26-.75A13.29,13.29,0,0,0,2.88,36.83v8.46A1.21,1.21,0,0,0,4.09,46.5H8.46a.6.6,0,0,1,.6.55l1.07,12.84A1.21,1.21,0,0,0,11.34,61H21a1.21,1.21,0,0,0,1.21-1.11l1.07-12.84a.61.61,0,0,1,.6-.55H24a.6.6,0,0,0,.61-.6h0ZM7.71,11.46A8.46,8.46,0,1,0,16.17,3,8.46,8.46,0,0,0,7.71,11.46Zm23-.36a7.25,7.25,0,1,0,7.25-7.25A7.25,7.25,0,0,0,30.69,11.1ZM32.2,31.44a.62.62,0,0,0,.57.41H48.18a.6.6,0,0,0,.6-.61v0A10.79,10.79,0,0,0,37.92,21.12a10.94,10.94,0,0,0-8.7,4.26.62.62,0,0,0,0,.75A16.66,16.66,0,0,1,32.2,31.44ZM24.63,39.1a7.22,7.22,0,0,1,3.68-6.28.61.61,0,0,0,.26-.75A13.29,13.29,0,0,0,2.88,36.83v8.46A1.21,1.21,0,0,0,4.09,46.5H8.46a.6.6,0,0,1,.6.55l1.07,12.84A1.21,1.21,0,0,0,11.34,61H21a1.21,1.21,0,0,0,1.21-1.11l1.07-12.84a.61.61,0,0,1,.6-.55H24a.6.6,0,0,0,.61-.6h0ZM7.71,11.46A8.46,8.46,0,1,0,16.17,3,8.46,8.46,0,0,0,7.71,11.46ZM60.88,56.77A4.23,4.23,0,0,1,56.65,61H32.48a4.24,4.24,0,0,1-4.23-4.23V39.85a4.25,4.25,0,0,1,4.23-4.23H56.65a4.24,4.24,0,0,1,4.23,4.23Zm-3.63,0V49.52a.6.6,0,0,0-.6-.6H32.48a.6.6,0,0,0-.6.6v7.25a.6.6,0,0,0,.6.6H56.65A.6.6,0,0,0,57.25,56.77ZM32.48,39.25a.6.6,0,0,0-.6.6v2.42a.6.6,0,0,0,.6.6H56.65a.6.6,0,0,0,.6-.6V39.85a.6.6,0,0,0-.6-.6Zm21.15,13.9a1.81,1.81,0,0,0-1.81-1.82h-3a1.82,1.82,0,0,0,0,3.63h3A1.81,1.81,0,0,0,53.63,53.15Zm7.25,3.62A4.23,4.23,0,0,1,56.65,61H32.48a4.24,4.24,0,0,1-4.23-4.23V39.85a4.25,4.25,0,0,1,4.23-4.23H56.65a4.24,4.24,0,0,1,4.23,4.23Zm-3.63,0V49.52a.6.6,0,0,0-.6-.6H32.48a.6.6,0,0,0-.6.6v7.25a.6.6,0,0,0,.6.6H56.65A.6.6,0,0,0,57.25,56.77ZM32.48,39.25a.6.6,0,0,0-.6.6v2.42a.6.6,0,0,0,.6.6H56.65a.6.6,0,0,0,.6-.6V39.85a.6.6,0,0,0-.6-.6Zm21.15,13.9a1.81,1.81,0,0,0-1.81-1.82h-3a1.82,1.82,0,0,0,0,3.63h3A1.81,1.81,0,0,0,53.63,53.15Z" fill="#222737"/></svg>