<svg height="64" preserveAspectRatio="xMinYMid" aria-hidden="true" focusable="false" viewBox="0 0 64 64" width="64" xmlns="http://www.w3.org/2000/svg"><path d="M42.53,18.29a6.16,6.16,0,1,1,6.16,6.16A6.15,6.15,0,0,1,42.53,18.29Zm16.9,26.33a2.19,2.19,0,0,1-2.79-1.38L55.32,39.3a109.56,109.56,0,0,1-3,16.66c-.36,1.24-.52,1.47-1.13,1.48H46.06c-.61,0-.77-.24-1.13-1.48a108.4,108.4,0,0,1-3-16.42l-1.24,3.7A2.19,2.19,0,0,1,38,44.62a2.09,2.09,0,0,1-.89-.58h0L34.1,41.48A144.78,144.78,0,0,1,32.28,56.4c-.17.89-.37,1-.8,1H27.65c-.43,0-.63-.15-.8-1-.61-3.21-1.3-8-1.85-12l-.13.08-1,3a1.53,1.53,0,0,1-1.94,1,1.21,1.21,0,0,1-.2-.09l1.17,3.45H18.22c-.25,1.51-.5,2.93-.73,4.17s-.52,1.47-1.13,1.48H11.19c-.61,0-.89-.21-1.13-1.48s-.48-2.66-.73-4.17H4.66L9.9,36.3a.82.82,0,0,0-1.56-.53L5.8,43.27a2.2,2.2,0,0,1-4.16-1.44L5.87,29.22c.46-1.39,3.76-3.36,7.9-3.36s7.44,2,7.91,3.36l2.68,8c.92-1.2,2.43-2,5.15-2a6.46,6.46,0,0,1,4,1.37l3.7,3.2,3.55-10.6c.8-2.37,3.27-3.36,7.84-3.36,4.39,0,7.13.89,7.95,3.36l4.23,12.61A2.19,2.19,0,0,1,59.43,44.62ZM21,46.27l.89-2.66a1.77,1.77,0,0,1-.16-.34l-2.54-7.5a.82.82,0,0,0-1.56.53ZM13.78,24.45a6.16,6.16,0,1,0-6.15-6.16A6.15,6.15,0,0,0,13.78,24.45Zm15.77,10a4.3,4.3,0,1,0-4.3-4.3A4.29,4.29,0,0,0,29.55,34.4Z" fill="#222737"/></svg>