<svg height="64" preserveAspectRatio="xMinYMid" aria-hidden="true" focusable="false" viewBox="0 0 64 64" width="64" xmlns="http://www.w3.org/2000/svg"><path d="M61,32a2.42,2.42,0,0,1-2.42,2.42h-3a.6.6,0,0,0-.6.6V58.58A2.42,2.42,0,0,1,52.54,61H38.65a.6.6,0,0,1-.61-.6V48.92a6,6,0,1,0-12.08,0V60.4a.6.6,0,0,1-.61.6H11.46A2.42,2.42,0,0,1,9,58.58V35a.6.6,0,0,0-.6-.6h-3a2.42,2.42,0,0,1-1.71-4.13L30.29,3.71a2.41,2.41,0,0,1,3.42,0l5.72,5.72a.61.61,0,0,0,1-.43V7.83a2.41,2.41,0,0,1,2.42-2.41h7.25a2.41,2.41,0,0,1,2.41,2.41V22.29a.6.6,0,0,0,.18.43l7.57,7.57A2.39,2.39,0,0,1,61,32Z" fill="#222737"/></svg>