<svg height="64" preserveAspectRatio="xMinYMid" aria-hidden="true" focusable="false" viewBox="0 0 64 64" width="64" xmlns="http://www.w3.org/2000/svg"><path d="M3.65,22.37H16.1V59.71H3.65ZM10.06,4.29C5.79,4.29,3,7,3,10.69S5.71,17,9.89,17H10C14.32,17,17,14.26,17,10.66S14.32,4.29,10.06,4.29ZM46.55,21.56c-6.62,0-9.56,3.64-11.34,6.19V22.37H23.1c.17,3.55,0,37.34,0,37.34H35.21V39a8.41,8.41,0,0,1,.56-3,7,7,0,0,1,6.54-4.56c4.51,0,6.24,3.44,6.24,8.48V59.71H61V38.43C61,26.91,54.75,21.56,46.55,21.56Z" fill="#222737"/></svg>