<svg height="64" preserveAspectRatio="xMinYMid" aria-hidden="true" focusable="false" viewBox="0 0 64 64" width="64" xmlns="http://www.w3.org/2000/svg"><path d="M61.31,57.37a1.21,1.21,0,0,1-1.21,1.21H48.64A.6.6,0,0,1,48,58V53.7a12.61,12.61,0,0,0-5.94-11.36h0c-1.13-.68-2.26-1.3-3.38-1.88a.6.6,0,0,1,.06-1.1,21.58,21.58,0,0,0,4.67-2.55,4.82,4.82,0,0,0,2-3.59A4.93,4.93,0,0,0,44,29.36c-1.14-1.13-1.6-1.6-1.93-6.47a20.32,20.32,0,0,0-4.55-12.08.63.63,0,0,1-.14-.44.56.56,0,0,1,.22-.41A12.28,12.28,0,0,1,45,7.85c3.64,0,8.19,1.18,9,4.53a15.09,15.09,0,0,1-.81,7.67.6.6,0,0,0,.14.6,4.1,4.1,0,0,1,1,2.9,3.86,3.86,0,0,1-1.3,3.16.64.64,0,0,0-.25.44,8.37,8.37,0,0,1-3.31,6.64.57.57,0,0,0-.26.49v3.87a.57.57,0,0,0,.32.53l7.17,3.7a8.43,8.43,0,0,1,4.59,7.51ZM43.79,58.58a.6.6,0,0,0,.6-.6V53.7h0a9.06,9.06,0,0,0-4.18-8.25A52.19,52.19,0,0,0,30.75,41C29.9,40.66,29,39.89,29,39h0V37.75a.6.6,0,0,1,.6-.61h0a18.05,18.05,0,0,0,11.75-3.3,1.25,1.25,0,0,0,.46-.93,1.3,1.3,0,0,0-.39-1,7.26,7.26,0,0,1-1.93-2.66,20.59,20.59,0,0,1-1.05-6.13,15,15,0,0,0-7.41-13,15.14,15.14,0,0,0-14.35,0,15,15,0,0,0-7.4,13,20.73,20.73,0,0,1-1.06,6.14,7.84,7.84,0,0,1-.41.82A9.13,9.13,0,0,1,6.22,32a1.2,1.2,0,0,0,0,1.71l.15.14a17.73,17.73,0,0,0,11.29,3.3h.45a.62.62,0,0,1,.62.6h0V39h0c0,.86-.91,1.63-1.76,1.93a52.19,52.19,0,0,0-9.46,4.49,9.09,9.09,0,0,0-4.2,8.24h0V58a.6.6,0,0,0,.61.6Z" fill="#222737"/></svg>