<svg height="64" preserveAspectRatio="xMinYMid" aria-hidden="true" focusable="false" viewBox="0 0 64 64" width="64" xmlns="http://www.w3.org/2000/svg"><path d="M16.17,13.88H24a3,3,0,0,1,3,3V28.38a3,3,0,0,1-3,3H16.17a3,3,0,0,1-3-3V16.9A3,3,0,0,1,16.17,13.88Zm44.7,37.45a8.45,8.45,0,0,1-8.45,8.46H11.33a8.46,8.46,0,0,1-8.46-8.46V9A4.84,4.84,0,0,1,7.71,4.21H44A4.83,4.83,0,0,1,48.79,9V19.92h4.83a7.24,7.24,0,0,1,7.25,7.25ZM43.05,55a1.55,1.55,0,0,0,.31,0,1.21,1.21,0,0,0,.86-1.47A8.85,8.85,0,0,1,44,51.33V10.25A1.21,1.21,0,0,0,42.75,9H8.92a1.21,1.21,0,0,0-1.21,1.21V51.33A3.62,3.62,0,0,0,11.33,55ZM56,27.17a2.42,2.42,0,0,0-2.42-2.42H50A1.21,1.21,0,0,0,48.79,26V51.33a3.63,3.63,0,1,0,7.25,0ZM33.68,17.61a1.82,1.82,0,0,0-1.81,1.82v1.21h0a1.82,1.82,0,0,0,1.82,1.81h4.83a1.82,1.82,0,0,0,1.82-1.82v-1.2a1.83,1.83,0,0,0-1.82-1.82H33.68Zm0,9.67a1.82,1.82,0,0,0-1.81,1.82v1.21a1.82,1.82,0,0,0,1.82,1.8h4.83a1.82,1.82,0,0,0,1.82-1.81V29.09a1.82,1.82,0,0,0-1.82-1.81H33.68ZM14.35,37a1.81,1.81,0,0,0-1.81,1.82V40a1.82,1.82,0,0,0,1.82,1.8H38.52A1.82,1.82,0,0,0,40.34,40V38.76A1.82,1.82,0,0,0,38.52,37H14.35Zm0,9.66a1.82,1.82,0,0,0-1.81,1.82v1.21a1.81,1.81,0,0,0,1.81,1.81H32.48a1.81,1.81,0,0,0,1.81-1.82v-1.2a1.82,1.82,0,0,0-1.81-1.82Z" fill="#222737"/></svg>