<svg height="64" preserveAspectRatio="xMinYMid" aria-hidden="true" focusable="false" viewBox="0 0 64 64" width="64" xmlns="http://www.w3.org/2000/svg"><path d="M53.41,2.43H29.25A7.24,7.24,0,0,0,22,9.68v7.25H19.58A16.91,16.91,0,0,0,2.67,33.84v13.4A9.25,9.25,0,0,0,7.5,55.76V58a2.42,2.42,0,1,0,4.83,0V54.38a2.41,2.41,0,0,0-1.24-2.11c-2.82-1.54-3.59-2.61-3.59-5V33.84A12.08,12.08,0,0,1,19.58,21.76h1.81a.6.6,0,0,1,.61.6v6a.61.61,0,0,1-.61.61H17.16a2.42,2.42,0,0,0,0,4.83H30.45a2.42,2.42,0,1,1,0,4.83H23.12a2.42,2.42,0,0,0-2.33,2.49,5.27,5.27,0,0,1-2.61,4.44,5.2,5.2,0,0,1-.72.42,2.42,2.42,0,0,0,.91,4.66,2.38,2.38,0,0,0,.91-.18A10.15,10.15,0,0,0,22,48.79v4.38a7.24,7.24,0,0,0,7.25,7.25H53.41a7.25,7.25,0,0,0,7.25-7.25V9.68A7.25,7.25,0,0,0,53.41,2.43Zm2.42,45.91a1.21,1.21,0,0,1-1.21,1.21H28a1.21,1.21,0,0,1-1.21-1.21V43.51h3.62a7.25,7.25,0,1,0,0-14.5H26.83V10.89A1.21,1.21,0,0,1,28,9.68H54.62a1.21,1.21,0,0,1,1.21,1.21Z" fill="#222737"/></svg>