<svg height="64" preserveAspectRatio="xMinYMid" aria-hidden="true" focusable="false" viewBox="0 0 64 64" width="64" xmlns="http://www.w3.org/2000/svg"><path d="M14.06,25.07a1.82,1.82,0,0,1,1.81-1.82H31.58a1.82,1.82,0,0,1,0,3.63H15.87A1.81,1.81,0,0,1,14.06,25.07Zm1.81,10.27h7.25a1.82,1.82,0,0,0,0-3.63H15.87a1.82,1.82,0,0,0,0,3.63Zm0,8.46h6.65a1.82,1.82,0,0,0,0-3.63H15.87a1.82,1.82,0,0,0,0,3.63Zm0-27.19V9.36a.6.6,0,0,1,.6-.6H20.7v-.4a6,6,0,0,1,6-6.25,6.07,6.07,0,0,1,6.09,6v.61H37a.6.6,0,0,1,.61.6v7.25a.6.6,0,0,1-.61.6H16.47A.6.6,0,0,1,15.87,16.61ZM26.74,5.74h0a1.81,1.81,0,1,0,1.82,1.81A1.81,1.81,0,0,0,26.74,5.74Zm-1.08,52L26,56a.6.6,0,0,0-.12-.5.62.62,0,0,0-.47-.22H9.83a1.21,1.21,0,0,1-1.21-1.21V14.8a1.21,1.21,0,0,1,1.21-1.21h1.81a.6.6,0,0,0,.6-.6V9.36a.6.6,0,0,0-.6-.6h-3a4.83,4.83,0,0,0-4.83,4.83V55.28a4.83,4.83,0,0,0,4.83,4.83H25a.6.6,0,0,0,.61-.6v-.07A5.71,5.71,0,0,1,25.66,57.69Zm23.76-32a.62.62,0,0,0,.28-.52V13.59a4.83,4.83,0,0,0-4.83-4.83h-3a.6.6,0,0,0-.61.6V13a.6.6,0,0,0,.61.6h1.81a1.21,1.21,0,0,1,1.21,1.21V28.36a.61.61,0,0,0,.6.61.62.62,0,0,0,.43-.18l1.66-1.66A10.4,10.4,0,0,1,49.42,25.67ZM34.57,50.55a1.21,1.21,0,0,0-1.71,0,1.24,1.24,0,0,0-.3.52l-2.14,7.5a1.19,1.19,0,0,0,.83,1.49,1.23,1.23,0,0,0,.66,0l7.49-2.14a1.2,1.2,0,0,0,.83-1.49,1.15,1.15,0,0,0-.31-.53ZM49.15,34.08a1.21,1.21,0,0,0-1.71,0L35.33,46.18a1.21,1.21,0,0,0,0,1.71h0l7.25,7.25a1.2,1.2,0,0,0,1.71,0L56.4,43a1.21,1.21,0,0,0,0-1.71Zm1.71-3.42a1.21,1.21,0,0,0,0,1.71l7.25,7.25a1.09,1.09,0,0,0,.79.3,1.52,1.52,0,0,0,1-.41,6.34,6.34,0,0,0,0-9h0A6.42,6.42,0,0,0,50.86,30.66Z" fill="#222737"/></svg>