<svg height="64" preserveAspectRatio="xMinYMid" aria-hidden="true" focusable="false" viewBox="0 0 64 64" width="64" xmlns="http://www.w3.org/2000/svg"><path d="M21.54,40.79a17.48,17.48,0,0,1,9.67,3.5,1.27,1.27,0,0,0,.75.25h8.31a2.5,2.5,0,0,1,0,5h-10a1.25,1.25,0,1,0,0,2.5h10a5,5,0,0,0,4.46-2.78,1.3,1.3,0,0,1,.73-.63L54,45.8A6.19,6.19,0,0,1,60,47a1.37,1.37,0,0,1,.34.42,1.28,1.28,0,0,1-.55,1.73c-28.3,14.32-19.61,14.17-45.23,5.59a1.28,1.28,0,0,0-1.06.12L5,60.19a.63.63,0,0,1-.33.09A.61.61,0,0,1,4,59.66V46.18a.64.64,0,0,1,.34-.56l7.54-3.77a9.93,9.93,0,0,1,4.47-1.06Zm33.89-32A11.16,11.16,0,0,0,37.56,5.92l-1,1a.79.79,0,0,1-1.12,0l-.95-1a11.15,11.15,0,0,0-15.8,15.75L34.91,38.55a1.58,1.58,0,0,0,2.23.05s0,0,0-.05L53.35,21.69A11.16,11.16,0,0,0,55.43,8.81Z" fill="#222737"/></svg>