<svg height="64" preserveAspectRatio="xMinYMid" aria-hidden="true" focusable="false" viewBox="0 0 64 64" width="64" xmlns="http://www.w3.org/2000/svg"><path d="M26,42.89a1.21,1.21,0,0,1-1.21,1.21H4.21a1.41,1.41,0,0,1-.35-.05,1.2,1.2,0,0,1-.81-1.5A18.23,18.23,0,0,1,20.41,29.6a17.35,17.35,0,0,1,4.86.69,1.21,1.21,0,0,1,.85,1.41A7.77,7.77,0,0,0,26,33.22ZM8.44,15.7A11.48,11.48,0,1,0,19.92,4.22,11.48,11.48,0,0,0,8.44,15.7ZM61,50.14A4.83,4.83,0,0,1,56.17,55h-6.8a.59.59,0,0,0-.38.14L40.76,61.7a2.42,2.42,0,0,1-3.93-1.89V55.58a.61.61,0,0,0-.6-.61H34.42a4.84,4.84,0,0,1-4.84-4.83V33.22a4.84,4.84,0,0,1,4.84-4.83H56.17A4.83,4.83,0,0,1,61,33.22Zm-12.69,0h7.26a.6.6,0,0,0,.6-.6V33.83a.61.61,0,0,0-.61-.61H35a.61.61,0,0,0-.6.61V49.54a.6.6,0,0,0,.6.6h4.23a2.42,2.42,0,0,1,2.42,2.42v1a.54.54,0,0,0,.13.39.61.61,0,0,0,.85.1l4.15-3.34A2.44,2.44,0,0,1,48.31,50.14ZM37.44,38.66a1.81,1.81,0,0,0,1.81,1.81H51.33a1.81,1.81,0,1,0,0-3.62H39.25A1.81,1.81,0,0,0,37.44,38.66Zm10.87,6a1.81,1.81,0,0,0-1.81-1.81H39.25a1.82,1.82,0,0,0,0,3.63H46.5A1.81,1.81,0,0,0,48.31,44.7Z" fill="#222737"/></svg>