<svg height="64" preserveAspectRatio="xMinYMid" aria-hidden="true" focusable="false" viewBox="0 0 64 64" width="64" xmlns="http://www.w3.org/2000/svg"><path d="M46.8,29.71a11.48,11.48,0,0,1-8.3,2.94,14.61,14.61,0,0,1-7.61-2,11.46,11.46,0,0,1-6.81,2c-3.28,0-5.63-.92-7.53-3a18.45,18.45,0,0,1-5.94,1.06,8.69,8.69,0,0,1-1.92-.21V56.69a1,1,0,0,0,1,1H53.88a1,1,0,0,0,1-1V30.29a10,10,0,0,1-2.89.44A13.53,13.53,0,0,1,46.8,29.71ZM31.77,48H14.46V36.5H31.77Zm17.31,7.69H39.46V36.5h9.62ZM60.61,19.19v1a9,9,0,0,1-5.76,8.09v0a8.11,8.11,0,0,1-2.89.55,11.29,11.29,0,0,1-4.81-1.07V19.19H60.61ZM38.5,30.73a12.43,12.43,0,0,1-6.76-1.81.45.45,0,0,0,0-.11V19.19H45.23v8.65a.91.91,0,0,0,.18.53A9.76,9.76,0,0,1,38.5,30.73ZM29.85,19.19v9.62a.78.78,0,0,0,0,.21,9.46,9.46,0,0,1-5.81,1.71,7.6,7.6,0,0,1-5.77-2V19.19ZM10.61,28.81c-4.31,0-7.69-3.81-7.69-8.66v-1H16.38v8.47A16.21,16.21,0,0,1,10.61,28.81ZM45.23,47.08a1,1,0,1,1,1,1A1,1,0,0,1,45.23,47.08ZM3.88,17.27H3.34l1.15-1.92L8.83,8.12a1,1,0,0,1,.82-.47H19.86l-3.21,9.62H3.88Zm14.8,0,3.2-9.62h8v9.62Zm28.2,0-3.2-9.62h10.2a1,1,0,0,1,.83.47L59,15.35l1.16,1.92H46.88Zm-2,0H31.77V7.65h9.88Z" fill="#222737"/></svg>