<svg height="64" preserveAspectRatio="xMinYMid" aria-hidden="true" focusable="false" viewBox="0 0 64 64" width="64" xmlns="http://www.w3.org/2000/svg"><path d="M60.46,55.19h0a4.74,4.74,0,0,1-4.74,4.73H7.19a4.73,4.73,0,0,1-4.73-4.73v-45A4.74,4.74,0,0,1,7.19,5.47h.59a2.37,2.37,0,0,1,0,4.74.58.58,0,0,0-.59.59V54A1.21,1.21,0,0,0,8.4,55.19H54.51A1.21,1.21,0,0,0,55.72,54V11.41a1.21,1.21,0,0,0-1.21-1.2H30.88a.6.6,0,0,0-.6.6V28.55a1.18,1.18,0,0,1-.81,1.12,1.21,1.21,0,0,1-1.33-.41l-5.68-7.57a.46.46,0,0,0-.12-.12.58.58,0,0,0-.83.12l-5.68,7.57a1.17,1.17,0,0,1-.95.48,1.2,1.2,0,0,1-1.18-1.19V6.06a5.9,5.9,0,0,1,.06-.59,3.57,3.57,0,0,1,3.49-3h9.47a3.53,3.53,0,0,1,3.49,3H55.72a4.74,4.74,0,0,1,4.74,4.74ZM37.38,20.27h9.47A2.37,2.37,0,0,0,47,15.53H37.38a2.37,2.37,0,0,0-.15,4.74Zm0,9.47h9.47A2.37,2.37,0,0,0,47,25H37.38a2.37,2.37,0,0,0-.15,4.74Zm9.47,4.73H17.25a2.37,2.37,0,0,0,0,4.74h29.6a2.37,2.37,0,0,0,0-4.74ZM44.48,46.31a2.37,2.37,0,0,0-2.37-2.37H17.25a2.37,2.37,0,0,0,0,4.73H42.11a2.36,2.36,0,0,0,2.37-2.36Z" fill="#222737"/></svg>