<svg height="64" preserveAspectRatio="xMinYMid" aria-hidden="true" focusable="false" viewBox="0 0 64 64" width="64" xmlns="http://www.w3.org/2000/svg"><path d="M51.34,13l-2.2-6.63H51A1.34,1.34,0,1,0,51,3.7H47.29A1.34,1.34,0,0,0,46,5.46l1.31,4-.95,1.21H34.93L33.47,8.22h.33a1.34,1.34,0,1,0,0-2.68H29.61a1.34,1.34,0,1,0,0,2.68h.72L37.4,20H35.92a8.31,8.31,0,1,0,0,2.68h3.85a1.34,1.34,0,0,0,1.05-.51l7.53-9.62.44,1.35A8.33,8.33,0,1,0,51.34,13ZM31.26,20a3.86,3.86,0,1,0,0,2.69h1.94a5.63,5.63,0,1,1,0-2.69Zm8.66-1-3.37-5.59h7.73Zm12.7,8a5.65,5.65,0,0,1-3-10.46l.6,1.79a3.87,3.87,0,1,0,2.55-.82l-.59-1.8a5.65,5.65,0,1,1,.42,11.29ZM40.09,38.31a1.93,1.93,0,0,0-.52.08l-2,.53-2-4.94a4.44,4.44,0,0,0-3.79-2.54h-19A4.42,4.42,0,0,0,9,34L7,38.92l-1.93-.53a1.81,1.81,0,0,0-.51-.08A1.59,1.59,0,0,0,3,40v1.15A2.06,2.06,0,0,0,5,43.2h.22l-.32.8a15.25,15.25,0,0,0-1,4.91v9.82A2.05,2.05,0,0,0,6,60.79H8.68a2.06,2.06,0,0,0,2.06-2.06V56.28H33.87v2.45a2.05,2.05,0,0,0,2.05,2.06h2.69a2.06,2.06,0,0,0,2.06-2.06V48.91a15.25,15.25,0,0,0-1-4.91l-.33-.8h.25a2.06,2.06,0,0,0,2.06-2.06V40A1.59,1.59,0,0,0,40.09,38.31Zm-30.85,4,2.31-6.26a2.68,2.68,0,0,1,2.27-1.53h17a2.65,2.65,0,0,1,2.27,1.53l2,6.26a1,1,0,0,1-1,1.53H10.26A1,1,0,0,1,9.24,42.33Zm6.08,9.21a.82.82,0,0,1-.82.82H8.67a.83.83,0,0,1-.83-.82v-2.8a.83.83,0,0,1,.83-.82H14.5a.82.82,0,0,1,.82.82Zm21.39,0a.82.82,0,0,1-.82.82H30.05a.82.82,0,0,1-.82-.82v-2.8a.82.82,0,0,1,.82-.82h5.84a.82.82,0,0,1,.82.82Z" fill="#222737"/></svg>