<svg height="64" preserveAspectRatio="xMinYMid" aria-hidden="true" focusable="false" viewBox="0 0 64 64" width="64" xmlns="http://www.w3.org/2000/svg"><path d="M42.39,52.32a18.29,18.29,0,0,1,1.92,7.47A1.21,1.21,0,0,1,43.1,61H26.59a.69.69,0,0,1-.24,0,.62.62,0,0,1-.31-.8l3.85-8.59a.61.61,0,0,0-.82-.79,11.31,11.31,0,0,1-10.17-.09.61.61,0,0,0-.69.1.6.6,0,0,0-.14.67l3.6,8.71a.59.59,0,0,1,0,.23.61.61,0,0,1-.61.61H4.44a1.21,1.21,0,0,1-1.21-1.21,18.28,18.28,0,0,1,1.91-7.47c1.45-2.91,5.24-4.74,12.17-7.3a.64.64,0,0,0,.42-.54V42.83A12.69,12.69,0,0,1,10.45,41l-.14-.1a1.21,1.21,0,0,1-.17-1.7c1-1.2,1.72-2.8,2-7.39.59-8.78,6.51-11.87,11.6-11.87s11,3.09,11.61,11.87c.31,4.61,1,6.18,2,7.39l.1.14A1.21,1.21,0,0,1,37.09,41a12.59,12.59,0,0,1-7.28,1.85v1.64a.6.6,0,0,0,.42.54h0C37.16,47.58,40.94,49.4,42.39,52.32Zm-9.88-36a2.42,2.42,0,1,0,2.41-2.41A2.41,2.41,0,0,0,32.51,16.29Zm7.85,0a2.42,2.42,0,1,0,2.42-2.41A2.42,2.42,0,0,0,40.36,16.29Zm7.85,0a2.42,2.42,0,1,0,2.42-2.41A2.42,2.42,0,0,0,48.21,16.29ZM47.93,3H33.43A13.34,13.34,0,0,0,20.48,13.42a2.41,2.41,0,0,0,4.69,1.13.3.3,0,0,0,0-.1,8.48,8.48,0,0,1,8.24-6.61h14.5a8.46,8.46,0,1,1,0,16.91,2.44,2.44,0,0,0-1.51.53L44.3,27a2.42,2.42,0,0,0-2.41-2.22H39.48a2.42,2.42,0,1,0,0,4.83V32a2.41,2.41,0,0,0,3.92,1.89l5.42-4.34A13.29,13.29,0,0,0,47.93,3Z" fill="#222737"/></svg>