<svg height="64" preserveAspectRatio="xMinYMid" aria-hidden="true" focusable="false" viewBox="0 0 64 64" width="64" xmlns="http://www.w3.org/2000/svg"><path d="M21.7,40.41v7.16h0a1.19,1.19,0,0,1-1.19,1.19H18.38a.62.62,0,0,0-.6.55l-.86,10.3a1.19,1.19,0,0,1-1.18,1.09H8.58a1.2,1.2,0,0,1-1.19-1.09l-.86-10.3a.61.61,0,0,0-.6-.55H3.8a1.19,1.19,0,0,1-1.19-1.19V40.41a9.59,9.59,0,0,1,6.47-9A.56.56,0,0,0,9.44,31a.6.6,0,0,0-.32-.79,7.76,7.76,0,1,1,6.07,0,.63.63,0,0,0-.37.58.6.6,0,0,0,.41.54A9.57,9.57,0,0,1,21.7,40.41Zm32.44-9a.61.61,0,0,1-.38-.76.58.58,0,0,1,.34-.36,7.75,7.75,0,1,0-6.07,0,.6.6,0,0,1,.32.79.59.59,0,0,1-.36.33,9.57,9.57,0,0,0-6.47,9v7.16a1.19,1.19,0,0,0,1.19,1.19h2.13a.62.62,0,0,1,.6.55l.86,10.3a1.19,1.19,0,0,0,1.18,1.09h7.16a1.2,1.2,0,0,0,1.19-1.09l.86-10.3a.61.61,0,0,1,.6-.55h2.13a1.19,1.19,0,0,0,1.19-1.19V40.41A9.58,9.58,0,0,0,54.14,31.37Zm-19.69-15a.6.6,0,0,1-.37-.77.63.63,0,0,1,.31-.35,6.57,6.57,0,1,0-5.55,0,.6.6,0,0,1,.29.8.63.63,0,0,1-.34.32,8.34,8.34,0,0,0-5.53,7.86v3.58A1.19,1.19,0,0,0,24.45,29h2a.6.6,0,0,1,.59.53l1,9.15a1.18,1.18,0,0,0,1.18,1.07H34a1.18,1.18,0,0,0,1.18-1.07l1-9.15a.6.6,0,0,1,.59-.53h2A1.19,1.19,0,0,0,40,27.76h0V24.17A8.36,8.36,0,0,0,34.45,16.32ZM54.14,31.37a.61.61,0,0,1-.38-.76.58.58,0,0,1,.34-.36,7.75,7.75,0,1,0-6.07,0,.6.6,0,0,1,.32.79.59.59,0,0,1-.36.33,9.57,9.57,0,0,0-6.47,9v7.16a1.19,1.19,0,0,0,1.19,1.19h2.13a.62.62,0,0,1,.6.55l.86,10.3a1.19,1.19,0,0,0,1.18,1.09h7.16a1.2,1.2,0,0,0,1.19-1.09l.86-10.3a.61.61,0,0,1,.6-.55h2.13a1.19,1.19,0,0,0,1.19-1.19V40.41A9.58,9.58,0,0,0,54.14,31.37Zm-19.69-15a.6.6,0,0,1-.37-.77.63.63,0,0,1,.31-.35,6.57,6.57,0,1,0-5.55,0,.6.6,0,0,1,.29.8.63.63,0,0,1-.34.32,8.34,8.34,0,0,0-5.53,7.86v3.58A1.19,1.19,0,0,0,24.45,29h2a.6.6,0,0,1,.59.53l1,9.15a1.18,1.18,0,0,0,1.18,1.07H34a1.18,1.18,0,0,0,1.18-1.07l1-9.15a.6.6,0,0,1,.59-.53h2A1.19,1.19,0,0,0,40,27.76h0V24.17A8.36,8.36,0,0,0,34.45,16.32Z" fill="#222737"/></svg>