<svg height="64" preserveAspectRatio="xMinYMid" aria-hidden="true" focusable="false" viewBox="0 0 64 64" width="64" xmlns="http://www.w3.org/2000/svg"><path d="M22.12,43.05a4.86,4.86,0,0,1,.12,1.19A3.19,3.19,0,0,1,22,45.36a2.31,2.31,0,0,1-.63.9,2.48,2.48,0,0,1-1.13.53,2.3,2.3,0,0,1-2.21-.54,3.12,3.12,0,0,1-.67-.92A4.74,4.74,0,0,1,17,44.2,5.23,5.23,0,0,1,16.85,43a3,3,0,0,1,.21-1.14,2.17,2.17,0,0,1,.63-.9,2.84,2.84,0,0,1,2.39-.54,2.37,2.37,0,0,1,1,.55,3.31,3.31,0,0,1,.67,1A5.07,5.07,0,0,1,22.12,43.05Zm8.33-4.45a1.18,1.18,0,0,0-.5-.34,1.82,1.82,0,0,0-.63-.08,4.24,4.24,0,0,0-.7.11L27,38.65l.63,2.84,1.62-.37a4.87,4.87,0,0,0,.68-.2,1.67,1.67,0,0,0,.53-.34,1.1,1.1,0,0,0,.31-.52,1.51,1.51,0,0,0,0-.76A1.47,1.47,0,0,0,30.45,38.6ZM57.09,50.09,15.17,59.81a4.89,4.89,0,0,1-5.85-3.66L4.76,36.47a4.88,4.88,0,0,1,3.65-5.85l31-7.19L29,13.63a6.48,6.48,0,0,1-1.72.67,6.39,6.39,0,0,1-1.84.15L21.43,25l-4.59,1.06,4.91-13A6.52,6.52,0,0,1,24.3,1.58a6.54,6.54,0,0,1,7.84,4.88,6.46,6.46,0,0,1-.48,4.31L44,22.37l6.34-1.47a4.89,4.89,0,0,1,5.85,3.66l4.56,19.67A4.91,4.91,0,0,1,57.09,50.09ZM28.63,7.28a2.92,2.92,0,1,0-2.19,3.49A2.92,2.92,0,0,0,28.63,7.28ZM24.2,42.58a6.08,6.08,0,0,0-.75-1.89,5,5,0,0,0-1.27-1.38,4.41,4.41,0,0,0-1.7-.74,4.94,4.94,0,0,0-2.05.06,4.83,4.83,0,0,0-1.87.82,4.29,4.29,0,0,0-1.23,1.39,5,5,0,0,0-.56,1.79,6.21,6.21,0,0,0,.13,2,5.54,5.54,0,0,0,.75,1.85,4.69,4.69,0,0,0,1.26,1.36,4.3,4.3,0,0,0,1.7.71,5.06,5.06,0,0,0,2-.06,4.84,4.84,0,0,0,1.87-.82,4.3,4.3,0,0,0,1.23-1.36,4.74,4.74,0,0,0,.57-1.76A5.74,5.74,0,0,0,24.2,42.58Zm8.58-3.73a3.7,3.7,0,0,0-.43-1.09,2.64,2.64,0,0,0-.79-.84,2.79,2.79,0,0,0-1.17-.46,4.09,4.09,0,0,0-1.57.08l-4.26,1L26.67,47l2.08-.46L28,43.1l2.19-.49A4,4,0,0,0,31.63,42a3,3,0,0,0,.87-.91,2.84,2.84,0,0,0,.35-1.1A3.74,3.74,0,0,0,32.78,38.85Zm9.92,4.53-.39-1.75L37.2,42.77l-.51-2.32,4.58-1-.36-1.61-4.59,1-.45-2,5-1.11-.39-1.76L33.4,35.52,35.51,45Zm9.4-2.1L50,31.81,48,32.25l1.42,6.35h0l-5.37-5.47L42,33.6l2.12,9.46,1.94-.43-1.41-6.34h0L50,41.74Z" fill="#222737"/></svg>