<svg height="64" preserveAspectRatio="xMinYMid" aria-hidden="true" focusable="false" viewBox="0 0 64 64" width="64" xmlns="http://www.w3.org/2000/svg"><path d="M61.09,27.74A16.87,16.87,0,0,1,45.52,44.55V40.72a8.42,8.42,0,0,1,5.58-7.85,1.29,1.29,0,1,0-.77-2.47,10.26,10.26,0,0,0-4.81,3.31V22.55a1.3,1.3,0,1,0-2.59,0v5.92a7.75,7.75,0,0,0-5.19-2,1.3,1.3,0,1,0,0,2.59,5.2,5.2,0,0,1,5.19,5.19V44.55A16.86,16.86,0,1,1,61.09,27.74ZM42.93,61.48a1.3,1.3,0,1,0,2.59,0V44.61H42.93ZM17,32.93v4.89a10.22,10.22,0,0,1,8.55-3.54l-2-6.54H22.16A5.2,5.2,0,0,0,17,32.93Zm9.33,3.91H24.76A7.8,7.8,0,0,0,17,44.61v2.6h7.79c2.15,0,3.5-1.75,3.5-3.9Zm-11.92,1V32.93a5.2,5.2,0,0,0-5.19-5.19l-1.38,0-2,6.52A10.21,10.21,0,0,1,14.38,37.82Zm0-10.65V20A1.3,1.3,0,1,1,17,20v7.21a7.63,7.63,0,0,1,5.8-2L15.68,1.79l-7.1,23.4A7.62,7.62,0,0,1,14.38,27.17Zm0,17.44a7.79,7.79,0,0,0-7.79-7.78H5.05l-2,6.47c0,2.15,1.35,3.9,3.5,3.9h7.79Zm0,16.87a1.3,1.3,0,1,0,2.59,0V47.21H14.38Z" fill="#222737"/></svg>