<svg height="64" preserveAspectRatio="xMinYMid" aria-hidden="true" focusable="false" viewBox="0 0 64 64" width="64" xmlns="http://www.w3.org/2000/svg"><path d="M6.46,16.17a1.24,1.24,0,0,1-.35-.69,1.21,1.21,0,0,1,1-1.37,5.62,5.62,0,0,1,.7,0H56.17a5.34,5.34,0,0,1,.69,0,1.18,1.18,0,0,1,.68.35,1.21,1.21,0,0,1,0,1.71L34.13,39.57a3,3,0,0,1-4.27,0Zm54.27,2.32a.43.43,0,0,0-.48.1l-15,15a.61.61,0,0,0,0,.85L57.45,46.61a1.81,1.81,0,1,1-2.52,2.61l0,0L42.7,37a.59.59,0,0,0-.85,0h0L36.7,42.13a6.64,6.64,0,0,1-9.4,0L22.15,37a.61.61,0,0,0-.85,0L9.11,49.18a1.81,1.81,0,0,1-2.56-2.56L18.74,34.43a.62.62,0,0,0,0-.86l-15-15a.41.41,0,0,0-.48-.09.43.43,0,0,0-.27.4v29a4.83,4.83,0,0,0,4.83,4.83H56.17A4.83,4.83,0,0,0,61,47.9v-29A.45.45,0,0,0,60.73,18.49Z" fill="#222737"/></svg>