<svg height="64" preserveAspectRatio="xMinYMid" aria-hidden="true" focusable="false" viewBox="0 0 64 64" width="64" xmlns="http://www.w3.org/2000/svg"><path d="M39.49,25a7.57,7.57,0,1,0-7.57,7.57A7.58,7.58,0,0,0,39.49,25ZM26.88,25a5,5,0,1,1,5,5.05A5,5,0,0,1,26.88,25ZM38.22,51.48l-5,8.07V41.93a7.55,7.55,0,0,0,13.91-4.09,7.24,7.24,0,0,0-3.82-6.53c1.09.61,2.89.49,4.24.49a7.57,7.57,0,1,0,0-15.13,11,11,0,0,0-4.24.77,7.27,7.27,0,0,0,3.78-6.31,7.57,7.57,0,0,0-15.13,0,7.57,7.57,0,0,0-15.13,0,7.54,7.54,0,0,0,3.78,6.31A7.56,7.56,0,1,0,17.25,31.8c1.36,0,2.22.14,3.32-.49A7.57,7.57,0,1,0,30.66,42.08V59.55l-5-8.07A6.33,6.33,0,0,0,20.57,49H10.49l5,10.09a6.29,6.29,0,0,0,5,2.52h22.7a6.29,6.29,0,0,0,5-2.52l5-10.09H43.27A6.33,6.33,0,0,0,38.22,51.48ZM21.83,25A10.09,10.09,0,1,1,31.92,35.09,10.1,10.1,0,0,1,21.83,25Z" fill="#222737"/></svg>