<svg height="64" preserveAspectRatio="xMinYMid" aria-hidden="true" focusable="false" viewBox="0 0 64 64" width="64" xmlns="http://www.w3.org/2000/svg"><path d="M37.46,27.52A1.42,1.42,0,0,1,36,28.94H29.43a1.42,1.42,0,1,1,0-2.84c.87,0,1.06-1.36,1.06-1.89V24H29.43a1.42,1.42,0,1,1,0-2.84h1.06V19.66a3.49,3.49,0,0,1,7,0,1.42,1.42,0,1,1-2.84,0c0-.45-.19-.65-.65-.65s-.64.2-.64.65v1.48h1.06a1.42,1.42,0,1,1,0,2.84H33.33v.23A6.29,6.29,0,0,1,33,26.1h3A1.41,1.41,0,0,1,37.46,27.52Zm8.68-4.18A13.42,13.42,0,0,1,32.73,36.75h0A13.43,13.43,0,0,1,19.32,23.34a14.89,14.89,0,0,1,.11-1.64,13.41,13.41,0,0,1,26.71,1.64Zm-2.83,0a10.57,10.57,0,0,0-21-1.64,11.11,11.11,0,0,0-.14,1.64A10.58,10.58,0,0,0,32.72,33.91h0A10.59,10.59,0,0,0,43.31,23.34ZM61.73,42.87a7.24,7.24,0,0,1-7.25,7.25H34.55a.61.61,0,0,0-.61.61v4.83a.61.61,0,0,0,.61.61h15.1a2.42,2.42,0,1,1,0,4.83H15.82a2.42,2.42,0,1,1,0-4.83H28.5a.61.61,0,0,0,.61-.61V50.73a.61.61,0,0,0-.61-.61H11a7.25,7.25,0,0,1-7.25-7.25V9.26A6.16,6.16,0,0,1,9.78,3H55.69a6.15,6.15,0,0,1,6,6.26Zm-6-3.62A1.21,1.21,0,0,0,56.9,38V9.26a1.34,1.34,0,0,0-1.21-1.43H9.78A1.33,1.33,0,0,0,8.57,9.26V38a1.21,1.21,0,0,0,1.21,1.21Z" fill="#222737"/></svg>