<svg height="64" preserveAspectRatio="xMinYMid" aria-hidden="true" focusable="false" viewBox="0 0 64 64" width="64" xmlns="http://www.w3.org/2000/svg"><path d="M44.22,47.51a7.71,7.71,0,0,1,2.51,5.77,8,8,0,0,1-8,8,8.36,8.36,0,0,1-5.33-1.93,9.29,9.29,0,0,1-2.66-5v-1a8.87,8.87,0,0,1,1-4,8.08,8.08,0,0,1,2.67-2.81,7.8,7.8,0,0,1,4.43-1.33h.74A6.9,6.9,0,0,1,44.22,47.51ZM34,27.26a10.68,10.68,0,0,0-3.46.54,10.23,10.23,0,0,0-2.83,1.46,19,19,0,0,0-2.57,2.39.77.77,0,0,0-.2.49.68.68,0,0,0,.2.49.69.69,0,0,0,.5.21.74.74,0,0,0,.49-.21c.19-.17.46-.43.8-.77l.73-.72a9.69,9.69,0,0,1,2.93-1.91A9.19,9.19,0,0,1,34,28.66a.7.7,0,0,0,0-1.4ZM55.18,13.33,52.67,15,51,16l-3.55,2.22h-.3L44.83,43.79A11.25,11.25,0,0,0,40,42.17h-1a9.93,9.93,0,0,0-4.14.88A10.83,10.83,0,0,0,29,49a12.77,12.77,0,0,0-.74,4v1a11.56,11.56,0,0,0,1.93,5H22.64a5.07,5.07,0,0,1-4.88-4.14L11.25,18.21H9.78A2.7,2.7,0,0,1,7.11,16v-.45a2.81,2.81,0,0,1,2.81-2.81H45.86l1.33-.88,4.89-3.11c.14-.15.29-.3.44-.3a2.47,2.47,0,0,1,3.25,1A2.9,2.9,0,0,1,55.18,13.33Zm-15,12.48a7.44,7.44,0,0,0-.08-1c-.06-.42-.15-.87-.26-1.35a3.68,3.68,0,0,0-.52-1.22,1,1,0,0,0-.77-.5c0-.14-.19-.13-.47,0s-.42.23-.4.17-.08,0-.3.22l-.32.3-.32.33a2.83,2.83,0,0,1-1.23.61,8.76,8.76,0,0,1-1.78.26c-.65,0-1.3.06-2,.07s-1.3,0-1.95.1a6.92,6.92,0,0,0-1.58.27,10.1,10.1,0,0,0-2.23,1,9.73,9.73,0,0,0-1.85,1.52,6.39,6.39,0,0,0-1.3,2A6.28,6.28,0,0,0,22.44,31a6.12,6.12,0,0,0,.1,1.14,3.2,3.2,0,0,0,.17.48,2.46,2.46,0,0,1,.15.41c0,.14-.11.31-.34.52a6.5,6.5,0,0,1-.74.61,4.55,4.55,0,0,0-.74.72,1.3,1.3,0,0,0-.33.8.61.61,0,0,0,0,.14.53.53,0,0,0,0,.11.27.27,0,0,1,.06.11.88.88,0,0,1,.07.12,4,4,0,0,0,.29.45,1.05,1.05,0,0,0,.34.26,1.19,1.19,0,0,0,.56.12.93.93,0,0,0,.65-.34,3.49,3.49,0,0,0,.57-.77c.16-.27.32-.53.49-.76s.32-.35.43-.35a3.25,3.25,0,0,1,1.05.41c.53.26.85.42,1,.45a9.61,9.61,0,0,0,3.11.51A10.5,10.5,0,0,0,34.1,35,12.55,12.55,0,0,0,38,32.08a9.14,9.14,0,0,0,2-4.17A10.84,10.84,0,0,0,40.22,25.81Zm4.89-15.72V10h.29c0-3.7-3-4.89-6.36-5.18H38.6C34.9,4.47,22,3.59,17.3,3.29a6.11,6.11,0,0,0-5,1.63,7,7,0,0,0-1.92,5.17H45.11Z" fill="#222737"/></svg>