<svg height="64" preserveAspectRatio="xMinYMid" aria-hidden="true" focusable="false" viewBox="0 0 64 64" width="64" xmlns="http://www.w3.org/2000/svg"><path d="M44.73,48.06a7.74,7.74,0,0,1,2.51,5.76,8,8,0,0,1-8,8,8.41,8.41,0,0,1-5.33-1.92,9.25,9.25,0,0,1-2.66-5v-1a8.91,8.91,0,0,1,1-4A8.17,8.17,0,0,1,35,47a7.8,7.8,0,0,1,4.43-1.33h.74A7,7,0,0,1,44.73,48.06Zm11-34.19L53.18,15.5l-1.63,1L48,18.75h-.3L45.34,44.34a11.26,11.26,0,0,0-4.88-1.63h-1a9.94,9.94,0,0,0-4.14.89,10.78,10.78,0,0,0-5.77,5.91,12.83,12.83,0,0,0-.74,4v1a11.56,11.56,0,0,0,1.93,5H23.15a5.06,5.06,0,0,1-4.88-4.14L11.76,18.75H10.28a2.7,2.7,0,0,1-2.66-2.22v-.44a2.81,2.81,0,0,1,2.81-2.81H46.37l1.33-.89,4.88-3.11c.15-.14.3-.29.45-.29a2.47,2.47,0,0,1,3.25,1A2.9,2.9,0,0,1,55.69,13.87ZM45.62,10.64v-.15h.29c0-3.7-3-4.88-6.36-5.18h-.44C35.41,5,22.54,4.13,17.81,3.83a6.17,6.17,0,0,0-5,1.63,7,7,0,0,0-1.92,5.18H45.62Z" fill="#222737"/></svg>