<?xml version="1.0" encoding="UTF-8"?>
<svg width="277px" height="277px" viewBox="0 0 277 277" version="1.1" xmlns="http://www.w3.org/2000/svg" xmlns:xlink="http://www.w3.org/1999/xlink">
    <title>Group 2</title>
    <g id="Page-1" stroke="none" stroke-width="1" fill="none" fill-rule="evenodd">
        <g id="Group-2">
            <rect id="Rectangle" stroke="#979797" fill="#153D8A" x="0.5" y="0.5" width="276" height="276"></rect>
            <g id="Group" transform="translate(44.000000, 18.000000)" fill="#FFFFFF" fill-rule="nonzero">
                <path d="M150.397213,139.097116 C153.653638,134.415342 157.035705,134.005324 158.041129,134.005324 C158.075395,134.005324 158.109661,134.005324 158.132505,134.005324 L159.309258,131.658718 L159.94918,129.995769 C157.446895,127.364379 157.229878,125.359455 156.978596,124.641776 C156.864376,124.391308 156.875798,124.436767 156.829818,124.425329 C156.829818,124.425329 156.806974,124.425329 156.78413,124.425329 C156.578535,124.448206 156.281564,124.459644 155.904347,124.459644 C154.156204,124.459644 150.71732,124.208882 149.037708,123.855762 C147.632223,123.55954 146.855238,123.252173 146.501158,123.092623 C143.153357,127.660601 136.3778,129.539997 135.086828,129.870241 C135.075406,130.314574 135.075406,130.73603 135.075406,131.146048 C135.075406,136.260717 135.749301,138.288518 136.320691,139.074532 L136.43491,139.211205 L136.457754,139.256665 C136.537708,139.473112 136.70933,139.564325 136.949191,139.68956 C137.154786,139.791918 137.543132,139.962905 137.543132,140.418676 C137.543132,140.521034 137.520288,140.635124 137.4746,140.760358 C136.275003,143.801766 130.973463,144.063673 128.18563,144.097988 C127.431489,144.097988 126.860099,144.075111 126.585972,144.052235 C126.437487,144.268682 126.105958,144.769913 126.117083,145.407817 C126.117083,145.647141 126.16336,145.909048 126.289002,146.193832 C126.905787,147.583729 127.123096,149.098567 127.123096,150.511047 C127.123096,152.72098 126.608816,154.725905 126.254736,155.819286 C130.162212,154.794241 134.583969,151.855191 134.858096,151.673058 C135.96661,150.95538 145.587109,144.79279 147.860662,144.097988 C148.340677,142.093064 149.231881,140.669145 150.14593,139.370461 L150.385791,139.108554 L150.397213,139.097116 Z M177.17933,183.670605 C177.17933,183.670605 172.746151,180.105382 171.854946,179.490062 C170.998008,178.897911 167.821536,176.505552 164.131076,174.261597 C161.228731,172.495997 159.869226,172.051664 158.121083,171.960744 C157.8698,171.949306 157.606803,171.937868 157.344098,171.937868 C154.442045,171.937868 150.465744,172.780781 143.244732,176.858672 C141.725028,177.713023 136.457754,181.244517 135.326689,181.984779 C132.870092,183.602268 128.436913,186.381769 126.563128,186.564195 C126.460331,186.564195 126.357533,186.57534 126.254736,186.57534 C124.917783,186.57534 122.129949,185.743865 116.611393,181.460965 L115.27444,180.344413 C107.996318,174.273036 104.37439,172.12 99.6096817,172.029081 C99.5868378,172.029081 99.5639939,172.029081 99.5411501,172.029081 C97.7244751,172.029081 92.925794,173.395808 90.0120266,174.660177 C85.099126,176.813212 81.3284199,178.544791 77.1125508,180.868521 L74.0046103,182.634121 C72.5994183,183.556808 68.6802269,185.584316 67.1376786,185.561733 C64.646816,185.561733 62.7958753,184.228734 58.1913672,180.617758 L57.1288334,179.774846 C52.809874,176.255083 46.7085054,171.322841 40.8355757,171.038057 C40.6185588,171.026619 40.4129638,171.026619 40.2073688,171.026619 C34.3915488,171.026619 28.4958338,174.603279 26.4963199,175.685516 C25.0338424,176.482969 22.2345287,178.237131 21.4918387,178.704047 C20.7263341,179.182695 13.7451829,183.693481 7.11825846,189.241044 L7.01540238,189.320819 L7.01540238,208.332404 L7.48387784,207.933824 C8.38650434,207.147809 13.4024074,201.554787 25.9364689,193.478485 L27.8217341,192.248137 C35.5340361,188.170246 38.3447132,187.748789 39.6131348,187.748789 C39.8872614,187.748789 40.1042784,187.771373 40.2987443,187.782811 C40.9155293,187.817126 44.3547062,188.227144 49.1536802,191.792659 C50.8332918,193.034152 54.0894247,195.938887 55.2893146,196.998247 C56.2718947,197.852598 61.0020442,201.509327 62.8072972,202.204129 C64.2813138,202.750819 65.5380206,202.978705 66.6693789,202.978705 C68.5774294,202.978705 70.0971338,202.340801 71.6508111,201.634561 C73.3532666,200.859985 77.9352237,198.000709 79.2490402,197.169235 L83.7507508,194.503824 C84.5962676,194.21904 90.1490899,191.359765 91.1548068,190.983768 C94.2738763,189.799173 96.1248171,189.411738 97.7130532,189.411738 C98.2044897,189.411738 98.6727894,189.446053 99.1528039,189.51439 C100.718196,189.730837 103.060281,190.277528 110.224183,195.63152 C110.224183,195.63152 117.81099,201.645999 120.05057,203.069918 C121.947198,204.277389 123.718185,204.562173 124.472327,204.562173 C124.563702,204.562173 124.643656,204.562173 124.712188,204.550735 C129.465181,203.878516 141.073977,196.121313 141.108243,196.109875 C141.142509,196.086998 144.181625,193.569698 150.317259,191.200215 C152.568261,190.322988 155.447469,190.095395 157.275566,190.095395 C157.915488,190.095395 158.429476,190.117979 158.738161,190.163732 C161.605948,190.493975 164.839529,192.442001 168.929757,195.540307 C168.929757,195.540307 170.632213,196.747778 171.534839,197.510917 C172.448888,198.285493 178.1048,203.081063 182.537979,207.090911 L183.006279,207.523806 L183.006279,188.887924 L182.926325,188.80815 C181.452602,187.304456 178.390349,184.684505 177.17933,183.670605 Z M172.4032,210.474001 C171.489151,209.665403 169.169911,207.820028 169.169911,207.820028 C165.045124,204.709991 161.765855,202.70536 158.692473,202.329363 C158.349522,202.283903 157.824112,202.261027 157.172769,202.261027 C155.287562,202.261027 152.373795,202.500351 150.008866,203.4116 C143.8047,205.803666 140.685338,208.378157 140.662494,208.389595 C140.662494,208.389595 137.760441,210.314452 134.286999,212.319376 C130.813556,214.335738 126.723036,216.420144 124.529436,216.716366 C124.495171,216.716366 124.438061,216.716366 124.369529,216.716366 C123.741029,216.716366 122.038574,216.454459 120.244743,215.315324 C118.062273,213.936865 110.464337,207.910948 110.452915,207.899509 C103.277297,202.522934 100.79815,201.907907 99.1185381,201.680021 C98.6156797,201.611685 98.124536,201.566225 97.5988337,201.577663 C95.9192221,201.577663 93.9883277,201.99912 90.8461214,203.183714 C89.7835877,203.593732 83.8535483,206.612557 83.4537802,206.703476 L83.4195144,206.703476 L78.8492721,209.414641 C77.5351627,210.23497 72.9306547,213.105391 71.3081528,213.845946 C69.7541826,214.552186 68.3375685,215.144336 66.5551594,215.144336 C65.5037548,215.144336 64.3155796,214.939327 62.8872508,214.404075 C61.2993076,213.823069 56.4432239,210.109443 55.5520193,209.312283 C54.3410003,208.252923 51.0959965,205.359333 49.3821191,204.083525 C44.4917695,200.461112 40.9497952,200.005634 40.2187907,199.95988 C40.0471687,199.95988 39.8073078,199.925859 39.5103373,199.925859 C38.0934304,199.925859 35.2027997,200.404213 27.4332415,204.504981 L25.5251324,205.746767 C12.9682271,213.834507 7.84949722,219.529888 7.00398044,220.247567 L6.91257559,220.327341 L6.91257559,220.452576 L6.82117075,239.942809 L7.28964621,239.53279 C8.19227271,238.746776 13.2081758,233.153753 25.7422372,225.077451 L27.6274731,223.858542 C35.3398631,219.78065 38.1505401,219.359194 39.4075398,219.359194 C39.6816664,219.359194 39.8986834,219.38207 40.0928564,219.393215 C40.7099343,219.42753 44.1491112,219.837548 48.9480852,223.403064 C50.615982,224.644557 53.8838297,227.549292 55.0837196,228.608652 C56.0548778,229.463003 60.7964492,233.119731 62.6017022,233.814533 C64.0757188,234.361224 65.3324256,234.58911 66.4637839,234.58911 C68.3718344,234.58911 69.8912459,233.951206 71.4452161,233.244966 C73.1476716,232.470389 77.7293358,229.611114 79.0434452,228.779639 L83.5337338,226.125373 C84.3449848,225.852028 89.9434949,222.981607 90.9489189,222.605611 C94.0682813,221.421016 95.9192221,221.033581 97.5074582,221.033581 C97.9986018,221.033581 98.4671944,221.067896 98.9472089,221.136232 C100.478042,221.341242 103.151656,222.571589 106.45377,225.237 C106.45377,225.237 108.818991,227.105252 110.624244,228.551754 C113.092262,230.511218 119.856104,236.024466 124.803563,236.04705 C124.997736,236.04705 125.203331,236.035905 125.397797,236.024466 C129.808132,235.557257 140.776713,228.586069 140.799557,228.57463 L147.015145,224.986238 C151.265573,222.548713 155.778706,221.808158 157.138503,221.785575 C157.29841,221.785575 157.446895,221.785575 157.595381,221.785575 C160.429194,221.785575 162.508574,222.491815 170.243867,228.916312 L172.071963,230.533801 C172.871792,231.262918 176.813535,234.201675 182.515135,239.555667 L182.994857,240 L182.994857,220.828572 L182.926325,220.748798 C179.178756,216.408706 173.762997,211.726932 172.380356,210.496878 L172.4032,210.474001 Z M45.7259253,53.4015638 C44.2062209,53.0029839 41.6582486,52.8548729 39.8187298,52.8548729 C39.773042,52.8548729 39.7273542,52.8548729 39.6816664,52.8548729 C36.745348,52.8548729 34.6885194,53.6749092 33.5917198,55.7141482 C33.2947492,56.2608391 33.0545955,56.7506319 33.0545955,57.3316376 C33.0545955,57.753094 33.1805298,58.1859887 33.4546565,58.6872197 C33.8658465,59.4274814 34.7456291,60.4299435 35.4426606,60.9426128 C35.6254117,61.0678472 35.8198776,61.1021621 35.9683629,61.1476219 C36.0483165,61.1704984 36.1054263,61.1930817 36.1396921,61.2159582 C36.162536,61.2159582 36.151114,61.2273965 36.162536,61.2159582 C36.2082238,61.2957329 36.3795529,63.1865676 36.4138188,63.448768 L36.4366626,63.6423388 L36.6311286,63.6877987 C36.6311286,63.6877987 36.7681919,63.7106752 36.8938333,63.7335518 C36.950943,63.7446967 37.0080528,63.756135 37.0423186,63.7675733 L37.0651625,63.7675733 L37.2593355,63.904246 L37.4306647,63.7335518 C37.7279281,63.4373298 38.9046813,62.4234294 39.1216983,62.0248495 C39.2244958,61.7855256 39.2359177,61.5690783 39.2359177,61.3640692 C39.2359177,61.2388348 39.2359177,61.1247453 39.2359177,61.0109492 C39.2359177,60.8742764 39.2359177,60.749042 39.2818984,60.6235143 C39.3732739,60.2363727 39.6930884,59.4048981 39.9215273,59.0857996 C40.0700126,58.8238924 40.572871,58.6757814 40.9726391,58.3112231 C41.3498561,57.9240815 42.0468876,57.1720883 42.0468876,57.1720883 C42.0468876,57.1720883 44.8461427,54.9850316 45.5660181,54.4040259 C45.7259253,54.2559149 45.7601911,54.1078039 45.794457,53.9940077 C45.8058789,53.9371097 45.8287228,53.8913566 45.8401447,53.8687733 L46.2856006,53.5156532 L45.7373472,53.3675422 L45.7259253,53.4015638 Z M109.584554,27.1906407 C110.864105,29.1157609 112.360965,30.8813612 112.360965,30.8813612 C112.886375,31.5307032 113.972045,33.0458347 113.972045,33.0458347 C114.58883,34.0368585 115.57141,35.2783512 115.754454,36.4972606 C115.822986,36.9301553 115.84583,37.4425314 115.84583,37.966639 C115.84583,39.4019958 115.663079,41.0080468 115.617391,42.1243051 C115.617391,42.1243051 115.331549,45.9517277 115.342971,47.3870845 C115.342971,47.7287663 115.308705,48.1047629 115.308705,48.5033427 C115.308705,49.6767924 115.400081,51.0549578 115.480035,52.1829476 L116.028581,56.7960917 C116.439771,59.6099072 117.079693,62.503204 117.902366,65.1231554 C118.359536,66.5810955 119.125099,70.4768545 123.135373,75.0902918 C127.123096,79.7835038 130.973463,81.640317 131.007729,81.6631935 C135.121094,84.2033703 139.737024,85.7639616 145.644219,86.2992141 C145.632797,86.2992141 146.958036,86.48164 148.363521,86.5725596 C149.140506,86.6183127 150.020288,86.6637725 150.911493,86.6637725 C151.619946,86.6637725 152.339529,86.6408959 153.025138,86.5725596 C154.693328,86.4133036 155.344672,86.48164 156.715598,86.2651926 C160.429194,85.6956252 164.405203,84.3514813 167.593097,83.1440101 C170.79212,81.936539 173.705887,80.387386 173.705887,80.3759477 C176.002284,78.9405909 178.927473,76.8218706 180.778414,74.896721 C182.355228,73.2563551 182.812106,72.3565442 183.646201,70.8188295 C184.525983,69.2124852 185.177327,66.7292065 185.177327,66.7177682 C185.714159,64.8269335 185.988578,62.799426 186,60.8059401 C186,58.698658 185.691315,56.6253974 185.040264,54.7685842 C184.411764,52.9915456 183.886062,51.3740563 183.029123,49.8020268 C183.017701,49.756567 183.017701,49.7680053 183.006279,49.756567 C183.006279,49.756567 183.006279,49.756567 183.006279,49.7451287 C183.006279,49.7451287 183.006279,49.7336905 183.006279,49.7222522 C182.846372,49.4148852 182.195028,48.2414356 181.383777,47.1591988 C180.298399,45.7126971 179.384351,44.8697842 179.372929,44.858346 C175.499718,41.3840434 170.517993,39.4703321 164.828108,39.4703321 C164.188186,39.4703321 163.548264,39.4932087 162.89692,39.5386685 C160.851806,39.6867795 158.90949,40.4270411 157.29841,40.7575779 L155.378938,41.1447195 C155.05883,40.8713741 154.23645,39.9258101 153.996297,39.7322393 C152.511151,38.6045427 150.431478,37.3970716 148.317833,36.9756152 C147.780709,36.861819 147.278143,36.8160659 146.80955,36.8160659 C144.604529,36.8160659 142.947762,37.7845065 141.279572,38.1945246 C138.97146,38.764092 136.663642,39.3905575 134.504016,39.8120139 C131.4649,40.4044579 128.459757,40.5980287 124.974892,40.8828124 L124.55228,41.9764874 C124.60939,43.468449 124.700766,43.96968 124.792141,45.3821603 C124.929204,47.6149701 124.940626,49.5855795 125.317843,51.6359635 C125.317843,51.6359635 125.523438,51.9776453 125.774721,52.1371945 C125.94605,52.1940926 126.129094,52.2055309 126.334689,52.2055309 C127.408645,52.2055309 129.396649,51.7840745 129.956617,51.7500529 C133.658499,51.4764142 136.960612,51.1690472 140.445477,50.5311435 C141.21104,50.3830325 143.450327,49.6996689 144.364376,49.7108139 C144.444329,49.7108139 144.512861,49.7108139 144.547127,49.7222522 L144.604529,49.7222522 L144.661639,49.7222522 C144.661639,49.7222522 144.661639,49.7222522 144.741593,49.7222522 C145.015719,49.7222522 145.906924,49.8134651 147.163924,51.0549578 C147.597957,51.4878525 148.820398,52.6269873 150.305837,55.0190531 C151.597102,57.0808754 152.454041,61.7740874 152.442326,66.6039721 C152.442326,67.6064342 152.408061,68.6088963 152.339529,69.5999201 C152.259575,70.6592803 152.156778,71.9122112 152.065402,73.1196824 L151.859807,75.1474832 L152.202466,75.1131683 C156.692754,74.6119373 161.263289,73.4273427 164.325249,71.3426438 L164.473734,71.2402859 L164.45089,71.0692984 C164.370937,70.499731 164.336671,69.9301636 164.336671,69.3834727 C164.336671,67.048305 164.908061,64.7814737 164.908061,62.0931859 C164.908061,61.6717295 164.896639,61.2388348 164.862373,60.7945018 C164.576532,56.9899558 163.52542,54.2673532 162.645637,51.3511798 C165.879219,51.3854946 167.764426,51.8752874 169.409772,53.059882 C171.7747,54.7457077 172.814683,58.1516738 172.803261,60.5551779 C172.803261,60.8513999 172.791839,61.1361836 172.757573,61.3980907 C172.757573,61.409529 172.757573,61.4324056 172.757573,61.4667204 C172.757573,61.8424237 172.689041,65.2143684 170.6779,68.1760016 C169.444038,70.0099382 168.312972,71.1830946 167.490299,71.9122112 C166.679048,72.6298896 166.187612,72.8803585 166.199034,72.8803585 C162.051403,75.6598592 155.96175,77.1635524 149.768713,77.1635524 C145.986878,77.1635524 142.159355,76.6054232 138.720178,75.4319736 C132.892936,73.4613642 129.316696,69.1215656 128.402647,67.8228815 C127.477177,66.5127591 125.70619,63.254904 125.70619,63.2434657 C124.232173,59.7465799 123.05542,53.8913566 122.609671,49.4717833 L122.324122,45.1771512 C122.324122,45.0862316 122.324122,44.9835804 122.324122,44.8697842 C122.324122,43.2179801 122.575405,40.4158961 122.575405,37.7387534 C122.575405,35.7341224 122.438342,33.7975346 121.924354,32.4079309 C121.273011,30.6649139 119.856104,29.822001 118.884946,28.6714866 C118.393802,28.0905396 118.050851,27.6121264 117.605395,26.9856023 C116.268442,25.1060591 114.53172,22.8392278 114.200484,20.1509107 C114.166218,19.9003245 114.154796,19.649709 114.154796,19.3991228 C114.154796,17.8840793 114.70305,16.2665313 115.537144,15.0476806 C116.382661,13.8174502 117.502597,13.0200851 118.599397,13.0314647 C118.656507,13.0314647 118.713616,13.0314647 118.782148,13.0314647 C119.559133,13.0998011 120.004882,12.9517194 121.101682,13.8174502 C122.061418,14.5692674 122.575405,16.4032334 122.575405,18.3511129 C122.575405,20.002829 122.209903,21.7229109 121.569981,22.8848049 C121.101682,23.7277471 120.290431,24.7301505 119.581977,25.3908428 L118.268161,26.461612 L118.450912,26.67803 C119.490602,27.9538668 120.873243,29.2980107 122.346966,30.1636828 L122.495452,30.2548957 L122.64423,30.1636828 C122.872669,30.0041335 124.232173,28.6259388 124.986314,27.5095925 C125.70619,26.4388234 126.27758,25.3225065 126.27758,25.3225065 C126.905787,24.0125308 127.682772,22.3949828 128.071411,20.7888144 C128.368381,19.5016273 128.505445,18.0435699 128.505445,16.562724 C128.505445,13.8516183 128.059989,11.0721763 127.385801,9.11291722 C127.088831,8.29273428 126.16336,6.97137896 126.037426,6.42460011 L125.614814,5.43357628 C125.420641,5.1146244 125.203331,4.6248023 125.066268,4.34001859 C124.575124,3.36037438 124.357814,2.6085718 123.889515,1.61754211 C123.786717,1.44667482 123.706764,0.751814314 123.4095,0.410079735 C123.249593,0.307560828 123.203905,0.318951883 123.158217,0.318951883 C123.135373,0.318951883 123.11253,0.318951883 123.089686,0.318951883 C122.952622,0.318951883 122.747027,0.330342937 122.609671,0.341734579 L122.449764,0.0569556849 L122.198481,0.467036476 C121.273011,1.95927669 120.621667,3.20091311 119.71904,4.7045476 C119.399226,5.22853788 118.896368,5.86644165 118.485178,6.45876829 C117.765302,4.89817706 117.045427,3.44011969 116.462615,2.33518238 C116.1428,1.72006131 115.857252,1.21885079 115.628813,0.854336447 C115.365815,0.478427824 115.297284,0.27338737 115.000313,0.136693538 C114.931781,0.113911429 114.851828,0.102520374 114.794718,0.102520374 C114.611674,0.102520374 114.406079,0.136693538 114.303281,0.136693538 L114.29186,0.136693538 L113.983467,0 L113.903513,0.330342937 C113.19506,3.2464609 113.035153,5.47912408 112.086838,7.59790311 L111.138231,9.47741689 C110.852683,10.0469843 110.407227,10.6051428 109.481756,12.0176523 L107.89352,14.592056 C107.219333,15.7425411 106.430926,17.4967911 106.430926,19.4788387 C106.430926,19.8091996 106.45377,20.1395311 106.499457,20.4698626 C106.865252,23.0214776 108.430352,25.2313816 109.698773,27.1336839 L109.584554,27.1906407 Z M185.897202,134.93945 L185.954312,135.030662 L185.931468,135.144459 C185.931468,135.144459 184.983154,139.199767 182.160762,139.723581 C180.252712,140.04268 177.316393,140.680583 175.671048,140.680583 C175.236721,140.680583 174.871219,140.657707 174.597092,140.487013 C174.460029,140.577932 174.265563,140.737482 174.299828,140.851571 C174.299828,140.897031 174.322672,140.976805 174.414341,141.10204 C175.008282,141.842595 175.454031,142.719529 175.602516,143.630778 C175.671048,144.109426 176.13964,145.510468 176.13964,147.652065 C176.13964,148.916434 175.990862,150.454149 175.51114,152.242626 L175.933752,152.572869 C177.213596,153.58677 177.442035,153.905575 177.430613,153.894137 C178.653054,154.919475 181.475446,157.482529 182.949169,158.974784 L183.029123,159.054558 L183.029123,177.257545 L182.537979,176.767753 C181.086807,175.298081 177.933471,172.359324 176.745003,171.368301 C176.745003,171.368301 172.28898,167.802785 171.454886,167.221779 C170.575103,166.61819 167.421768,164.237563 163.753859,162.016191 C160.851806,160.262029 159.663631,159.886033 158.018286,159.806258 C157.778425,159.79482 157.526849,159.783382 157.275566,159.783382 C154.499155,159.783382 150.625651,160.580835 143.461749,164.636143 C141.988025,165.467617 136.571973,168.850707 135.486596,169.568385 C133.052843,171.163291 130.77929,173.475583 126.597394,174.409708 C126.414643,174.444023 126.22047,174.466606 126.00316,174.466606 C124.369529,174.455168 121.524293,173.316033 116.188488,169.192682 L114.840406,168.064986 C107.870676,162.255222 103.814422,160.113918 99.5297281,159.874594 L99.1185381,159.851718 C99.1185381,159.851718 99.0842723,159.851718 99.0728503,159.851718 C98.935787,159.851718 98.7298991,159.874594 98.5357261,159.874594 C98.5357261,159.874594 98.5128822,159.874594 98.4900383,159.874594 L98.4443505,159.874594 C96.8789583,159.874594 93.0057476,161.218738 90.1722267,162.471669 C85.2704552,164.624705 81.5114639,166.344845 77.3181458,168.657136 L74.2216273,170.411298 C72.7364816,171.356862 68.9429316,173.395808 67.0691469,173.418685 C64.3155796,173.418685 62.3618414,171.937868 57.7687552,168.349476 L56.7059286,167.495418 C52.3983911,163.963924 46.3201593,159.134333 40.7442002,158.883571 C40.5386052,158.872132 40.3444321,158.860694 40.1388371,158.860694 C34.5400341,158.860694 28.7015167,162.357873 26.7020027,163.451548 C25.2737618,164.226125 22.4744774,165.980287 21.7203655,166.458641 C20.9777048,166.925851 13.8937268,171.436637 7.31249009,176.949885 L6.84401464,177.33732 L6.84401464,159.476015 L6.94687072,159.39624 C13.5737952,153.860115 20.9891267,149.417665 21.7432094,148.939018 C22.4973213,148.472101 25.2966349,146.717939 26.7591417,145.920486 C28.7586264,144.83825 34.6542535,141.261589 40.4700735,141.261589 C40.6870904,141.261589 40.8926854,141.261589 41.0985733,141.284172 C42.6750946,141.352509 43.9435162,141.694484 45.2915985,142.184277 L45.4974864,141.888055 L48.1139903,139.108554 C49.7590433,137.525086 51.6673866,135.83926 53.0611568,135.793801 C53.1411104,135.793801 53.221064,135.793801 53.3013105,135.816677 C53.5525933,135.565915 53.5640152,134.93945 54.5580173,133.857213 C55.5520193,132.774976 56.0434558,132.774976 56.9232384,131.317036 C56.9232384,130.986793 56.9232384,129.801905 57.1402554,129.27809 C57.1973651,128.993307 57.8715527,125.780911 57.8715527,122.363507 C57.8715527,122.010387 57.8715527,121.657267 57.8487088,121.315585 C56.7059286,123.753404 53.5868591,129.779321 50.0448847,129.870241 C49.9420872,129.870241 49.8507117,129.870241 49.7476213,129.859096 C45.3258644,129.380448 44.2633306,125.519004 41.78389,116.679564 C41.78389,116.679564 41.78389,116.542598 41.6696706,116.292129 C41.5668731,116.04166 41.3498561,115.68854 40.9155293,115.323982 C40.0357467,114.594865 38.2419157,113.820289 34.5971438,113.820289 C33.2604834,113.820289 31.6836693,113.922647 29.7984627,114.173409 L29.7070871,114.925109 C30.3809818,115.141556 32.4720763,115.836358 34.5742999,116.804799 C37.1108503,118.000832 39.7273542,119.47021 39.7958859,121.327023 C39.7958859,121.805378 40.2530565,123.240734 40.2530565,125.325433 C40.2530565,128.526097 39.167386,133.36742 33.7858929,139.507134 C33.7858929,139.507134 32.7005152,140.714605 32.0948593,141.341364 C32.0720154,141.341364 31.5922937,141.956391 30.8724183,141.979268 C30.5526039,141.979268 30.1982307,141.819718 29.9469479,141.45516 C29.5925748,140.942491 28.1073705,139.518572 28.1073705,139.53001 C28.1073705,139.518572 27.1932928,138.687098 27.0447782,138.504965 L27.0333563,138.504965 C27.0333563,138.504965 26.9419514,138.447774 26.8733905,138.402314 C26.7362686,138.322539 26.530615,138.197305 26.2906663,138.060632 C25.7993762,137.787287 25.1366691,137.422728 24.4054304,137.024148 C22.9429236,136.215257 21.1947803,135.269693 20.006488,134.552015 C19.1952664,134.0282 18.7153983,133.823191 18.5211666,133.401735 C18.5211666,133.401735 18.4297618,133.333399 18.3497789,133.276207 C18.1898131,133.173849 17.9612863,133.037177 17.6870718,132.877627 C17.1386427,132.569967 16.3959527,132.194264 15.6761359,131.783952 C14.293612,130.975354 12.8654003,130.177901 12.6711687,129.164001 C12.4540639,128.981868 11.8827909,128.503514 11.7114032,128.252752 L11.6885593,128.21873 L11.6885593,128.172977 C11.6885593,128.172977 10.8316206,125.416353 10.4660012,121.805378 C10.3403012,121.440819 9.2777089,118.490624 9.2777089,116.497138 C9.2777089,116.280691 9.28913085,116.075682 9.32342597,115.882111 C9.197726,115.654226 8.93493341,115.061782 8.93493341,114.127949 C8.93493341,113.444292 9.07205532,112.589941 9.49481371,111.553458 C10.625967,108.773957 9.95183794,110.368863 10.3974402,108.284164 C10.7402157,106.700696 12.5569199,103.340483 13.4367026,101.757015 L13.8937268,100.948124 L13.9165707,100.914103 C13.9165707,100.914103 13.9394146,100.879788 13.9508658,100.857205 C13.9965536,100.754553 14.0193975,100.720532 14.0193975,100.720532 C14.0193975,100.697655 14.0422706,100.674779 14.0651145,100.663634 C14.362173,100.219301 15.0477239,99.3878262 16.2588601,99.0458512 C17.8698815,98.6701478 33.7059392,97.8841331 35.7970337,92.1315609 C34.7456291,92.4732427 32.3578569,93.2478192 31.8207326,93.2592575 C31.8207326,93.2592575 31.7978887,93.2592575 31.7864668,93.2592575 C31.7864668,93.2592575 31.7750448,93.2592575 31.7636229,93.2706957 C31.7065132,93.3161556 31.6151376,93.3959302 31.5123401,93.4871431 C31.2950303,93.6807139 31.0209036,93.942621 30.6782453,94.2048215 C29.9926357,94.7286358 29.0900092,95.2867649 28.0502315,95.2982032 C27.707456,95.2982032 27.3646805,95.2413051 27.0104831,95.0931941 C26.8962344,95.127509 26.7020027,95.1729688 26.4392101,95.1729688 C25.6736763,95.1729688 24.3825572,94.7969722 22.7486919,92.9744738 C22.7486919,92.9401589 20.8977219,90.3659606 20.8748487,88.8053694 C20.8748487,88.7027182 20.8748487,88.6003603 20.9091438,88.4977091 C20.5663683,88.0079164 19.1724225,86.0144304 18.8524909,85.3539434 C18.5896983,85.0348449 16.4530917,82.4603533 15.8018359,79.6128095 C15.2533775,80.0454109 14.1336755,80.7290678 12.476937,80.7290678 C10.7287938,80.7290678 8.44364335,79.9659296 5.6671736,77.4483361 L5.62148582,77.4143145 L5.59861264,77.3571232 C5.59861264,77.3571232 5.59861264,77.3571232 5.55292487,77.2887868 C5.5072078,77.2318887 5.41580295,77.1406758 5.27871033,77.0497562 C4.99304456,76.8558921 4.45603744,76.650883 3.49627193,76.650883 C2.89070385,76.650883 2.11376559,76.7420959 1.11972253,76.9699816 L0.90263529,77.0154414 L0,75.3067391 L0.137110196,75.1586282 C0.137110196,75.1586282 0.628417827,74.6348138 1.23398298,73.1651422 C1.83954813,71.6957639 2.54794593,69.3036981 2.89070385,65.658408 C2.89070385,65.658408 2.9592648,65.1800535 3.1192306,64.4509369 C3.5191451,62.6170002 4.45603744,59.1884508 6.45555137,57.4797485 C5.62148582,56.4544099 2.31943089,52.0688582 2.30800308,46.7491807 C2.30800308,42.7965237 4.18182291,38.3426356 10.1689135,34.5037747 L10.3974402,34.3556637 L11.2315351,35.5516966 L11.2315351,35.620033 C11.2315351,35.620033 11.7913861,41.1332813 15.9960675,42.5003017 C16.3502649,42.6143911 16.6473234,42.659851 16.898694,42.659851 C17.3442963,42.659851 17.5956669,42.5457615 17.6870718,42.4888634 C18.0869863,41.9307343 21.9831581,36.6908314 28.1873534,36.6793932 C28.6557996,36.6793932 29.135697,36.713708 29.6271335,36.7706061 L29.6728213,36.7706061 L29.7185091,36.7934826 C29.7185091,36.7820444 29.7756188,36.8275042 29.935526,36.8275042 C30.2439185,36.8275042 30.94095,36.6679549 31.7978887,35.2100148 C32.1291251,34.6404474 32.2893252,33.9911054 32.2893252,33.3191801 C32.2893252,31.4738052 31.0665914,29.4574427 28.5529728,28.660107 L28.3587412,28.6031502 L28.3587412,26.8603092 L28.5643948,26.8033524 C28.5643948,26.8033524 32.0377496,25.8692853 36.1853799,25.8692853 C38.4363816,25.8692853 40.8812635,26.1426601 43.0865774,27.0083908 C47.382693,28.6714866 50.6962285,31.1890215 51.5186085,37.2489606 C53.8838297,36.5198439 68.4175222,32.0433726 71.6393892,32.0319343 C71.8224332,32.0319343 71.9709184,32.0433726 72.0394501,32.0773941 C72.0508721,32.0773941 92.4457794,32.8293873 113.811845,40.370143 L114.006311,40.4384794 C114.006311,40.4384794 112.897797,45.9405827 113.617672,51.7157381 C113.617672,51.7955127 113.275014,51.6359635 113.275014,51.6359635 C113.275014,51.6359635 108.784725,50.5880416 103.985751,49.5286814 C99.1756478,48.4693212 94.0340155,47.4213993 92.74275,47.4213993 C92.7084841,47.4213993 92.6742183,47.4213993 92.6399525,47.4213993 L92.6399525,47.4439825 L92.4800453,47.4897356 C92.4800453,47.4897356 92.0231675,47.6264084 91.5774187,47.8428557 C91.109119,48.0478648 90.7547459,48.4009848 90.7890117,48.5262193 C90.7890117,49.1526848 91.326136,51.9890835 97.1645069,62.4917658 L97.4731923,63.0498949 L92.0117455,61.7855256 L87.2584593,61.7855256 L87.2013496,61.5805166 C87.2013496,61.5805166 85.9446428,56.8304065 82.2998709,51.8183893 C78.6433843,46.8060788 72.6336841,41.5547377 63.1159826,40.5296923 C62.9903412,40.518254 62.852985,40.5068158 62.7044997,40.5068158 C59.1396815,40.5068158 48.9138193,44.0723312 48.9021045,44.0837695 C48.8792606,44.0837695 45.8744106,45.0519168 44.6976574,45.0519168 C44.5948599,45.0519168 44.5031915,45.0519168 44.4118159,45.0290402 L44.1605331,44.9607038 L44.2062209,44.6987967 C44.2062209,44.6987967 44.4689256,43.2748782 44.4689256,41.3611669 C44.4460817,37.6363955 43.4863455,32.2598199 37.7850379,31.5535798 C38.5962888,32.5671869 40.2187907,34.9023546 40.2302126,37.511161 C40.2302126,39.3562427 39.3732739,41.3271453 36.8253016,42.9446347 C36.8138797,42.9446347 34.0717343,43.821569 32.1177032,43.8330073 C31.5009182,43.8330073 30.952372,43.7532327 30.5411819,43.468449 C30.4266696,43.3889676 30.1868088,43.3206313 29.8441504,43.3206313 C27.7988609,43.2748782 22.9200797,45.5191263 22.2802165,46.9316065 C21.3319022,48.811003 19.1038615,49.7336905 16.8644282,49.7336905 C16.6930404,49.7336905 16.5216527,49.7336905 16.3502649,49.7222522 C13.4595465,49.4943666 10.6488109,46.0658171 9.68904535,44.8014479 C9.57479661,45.2683641 9.4376747,46.008919 9.4376747,46.90873 C9.46051859,49.7680053 10.7516377,54.1990168 18.7153983,56.500163 L19.1724225,56.6253974 L18.0070034,57.7871155 L17.9041766,57.7871155 C17.9041766,57.7871155 17.1157988,57.8443069 16.2588601,57.9809796 C15.4133433,58.106214 14.4649997,58.402436 14.3050632,58.6529049 C14.3050632,58.6529049 12.2598322,60.7376037 11.9284787,62.0931859 C11.8256519,62.5146423 11.174396,65.2827047 11.174396,65.294143 C10.5345621,67.6178724 9.44909665,69.6339416 8.78641884,70.6135272 C9.07205532,70.6249654 9.46051859,70.647842 9.92899405,70.647842 C12.9453832,70.647842 18.9096299,69.9870617 19.6751638,65.1686153 L19.7094296,64.9864827 L21.6860996,64.49669 L21.7432094,64.7814737 C21.7432094,64.7814737 23.365682,72.253893 23.7541452,72.9261116 C24.2340426,73.495679 27.0104831,78.9860507 27.0676221,80.6264166 C27.0676221,80.7290678 27.0676221,80.8314257 27.0219343,80.9455151 C26.9647953,81.0821879 26.9305002,81.2871969 26.9305002,81.5376658 C26.9305002,82.3694337 27.2504318,83.4856919 27.2618538,84.1690555 C27.2618538,84.2717067 27.2618538,84.3740646 27.216166,84.488154 C27.2390099,84.6133885 27.776017,85.296752 28.4272728,85.7753998 C29.0785873,86.333529 29.935526,86.8004452 30.0725893,86.7664237 C30.6097136,86.5725596 36.8253016,82.6084643 44.1605331,82.6199025 C44.4460817,82.6199025 44.7319232,82.6199025 45.0174718,82.6427791 C45.2230668,82.4603533 45.8287228,81.8567643 46.5143323,80.6149783 C47.3484272,79.0887019 48.2624756,76.6394448 48.5480242,72.9146733 C48.9252413,67.9595542 49.4849166,63.756135 49.4963385,63.7446967 C49.4963385,63.7221135 49.393541,62.6398767 49.2222119,61.5007419 C49.0851485,60.4413817 48.810729,59.2453488 48.6622437,59.0174632 C48.6393998,59.0174632 48.6165559,59.0174632 48.5137584,58.9720034 C48.4909145,58.9491269 48.388117,58.9262503 48.3766951,58.7326795 C48.399539,58.5276705 48.5023365,58.5047939 48.5137584,58.4822106 C48.5480242,58.4593341 48.5594462,58.4593341 48.5708681,58.4593341 C48.593712,58.4593341 48.605134,58.4593341 48.605134,58.4593341 C48.6165559,58.4593341 48.6279779,58.4593341 48.6393998,58.4593341 C48.6622437,58.4593341 48.6965095,58.4593341 48.7307754,58.4593341 C48.799307,58.4593341 48.9021045,58.4478958 49.0508827,58.4364575 C49.3135874,58.4250193 49.7133555,58.402436 50.19337,58.3795595 C51.1759501,58.3340997 52.5357473,58.2657633 54.0894247,58.1974269 C57.9515063,58.0493159 61.5391685,55.907719 61.9617804,54.9735933 C61.9732024,54.9507167 61.9846243,54.9052569 61.9846243,54.8483588 C62.0188901,54.3925876 61.1847953,53.0941968 59.4483668,52.0348366 C57.7116455,50.9525999 55.0951415,50.0299124 51.587433,50.0299124 C51.0160429,50.0299124 50.410387,50.052789 49.7933091,50.1096871 L49.6219799,50.1096871 L47.999478,47.5806553 L48.3766951,47.4897356 C48.3766951,47.4897356 51.0959965,46.7949338 54.6950806,46.7949338 C58.1571013,46.7949338 62.4646389,47.4328376 65.9723474,49.9844526 C65.9723474,49.9844526 66.7950203,50.5880416 67.8918198,51.2030688 C69.0000413,51.8183893 70.3712604,52.4334165 71.479482,52.4219782 C71.6508111,52.4219782 71.8224332,52.41054 71.9709184,52.3765184 L72.2222012,52.3307653 L72.7593255,53.9485479 L72.5077498,54.0509058 C72.5077498,54.0509058 71.1254017,54.5975967 70.7938724,55.7481698 C70.5425896,56.5796443 71.2967308,57.604983 66.1779424,62.8334475 C66.1550985,62.8563241 63.3901092,65.2369516 59.0483059,65.2598282 C59.025462,66.9116323 58.6942256,75.2612793 54.0437369,80.8771788 C54.0094711,80.899762 50.4674967,85.3879649 49.9306653,85.741085 C49.8963995,85.741085 49.1308363,86.6637725 48.4452267,87.495247 C47.6796636,88.3495981 47.0968515,89.1699277 46.4572226,89.2497024 C45.8515667,89.6254057 42.5722971,91.6303299 39.6359787,91.6417682 L39.5331812,91.6417682 L39.5331812,91.6986662 C39.5331812,92.5187025 39.7045103,94.9450831 41.2927464,99.2851751 L41.361278,99.4901841 L41.1899489,99.6154186 C41.1899489,99.6154186 39.773042,100.617881 36.5166163,101.916565 L35.751346,102.167034 C32.2436375,103.556931 27.4789586,105.003432 22.8172529,105.014871 C22.1545458,105.014871 21.491868,104.991994 20.8405829,104.923658 C20.6006342,105.538978 19.8579735,107.464128 19.1152835,109.434737 C18.258374,111.655815 17.4014353,114.05932 17.3328743,114.32152 C17.4242792,114.686078 17.7327888,116.166895 17.7327888,116.930033 C17.7327888,117.078144 17.7327888,117.19194 17.6642279,117.340051 C17.6642279,117.340051 17.6642279,117.35149 17.6642279,117.362928 C17.6299328,118.114628 19.1038615,123.662191 19.3780761,123.901515 C19.6066028,124.243197 22.1317019,124.903977 23.8798452,126.407377 C24.2340426,126.715037 24.3482914,126.817395 24.4054304,126.874586 C24.4054304,126.908608 24.4282743,126.828833 24.4739913,127.04528 C24.4739913,127.04528 24.4739913,126.976944 24.4511182,126.954361 C24.4511182,126.954361 24.4739913,126.999821 24.4739913,127.04528 C26.3592272,128.708523 27.4446634,129.152856 28.8729044,130.747469 C28.8957483,130.724592 28.9300141,130.690571 28.9757898,130.645111 C29.0785873,130.519583 29.1928067,130.326012 29.2956042,130.121003 C29.4783553,129.756445 29.6385554,129.334988 29.7185091,129.084519 L29.6499774,129.050205 C29.6499774,129.050205 31.1922328,125.348017 31.1693889,124.413891 C31.1693889,124.368431 31.1693889,124.334409 31.1693889,124.322971 L31.1008572,124.243197 L31.1008572,124.129107 C31.1008572,124.129107 31.1237011,124.038187 31.1237011,123.8672 C31.1237011,123.138083 30.9295281,121.178912 28.8500312,119.960003 C27.6503463,119.253763 26.5648808,118.650174 24.5653962,118.297054 L24.3140255,118.2513 L24.4625401,115.175871 C24.4625401,115.175871 24.611084,111.655815 25.5365544,110.494097 C25.5480056,110.231897 25.6051153,109.594286 26.2678224,109.411861 C26.6791588,109.366401 29.0557434,108.432275 30.6097136,108.3525 C32.0491715,108.284164 36.5851479,107.09957 36.9852089,107.076693 C37.1222722,107.076693 38.5848669,107.076693 40.0471687,107.111008 C41.5668731,107.167906 42.9152483,107.167906 43.3607041,107.406936 C43.8749845,107.782933 46.0800056,110.072641 46.4458007,111.302695 C46.6970835,112.282574 48.1711001,114.67464 48.4109609,115.209893 C48.5594462,115.619911 49.999197,117.795823 51.2673257,117.727486 C51.3244354,117.727486 51.3815452,117.727486 51.4386549,117.727486 C52.9240934,117.533622 55.9175216,116.212355 60.5680103,108.477735 L60.6479639,108.341062 L61.641966,108.341062 L61.6876537,108.363939 C61.8247171,108.409399 64.4183771,109.559972 64.4069552,117.499601 C64.4069552,120.392897 64.0757188,124.208882 63.1502484,129.221192 C63.2073581,129.528559 63.5043287,131.260138 63.5043287,131.863727 C63.5043287,131.920625 63.5043287,131.966378 63.4929068,132.034714 C63.4129531,132.399273 62.3618414,136.784824 59.9737763,139.461674 L59.8595568,139.632662 C59.6768057,139.826232 59.5854302,139.871692 59.4597888,139.99722 L59.4138081,140.04268 L59.3566984,140.065556 C59.3566984,140.065556 57.6542429,140.635124 57.2316309,140.771796 C56.9118165,140.851571 54.5465953,142.218298 54.3410003,142.685508 C54.0323149,143.243637 52.5814351,145.225684 52.0785766,145.909048 C53.9295174,147.173417 55.1294074,147.697525 56.7059286,148.984771 L59.2653228,150.784392 C60.4994786,151.752833 60.8764028,151.786855 61.7676074,152.401882 C62.5217486,151.410858 65.6525329,147.21917 65.6182671,144.940901 C65.6182671,144.405355 65.458067,144.018213 65.1039867,143.756306 L64.9212356,143.61934 L66.9549275,138.82377 C67.9603515,137.137945 69.0457291,135.95335 70.051446,135.862137 C70.0742899,135.862137 70.6225432,135.919035 71.9823404,136.249279 C72.279311,136.317615 72.5762815,136.35193 72.8735449,136.35193 C73.9589226,136.35193 75.078566,135.896159 76.678224,135.588792 C76.9983313,135.520455 77.1125508,135.315446 77.1353947,134.791339 C77.1353947,134.005324 76.7010679,132.774976 76.1413926,131.761369 C75.6042683,130.73603 74.8501271,129.927432 74.6216882,129.938577 L74.5531566,129.938577 L74.4960468,129.881679 C74.4275152,129.836219 72.5991254,128.435177 72.0280282,123.331947 C71.9138087,123.069747 71.3424186,121.714165 71.3424186,119.857645 C71.3424186,119.265201 71.3995283,118.604421 71.5594356,117.932495 C72.2336232,114.959424 73.661952,112.692592 73.6391081,112.726614 C73.661952,112.704031 74.1645176,111.211776 74.9871905,110.699106 C75.1470977,110.63077 75.1813635,110.380008 75.2501881,109.878777 C75.3187197,109.400422 75.5014708,108.75108 76.1756585,108.192951 C76.5411607,107.942482 77.7750236,104.912513 78.7693185,101.700117 C78.7693185,101.700117 81.2713102,92.2567954 81.2598882,91.3341079 L81.2598882,91.2657715 L81.2598882,91.2088735 L81.5228858,90.3202075 L81.7627467,90.3430841 C81.7627467,90.3430841 82.1396708,90.3773989 82.8138584,90.3773989 C84.8589723,90.3773989 89.5437268,90.0128406 94.2167666,87.0852289 L94.4109397,86.9714327 L94.5711397,87.1306887 L95.2564564,87.8143456 L95.1993467,87.9850398 C95.1993467,87.9850398 93.3484059,93.3047173 92.1830747,96.7790198 C91.2347604,99.6154186 90.1950706,101.79133 90.1836486,101.79133 C88.3095711,105.709673 85.8190014,109.947113 82.8367023,113.045712 C82.6311073,113.990983 80.688791,123.240734 80.0146034,124.562002 C79.9803375,124.596317 79.9689156,124.641776 79.9460717,124.68753 C79.9689156,124.744428 80.0146034,124.824202 80.0602911,124.92656 C80.1745106,125.143007 80.3344178,125.450668 80.5403057,125.815226 C80.9400738,126.544049 81.477198,127.51249 82.0140294,128.640187 C83.0994071,130.884141 84.1850775,133.709102 84.1850775,136.340492 C84.1850775,136.488603 84.1850775,136.625275 84.1850775,136.773386 C84.2079214,136.853161 84.2307653,137.046732 84.2307653,137.297494 C84.2307653,137.855623 84.0708581,138.743996 83.2253413,139.495989 L82.9966096,139.712436 C82.7224829,139.974343 82.5625757,140.099578 81.8084344,140.361485 C81.099981,140.623685 80.2544642,140.680583 79.3632596,140.680583 C78.3806795,140.680583 77.3295677,140.600809 76.3584096,140.600809 C74.678798,140.600809 73.3190008,140.840133 72.7935913,141.876616 C72.8735449,142.104502 73.0448741,142.674069 73.3304227,143.858664 C73.4332202,144.302997 73.5020448,144.83825 73.5020448,145.476153 C73.5020448,147.207732 72.9991863,149.725032 71.3538406,153.780341 L71.3195747,153.98535 C72.5305937,153.393199 73.7761715,152.652644 74.4275152,152.231188 L78.0037554,150.351498 C82.2082025,148.027768 85.2818771,146.387403 90.1950706,144.223222 C92.5942647,143.163862 96.1019732,141.671607 99.2784453,141.660169 L99.6439476,141.637292 C100.295291,141.637292 100.923791,141.705629 101.483466,141.842595 L101.940637,141.910931 C102.283295,141.534935 103.44892,140.316025 105.048285,139.108554 L105.208485,138.971881 C106.442348,138.037755 107.89352,137.149383 109.321556,136.761948 C109.5046,136.180942 110.258449,134.050784 111.823841,131.396811 C111.858107,131.271576 111.99517,130.690571 111.99517,130.177901 C111.99517,129.893118 111.93806,129.642649 111.858107,129.551436 C111.412651,128.913532 110.6014,126.020235 110.578556,124.812764 C110.589978,124.596317 110.567134,124.402746 110.795573,124.208882 C111.2299,123.924098 116.439771,120.404336 119.216475,119.515963 L119.296429,119.493086 L119.376382,119.515963 C119.467758,119.515963 120.176211,119.82333 120.153367,121.053678 C120.153367,121.816816 120.084836,122.705482 120.084836,123.388845 C120.084836,123.730527 120.107679,124.038187 120.141945,124.243197 C120.233321,124.778449 121.170213,126.418815 121.181635,127.501052 C121.181635,127.637724 121.170213,127.774397 121.124525,127.91107 C120.861528,128.697085 120.221899,132.70664 118.268161,135.736903 C117.216756,137.377268 116.679925,138.482088 116.325551,139.33644 L116.245598,139.473112 C115.960049,140.167914 115.902939,140.487013 115.674501,140.942491 L115.559988,141.158938 L115.331549,141.079163 C115.331549,141.079163 115.251596,141.045142 115.000313,141.045142 C114.783296,141.045142 114.463189,141.079163 114.017733,141.193253 C112.555138,141.568956 110.715619,143.015751 109.195915,144.769913 C109.275869,144.826811 109.378666,144.918024 109.516022,145.009237 C109.835837,145.225684 110.281293,145.521906 110.818417,145.863588 C111.880951,146.546952 113.240748,147.424179 114.440345,148.346867 C116.085691,149.645258 117.788146,151.319938 118.416646,151.957842 L118.519443,151.798293 C120.119101,149.394789 120.530291,147.731546 120.530291,146.661041 C120.530291,146.034282 120.381806,145.601388 120.256165,145.328042 C120.119101,145.054697 120.016011,144.963484 120.016011,144.963484 L119.787572,144.758475 L120.004882,144.542028 C120.518869,144.08655 120.770152,142.058749 122.346966,139.791918 C122.621093,139.404776 123.009732,139.13143 123.455188,138.926421 L123.592544,138.86923 C124.392373,138.51611 125.340687,138.402314 126.266158,138.402314 C127.980035,138.402314 129.602244,138.789749 129.91093,138.858085 L130.082259,138.880668 C130.219322,138.607323 130.299276,138.254203 130.287854,137.844185 C130.333542,135.805239 128.391225,132.479047 128.219896,132.433294 C127.682772,131.977816 127.123096,130.052667 127.077409,128.913532 C127.088831,128.61731 127.088831,128.321088 127.397223,128.138955 C127.477177,128.104641 127.534287,127.990844 127.534287,127.774397 C127.534287,127.455592 127.397223,127.079595 127.397223,127.079595 L127.31727,126.863148 L127.511443,126.737914 C130.802134,124.68753 134.195623,119.025877 134.915499,117.772946 C132.870092,116.633811 131.110527,114.993445 130.676493,114.571989 C125.249019,115.301106 117.959475,118.467748 112.05228,121.475134 C106.088267,124.505104 101.50631,127.341502 101.551998,127.307481 C99.5068842,129.483099 97.2675973,130.223361 95.5422979,130.223361 C94.1596569,130.223361 93.0742792,129.779321 92.6285305,129.107103 C92.2401844,128.514952 91.8972332,128.138955 91.6573724,127.922508 C91.5659968,127.831295 91.4860432,127.774397 91.4289335,127.728937 C90.1836486,128.366841 87.5100349,129.859096 86.0588622,129.881679 C85.7618917,129.881679 84.3678287,129.79076 84.3449848,129.357865 C84.3449848,129.27809 84.4020945,129.073081 84.4020945,129.004745 C84.4477823,127.797274 82.7453268,126.054257 82.699639,124.57344 C82.699639,124.402746 82.7339048,124.231758 82.8481243,124.083647 C83.0537193,123.878638 83.8992361,119.880228 84.3449848,117.932495 C84.7904406,115.973031 85.0534382,114.093634 85.0534382,114.105073 L86.1616597,112.943061 C87.2698812,113.057151 87.704208,113.170947 90.3435558,113.170947 C94.0454374,113.170947 98.8783844,112.829265 103.803,111.473683 C112.532294,109.093055 123.581122,103.864298 125.797565,102.622805 C125.820409,102.622805 128.025723,101.153427 130.185056,101.141988 C130.824978,101.141988 131.4649,101.278661 132.047419,101.643219 C132.047419,101.643219 136.332113,104.650312 138.902929,108.204389 C138.902929,108.204389 140.251304,110.118101 142.87923,112.054689 C145.507156,113.979838 149.368945,115.904694 154.396358,115.904694 C154.887501,115.904694 155.39036,115.882111 155.915769,115.847796 C156.37294,115.813775 156.806974,115.790898 157.218457,115.790898 C164.587954,115.768022 164.222452,121.338461 164.690751,124.92656 C164.690751,124.92656 165.090812,126.10001 165.570534,127.341502 C166.016283,128.537535 166.587673,129.881679 166.793268,130.109565 C166.838956,130.121003 166.896065,130.155025 166.930331,130.200778 C166.998863,130.280552 167.010285,130.360327 167.010285,130.405787 C166.941753,130.929601 166.06197,131.989255 165.07939,133.526969 C164.09681,134.996348 163.034276,136.716488 162.725591,137.787287 C162.554262,138.277079 162.120228,138.288518 161.685901,138.42519 C161.217309,138.550425 160.589102,138.766872 159.709319,139.427652 L159.32068,139.723581 C158.601098,140.270565 157.526849,141.124916 156.864083,142.195715 C157.2413,142.172838 157.744159,142.149962 158.121083,142.149962 C158.212459,142.149962 158.292412,142.149962 158.372366,142.149962 C160.154775,142.241175 163.685327,143.710553 167.593097,146.797714 C168.061396,146.068597 168.221304,145.066135 168.221304,144.109426 C168.221304,142.810742 167.947177,141.626147 167.867223,141.329925 C167.593097,141.05658 167.490299,140.680583 167.490299,140.316025 C167.524565,138.447774 169.878071,135.770924 169.889493,135.736903 L169.923759,135.691149 L171.546261,134.882551 L171.614793,134.882551 C171.706168,134.882551 171.809259,134.882551 171.900634,134.882551 C174.916906,134.882551 176.516564,133.230747 177.030845,132.581405 C176.082238,131.977816 175.191033,130.109565 174.276985,128.252752 C173.294404,126.156908 172.517419,124.117962 172.517419,124.106524 L172.517419,124.060771 L172.505997,124.003873 C172.483153,108.887753 171.112227,107.919606 170.26671,106.222342 C170.129647,105.800885 168.072818,104.923658 166.164768,104.342945 C164.233874,103.727625 162.394355,103.272147 162.348667,103.24927 C153.09367,99.2966133 152.830965,89.7506401 152.830965,88.7027182 C152.830965,88.6343819 152.830965,88.3495981 152.853809,88.3495981 C160.886072,88.7596163 166.381785,85.5246377 166.381785,85.5246377 L166.416051,86.0258687 C166.416051,86.0258687 166.587673,87.5635834 167.604519,90.6278678 C168.609943,93.6921522 170.460884,97.2802509 173.751575,99.4787459 C174.105655,99.581397 176.596518,100.31022 177.933471,100.971001 C178.401771,101.244346 178.790117,101.358436 178.858942,101.848228 C178.870364,101.848228 178.858942,101.848228 178.904629,101.905126 C178.961739,101.973463 179.075959,102.076114 179.2016,102.212787 C179.464305,102.49757 179.841522,102.94161 180.195602,103.716187 C180.904055,105.254195 181.578243,108.079155 181.578243,113.66074 C181.578243,114.423878 181.578243,115.232769 181.543977,116.098559 C181.509711,117.055268 181.498289,117.955372 181.498289,118.798285 C181.509711,129.847658 183.886062,131.373934 185.885781,134.848237 L185.897202,134.93945 Z" id="Shape"></path>
            </g>
        </g>
    </g>
</svg>