<?xml version="1.0" standalone="no"?>
<!DOCTYPE svg PUBLIC "-//W3C//DTD SVG 20010904//EN"
 "http://www.w3.org/TR/2001/REC-SVG-20010904/DTD/svg10.dtd">
<svg version="1.0" xmlns="http://www.w3.org/2000/svg"
 width="700.000000pt" height="700.000000pt" viewBox="0 0 700.000000 700.000000"
 preserveAspectRatio="xMidYMid meet">
<metadata>
Created by potrace 1.14, written by Peter Selinger 2001-2017
</metadata>
<g transform="translate(0.000000,700.000000) scale(0.100000,-0.100000)"
fill="#000000" stroke="none">
<path d="M0 3500 l0 -3500 3500 0 3500 0 0 3500 0 3500 -3500 0 -3500 0 0
-3500z m4066 2965 c21 -41 42 -75 45 -75 3 0 25 34 49 75 27 48 48 75 57 73 8
-2 25 -28 38 -59 12 -30 35 -80 50 -110 32 -64 55 -162 55 -239 0 -109 -56
-253 -124 -319 l-33 -32 -52 47 -52 46 45 48 c63 67 84 159 53 233 -19 43 -42
61 -82 61 -61 0 -115 -76 -115 -161 0 -58 33 -125 105 -213 87 -107 93 -119
101 -177 4 -31 4 -101 1 -156 -11 -211 33 -462 105 -598 82 -155 224 -259 403
-295 113 -23 333 -15 430 16 153 48 251 125 303 238 35 77 38 196 5 257 -40
76 -85 106 -175 119 -55 8 -56 7 -33 -71 30 -101 36 -157 29 -295 l-7 -138
-51 -25 c-55 -27 -193 -65 -235 -65 l-26 0 0 192 c0 212 -9 261 -66 344 -34
50 -94 104 -115 104 -9 0 -59 -9 -112 -19 -107 -21 -369 -48 -378 -38 -13 12
-27 258 -16 269 6 6 57 15 114 20 57 6 164 26 238 45 220 58 274 55 378 -25
l46 -35 56 12 c30 7 75 17 100 23 25 5 78 7 118 3 201 -17 345 -111 428 -280
82 -169 85 -335 9 -502 -73 -161 -300 -303 -605 -379 -98 -25 -115 -26 -265
-21 -192 6 -279 26 -411 92 -158 79 -281 201 -344 340 -35 76 -76 240 -91 359
-7 57 -9 162 -5 281 7 218 8 215 -87 333 -68 86 -135 207 -142 257 -10 61 7
109 79 225 55 87 69 119 86 197 28 119 41 122 96 18z m-1911 -590 c130 -34
213 -105 243 -207 9 -32 21 -58 26 -58 5 0 61 15 125 34 329 97 363 101 638
66 255 -33 447 -76 784 -177 14 -4 16 -22 11 -146 -2 -78 -5 -143 -7 -144 -1
-2 -82 15 -180 37 -252 57 -333 70 -363 59 -22 -8 -24 -14 -19 -46 4 -20 39
-102 79 -182 40 -80 74 -148 76 -152 2 -4 -23 0 -55 7 -32 8 -89 14 -126 14
-63 0 -69 2 -75 23 -3 12 -27 65 -53 117 -105 207 -276 346 -479 388 -98 20
-154 12 -358 -53 -79 -25 -155 -45 -169 -45 -24 0 -25 3 -21 43 7 63 -10 165
-34 209 -23 41 -54 65 -98 78 l-28 8 25 -48 c36 -70 39 -116 11 -169 -36 -67
-80 -86 -198 -86 -81 -1 -104 -5 -151 -27 -33 -15 -67 -40 -83 -61 -48 -63
-131 -84 -200 -52 -18 9 -50 34 -71 55 -22 22 -43 40 -47 40 -4 0 -8 -15 -8
-32 0 -93 52 -168 152 -218 34 -16 67 -30 75 -30 7 0 13 -4 13 -10 0 -14 -35
-30 -64 -30 -26 0 -80 -39 -97 -72 -6 -11 -20 -52 -30 -90 -11 -39 -28 -87
-39 -109 -11 -21 -20 -41 -20 -45 0 -12 126 4 166 21 49 20 72 41 95 88 12 23
26 37 39 37 20 0 23 -7 50 -129 7 -30 33 -96 57 -147 26 -55 45 -112 47 -136
2 -24 4 -55 4 -70 1 -18 14 -36 36 -53 l34 -26 59 29 c79 41 177 69 261 78 81
7 90 15 122 110 36 105 57 389 34 477 -5 24 -4 24 98 30 89 6 111 11 167 39
36 18 67 39 69 46 2 7 -12 28 -32 47 -45 42 -144 75 -225 75 -53 0 -58 2 -75
31 -10 17 -16 33 -13 36 3 3 53 7 110 10 148 8 215 -7 332 -74 53 -30 111 -57
130 -60 45 -7 54 -32 21 -56 -15 -11 -26 -29 -26 -41 0 -47 -97 -163 -164
-198 -22 -11 -60 -23 -85 -27 l-46 -6 -7 -68 c-7 -74 -39 -191 -68 -247 -19
-37 -79 -114 -170 -219 -58 -68 -138 -115 -213 -128 l-38 -6 7 -41 c3 -22 14
-67 24 -99 l18 -58 -51 -26 c-118 -60 -288 -105 -437 -115 -35 -3 -35 -3 -77
-115 -42 -110 -43 -113 -33 -185 5 -40 16 -96 24 -123 14 -46 21 -53 68 -78
29 -15 82 -52 118 -82 36 -30 69 -53 74 -52 18 6 57 140 52 176 -7 45 -48 87
-110 110 l-51 19 1 79 c1 100 19 138 72 152 92 25 253 51 315 51 62 0 70 -3
103 -32 19 -18 56 -73 82 -123 30 -57 57 -95 75 -105 25 -14 30 -13 73 9 47
25 107 91 160 175 33 52 44 56 74 24 47 -51 60 -192 35 -391 -9 -75 -14 -148
-11 -162 13 -50 -69 -217 -113 -232 -63 -21 -104 -50 -137 -95 -39 -53 -39
-52 11 -80 11 -6 58 -38 104 -71 65 -47 87 -58 100 -50 21 13 91 142 91 169 0
11 -4 24 -9 30 -13 12 35 123 73 170 28 35 30 36 81 29 72 -9 145 10 145 38 0
30 -39 106 -60 117 -44 24 -93 217 -77 304 8 46 82 209 112 246 29 37 94 247
130 423 5 24 10 27 43 27 62 0 174 28 235 58 42 21 60 26 67 17 13 -15 -94
-318 -149 -422 -24 -44 -66 -111 -95 -148 -28 -38 -54 -73 -58 -79 -3 -6 -21
-75 -40 -153 l-33 -143 32 -62 c73 -142 92 -255 49 -305 -23 -27 -29 -28 -135
-33 -60 -3 -115 -10 -120 -15 -7 -7 -7 -23 0 -50 14 -49 7 -112 -21 -194 -11
-35 -19 -65 -17 -67 2 -2 48 21 103 52 146 82 389 198 467 224 37 12 96 23
130 23 58 2 67 5 117 46 30 24 73 52 95 63 34 17 45 32 73 92 37 80 37 86 17
141 -8 22 -14 54 -15 71 0 29 7 36 68 72 149 90 172 92 172 12 0 -27 5 -70 12
-94 17 -63 0 -126 -70 -267 -54 -111 -59 -116 -93 -122 -22 -4 -55 -23 -83
-48 l-47 -42 68 -45 c37 -24 90 -65 116 -91 46 -44 49 -45 62 -27 31 41 49
107 38 136 -8 22 -5 37 17 86 41 89 57 99 151 98 l79 -2 0 33 c0 19 -16 63
-36 102 -26 47 -37 81 -37 111 0 38 5 48 52 94 43 42 101 117 134 174 4 7 -17
29 -49 53 l-55 41 -65 -15 c-162 -38 -567 -230 -687 -326 -75 -60 -178 -69
-210 -18 -15 24 -18 24 -94 -6 -70 -28 -113 -26 -113 6 0 11 -9 37 -20 59 -19
38 -19 39 -1 113 11 40 25 103 32 138 6 35 16 70 22 77 7 8 47 12 137 12 152
0 262 18 413 66 116 38 321 122 466 193 47 23 97 41 112 41 38 0 139 -79 204
-159 75 -93 141 -143 237 -182 40 -17 85 -23 184 -29 187 -9 222 -35 243 -181
5 -36 21 -95 35 -131 l27 -66 -50 -77 c-28 -42 -52 -84 -56 -93 -3 -10 -20
-23 -38 -30 -17 -6 -50 -29 -72 -49 l-40 -37 45 -7 c55 -8 99 -27 170 -72 30
-20 59 -33 64 -30 5 3 6 45 2 98 l-6 93 33 43 c33 44 51 53 117 64 19 3 45 13
57 23 l23 17 -55 108 -55 107 0 103 c0 144 -17 274 -43 327 -22 44 -24 46
-127 81 -58 19 -119 42 -135 51 -41 22 -118 106 -145 158 -17 34 -49 150 -50
183 0 4 20 7 44 7 60 0 179 24 245 49 30 11 55 20 56 18 0 -1 9 -33 19 -72 22
-86 76 -191 120 -234 19 -18 62 -43 97 -56 123 -44 148 -114 149 -405 0 -230
9 -283 66 -396 l46 -91 -21 -41 c-27 -54 -55 -67 -171 -83 -52 -7 -96 -13 -98
-14 -1 -1 6 -17 15 -36 14 -26 18 -60 19 -145 l0 -111 92 -83 92 -83 0 -229 0
-230 -87 79 c-167 152 -410 322 -501 350 -125 38 -329 -44 -645 -259 -164
-111 -208 -120 -317 -63 -37 20 -109 70 -161 112 -260 210 -369 248 -544 189
-75 -26 -346 -155 -549 -263 -149 -79 -172 -73 -400 107 -266 208 -377 244
-566 181 -123 -42 -366 -190 -577 -352 -56 -44 -105 -79 -108 -79 -3 0 -5 99
-5 219 l0 219 42 37 c103 88 370 263 518 339 155 80 257 103 360 82 l60 -13
35 43 c40 49 125 114 149 114 8 0 22 12 30 28 8 15 27 39 43 53 23 21 31 41
41 98 6 39 12 95 12 124 l0 52 -27 -45 c-66 -113 -133 -168 -190 -154 -73 18
-106 68 -156 234 -40 133 -59 154 -153 166 -60 7 -184 -3 -184 -15 0 -5 21
-16 48 -26 86 -33 159 -74 185 -104 52 -62 46 -205 -14 -330 -44 -94 -156
-231 -188 -231 -8 0 -29 17 -46 38 -18 20 -72 59 -121 86 -49 28 -114 67 -144
87 -30 20 -69 44 -86 52 -58 30 -92 85 -108 178 -9 46 -20 101 -26 122 -19 65
-16 185 6 257 27 87 96 220 125 242 16 12 70 25 154 37 146 22 234 47 298 84
46 27 73 54 64 63 -9 9 -90 -19 -127 -44 -50 -34 -128 -28 -171 14 -33 31 -69
93 -69 119 0 9 -22 49 -49 88 -28 40 -57 89 -66 110 -13 32 -18 36 -35 27 -30
-16 -108 -12 -148 9 -20 10 -55 33 -77 51 -36 29 -45 31 -86 26 -41 -6 -47 -4
-56 17 -8 17 -7 28 3 42 20 26 43 106 54 185 13 91 36 161 66 206 21 30 24 41
15 54 -6 8 -28 49 -49 90 -34 69 -37 82 -37 160 0 68 5 94 23 131 29 59 79
117 131 153 48 34 65 26 75 -32 11 -69 79 -142 132 -142 9 0 41 23 71 51 66
63 128 91 216 97 64 4 70 7 88 36 10 17 19 40 19 51 0 30 -37 84 -70 103 -19
11 -30 25 -30 39 0 18 8 23 53 31 82 15 207 13 272 -3z m69 -671 c25 -4 46
-12 46 -18 0 -6 -34 -38 -75 -71 -62 -49 -77 -68 -87 -103 -21 -72 -78 -107
-78 -48 0 14 -16 40 -40 64 -45 44 -51 76 -23 119 35 53 129 74 257 57z m21
-3003 c77 -27 150 -74 315 -202 80 -61 159 -118 177 -125 61 -26 105 -18 205
36 190 103 436 220 528 251 198 67 293 40 520 -146 142 -117 256 -185 310
-185 39 0 99 32 273 144 242 156 362 211 482 223 33 3 78 0 101 -6 80 -22 356
-214 512 -356 l72 -67 0 -230 c0 -131 -4 -228 -9 -226 -5 2 -71 57 -146 123
-156 136 -285 232 -365 273 -49 24 -65 27 -155 26 -88 0 -110 -4 -180 -32 -44
-17 -147 -74 -228 -126 -190 -120 -324 -188 -385 -194 -66 -6 -104 12 -239
115 -269 205 -338 247 -424 259 -92 13 -266 -57 -512 -205 -186 -112 -230
-131 -300 -131 -32 0 -74 7 -94 15 -45 19 -146 91 -237 169 -114 98 -150 124
-221 157 -117 55 -167 50 -342 -31 -139 -65 -449 -286 -558 -399 -21 -23 -43
-41 -47 -41 -4 0 -8 106 -8 236 0 189 3 239 14 248 276 222 553 390 716 435
61 16 166 13 225 -8z m-25 -734 c71 -29 132 -71 252 -173 182 -154 251 -191
343 -181 60 6 107 28 267 125 229 140 400 212 501 212 80 0 178 -54 387 -211
184 -139 234 -168 287 -169 42 0 239 100 392 199 124 80 233 134 302 150 24 6
81 11 126 11 76 0 87 -3 157 -39 100 -52 215 -142 374 -296 l132 -127 0 -239
c0 -131 -3 -239 -6 -239 -4 0 -39 28 -78 63 -106 94 -314 267 -372 309 -107
78 -173 93 -289 63 -82 -22 -159 -59 -330 -160 -79 -47 -189 -107 -242 -133
-187 -89 -255 -67 -571 181 -175 138 -236 162 -344 137 -80 -19 -255 -102
-428 -205 -183 -108 -223 -125 -293 -125 -87 0 -166 49 -397 245 -81 69 -193
126 -259 133 -54 5 -113 -11 -229 -64 -129 -59 -392 -244 -539 -378 -39 -36
-74 -66 -77 -66 -3 0 -3 111 1 246 l6 246 57 54 c122 116 385 306 520 374 160
82 253 97 350 57z"/>
<path d="M4770 3389 c-44 -40 -192 -119 -223 -119 -15 0 -17 -12 -17 -83 0
-94 11 -141 40 -172 20 -22 20 -22 1 -47 -28 -35 -65 -48 -173 -61 l-93 -12 3
-30 c11 -123 13 -186 4 -218 -7 -24 -7 -37 -1 -37 24 0 164 73 283 148 71 45
156 96 190 113 55 28 64 38 86 87 36 82 132 177 194 193 44 11 50 16 69 57 15
36 17 49 8 61 -6 9 -24 42 -39 73 -27 57 -27 57 -72 58 -45 0 -142 13 -190 24
-20 4 -34 -3 -70 -35z"/>
</g>
</svg>
