<svg width="46" height="83" viewBox="0 0 46 83" fill="none" xmlns="http://www.w3.org/2000/svg" preserveAspectRatio="xMinYMid" aria-hidden="true" focusable="false">
<path d="M3.40741 52.2439C2.75716 52.2439 2.44252 52.6711 2.27005 53.3329C2.10224 53.9925 2.10224 54.8679 2.10224 55.7035C2.10224 56.5391 2.10224 57.4145 2.27005 58.0741C2.44252 58.7359 2.75716 59.1584 3.40741 59.1631C4.05766 59.1608 4.3723 58.7359 4.54476 58.0741C4.71257 57.4145 4.71257 56.5391 4.71257 55.7035C4.71257 54.8679 4.71257 53.9901 4.54476 53.3329C4.3723 52.6711 4.05766 52.2462 3.40741 52.2439ZM10.1197 76.1912C9.51837 76.1912 9.22704 76.5855 9.06622 77.1981C8.91007 77.8084 8.91007 78.6228 8.91007 79.3973C8.91007 80.1719 8.91007 80.9863 9.06622 81.5989C9.22704 82.2115 9.51837 82.6035 10.1197 82.6058C10.721 82.6058 11.0123 82.2115 11.1708 81.5989C11.327 80.9863 11.327 80.1742 11.327 79.3973C11.327 78.6205 11.327 77.8084 11.1708 77.1981C11.01 76.5855 10.721 76.1936 10.1197 76.1912ZM43.5738 58.0788C43.8185 57.5225 43.8978 56.7057 43.8978 55.7035C43.8978 54.7013 43.8185 53.8845 43.5738 53.3283C43.3268 52.772 42.9352 52.4739 42.2663 52.4716H41.6021V58.9378H42.2663C42.9352 58.9354 43.3268 58.635 43.5738 58.0811V58.0788ZM33.6126 55.3467C34.6125 55.3327 34.997 55.1214 35.011 53.9197C34.997 52.7344 34.6194 52.4856 33.6126 52.4716H33.3656V55.3491H33.6126V55.3467ZM5.9851 52.948C6.54679 53.6451 6.81482 54.6121 6.81482 55.7035C6.81482 56.7949 6.54912 57.7595 5.9851 58.4566C5.42342 59.1537 4.56574 59.5738 3.40741 59.5738C2.24908 59.5738 1.38907 59.1537 0.829711 58.4566C0.268025 57.7595 0 56.7925 0 55.7035C0 54.6121 0.265694 53.6451 0.829711 52.948C1.3914 52.2509 2.24908 51.8308 3.40741 51.8308C4.56574 51.8308 5.42342 52.2509 5.9851 52.948ZM9.81669 58.9965H9.60693C9.35289 58.9777 9.2014 58.9542 9.19674 58.6749C9.18742 58.466 9.6652 57.7572 10.0614 57.1681L10.5718 56.4217L11.1358 57.3512C11.4924 57.9285 11.8886 58.5928 11.8816 58.7876C11.8816 58.865 11.835 58.9096 11.7488 58.9472C11.6626 58.9824 11.5437 58.9965 11.4412 58.9965H11.2314V59.4095H15.1539V58.9965H14.9837C14.5176 59.0012 14.2519 58.6913 13.322 57.1376L12.0798 55.0581L13.3523 53.1921C13.6902 52.6992 14.1447 52.4035 14.4244 52.4082H14.5642V51.9951H12.2802V52.4082H12.4806C12.5669 52.4082 12.6717 52.4364 12.751 52.4856C12.8325 52.5373 12.8815 52.603 12.8815 52.6781C12.8838 52.833 12.716 53.2273 12.4853 53.5559L11.8024 54.5605L11.3899 53.8775C11.0752 53.3517 10.7187 52.7368 10.7256 52.5866C10.7256 52.5279 10.7676 52.488 10.8492 52.4528C10.9307 52.4223 11.0403 52.4082 11.1265 52.4082H11.3479V51.9951H7.63753V52.4082H7.87759C8.15261 52.4152 8.12231 52.427 8.33906 52.7321C8.56047 53.056 8.77489 53.4362 8.97766 53.7836L10.2921 55.9664L8.81684 58.0694C8.54882 58.459 8.08968 59.0082 7.75407 58.9988H7.57461V59.4119H9.81902V58.9988L9.81669 58.9965ZM15.8717 52.4058H16.0815C16.3705 52.4105 16.4637 52.4364 16.5266 52.5913C16.5919 52.7556 16.5942 53.0935 16.5942 53.692V57.7103C16.5942 58.3088 16.5919 58.6467 16.5266 58.811C16.4637 58.966 16.3705 58.9918 16.0815 58.9965H15.8717V59.4095H19.3257V58.9965H19.116C18.827 58.9918 18.7337 58.966 18.6708 58.811C18.6056 58.6467 18.6032 58.3088 18.6032 57.7103V55.9429H19.1882C19.8758 55.9523 20.3442 56.0696 20.4235 57.0273V57.0812H20.9152V54.3305H20.4375L20.4328 54.3844C20.3326 55.4148 19.8804 55.4571 19.1882 55.4688H18.6032V52.4692H19.3304C20.4165 52.481 20.864 52.6664 21.0458 53.8141L21.0527 53.8634H21.6074V51.9951H15.8717V52.4082V52.4058ZM29.527 55.7012C29.527 56.7902 29.2613 57.7572 28.6996 58.4566C28.1379 59.1537 27.2826 59.5738 26.1242 59.5738H26.1196C24.9612 59.5738 24.1036 59.1537 23.5419 58.4566C22.9802 57.7595 22.7145 56.7925 22.7122 55.7012C22.7122 54.6098 22.9779 53.6428 23.5395 52.9457C24.1012 52.2486 24.9589 51.8285 26.1172 51.8285C27.2756 51.8285 28.1356 52.2486 28.6973 52.9457C29.259 53.6428 29.5247 54.6098 29.5247 55.7012H29.527ZM24.8121 55.7012C24.8121 56.5367 24.8121 57.4122 24.9822 58.0717C25.1547 58.7336 25.4693 59.1561 26.1196 59.1584C26.7698 59.1584 27.0845 58.7312 27.2569 58.0717C27.4247 57.4122 27.4271 56.5367 27.4247 55.7012C27.4247 54.8656 27.4247 53.9878 27.2569 53.3306C27.0845 52.6687 26.7698 52.2439 26.1196 52.2439C25.4693 52.2439 25.1547 52.6711 24.9822 53.3306C24.8144 53.9901 24.8121 54.8656 24.8121 55.7012ZM34.0857 59.4095H30.6317V58.9965H30.8415C31.1281 58.9918 31.2237 58.966 31.2866 58.811C31.3519 58.6467 31.3542 58.3088 31.3542 57.7103V53.6897C31.3542 53.0912 31.3519 52.7532 31.2866 52.5889C31.226 52.434 31.1305 52.4082 30.8415 52.4035H30.6317V51.9904H34.0484C34.9667 51.9904 37.0084 52.0256 37.0177 53.8235C37.0154 54.6684 36.3045 55.2435 35.568 55.4664C36.9268 55.6918 37.0247 56.7949 37.0177 57.8511V58.2806C37.0177 58.5153 37.0223 58.7007 37.055 58.8181C37.0923 58.9354 37.1249 58.9683 37.2135 58.973C37.2927 58.9847 37.4908 58.7899 37.647 58.5857L37.6819 58.5411L38.0175 58.7946L37.9802 58.8416C37.5794 59.3626 37.1365 59.5715 36.5003 59.5715H36.491C35.2371 59.5715 35.0087 58.3956 35.0063 57.3911C34.9924 56.2175 34.9621 55.8256 34.1673 55.8185H33.3609V57.7079C33.3609 58.3064 33.3609 58.6444 33.4285 58.8087C33.4891 58.9636 33.5846 58.9894 33.8736 58.9941H34.0834V59.4072L34.0857 59.4095ZM42.7208 59.4095H38.8659V58.9965H39.0756C39.3623 58.9918 39.4579 58.966 39.5208 58.811C39.5861 58.6467 39.5884 58.3088 39.5884 57.7103V53.6897C39.5884 53.0912 39.5861 52.7532 39.5208 52.5889C39.4602 52.434 39.3646 52.4082 39.0756 52.4035H38.8659V51.9904H42.7208C43.6554 51.9904 44.4781 52.319 45.0631 52.9504C45.6481 53.5817 45.9953 54.5088 45.9953 55.6988C45.9953 56.8888 45.6481 57.8182 45.0631 58.4472C44.4781 59.0786 43.6554 59.4072 42.7208 59.4072V59.4095ZM15.4033 71.1943L15.4172 71.2295H15.9416V68.9692H15.3846L15.3776 69.0209C15.2634 69.9832 14.7577 70.814 13.7042 70.8164C12.9701 70.8164 12.5972 70.2766 12.3944 69.5842C12.194 68.8965 12.1846 68.075 12.1846 67.5727C12.1846 66.5564 12.2662 65.6575 12.5039 65.0238C12.744 64.3877 13.1169 64.0239 13.7275 64.0216C14.6947 64.0216 15.1888 64.8759 15.3706 65.7584L15.3799 65.8054H15.8507V63.6085H15.4405V63.6672C15.4452 63.754 15.331 63.8385 15.2285 63.8455C15.2238 63.8455 15.2191 63.8455 15.2168 63.8455C15.0676 63.8502 14.45 63.5475 13.604 63.5475C12.4503 63.5475 11.5647 63.9441 10.975 64.6224C10.383 65.3007 10.0847 66.256 10.0847 67.3685C10.0847 68.481 10.3807 69.4973 10.9774 70.1921C11.574 70.8868 12.4713 71.2928 13.6553 71.2905C14.3381 71.2905 14.9837 71.0417 15.2028 71.0441C15.2821 71.0441 15.373 71.1192 15.4033 71.1943ZM17.4519 70.7131H17.2421V71.1262H20.6962V70.7131H20.4864C20.1974 70.7084 20.1018 70.6826 20.0412 70.5277C19.976 70.3634 19.9737 70.0254 19.9737 69.4269V65.4064C19.9737 64.8079 19.976 64.4699 20.0412 64.3056C20.1018 64.1507 20.1974 64.1248 20.4864 64.1202H20.6962V63.7071H17.2421V64.1202H17.4519C17.7386 64.1248 17.8341 64.1507 17.897 64.3056C17.9623 64.4699 17.9646 64.8079 17.9646 65.4064V69.4269C17.9646 70.0254 17.9646 70.3634 17.897 70.5277C17.8341 70.6826 17.7386 70.7084 17.4519 70.7131ZM21.7519 63.7681V65.8054H22.3113L22.316 65.7514C22.4115 64.7421 22.9103 64.1882 23.7446 64.1835H24.1339V69.4269C24.1339 70.0254 24.1339 70.3634 24.0663 70.5277C24.0033 70.6826 23.9101 70.7084 23.6211 70.7131H23.4114V71.1262H26.8654V70.7131H26.6556C26.369 70.7084 26.2734 70.6826 26.2105 70.5277C26.1452 70.3634 26.1429 70.0254 26.1429 69.4269V64.1835H26.5321C27.462 64.1859 27.8466 64.8712 27.9608 65.7537L27.9678 65.8054H28.5248V63.7094H21.7496V63.7681H21.7519ZM36.4094 64.1225H36.4677V63.7094H34.1836V64.1225H34.4446C34.7639 64.1342 34.9061 64.1741 34.9154 64.545C34.9154 64.7351 34.8595 64.9393 34.5239 65.6364L33.6499 67.4554L32.5009 65.0613C32.3261 64.6905 32.2725 64.5778 32.2725 64.3995C32.2725 64.2798 32.3284 64.2211 32.4286 64.1765C32.5265 64.1319 32.6664 64.1178 32.7946 64.1202H32.995V63.7071H29.1634V64.1202H29.3335C29.6132 64.1225 29.8812 64.2352 30.3008 65.0918L31.8623 68.3003V70.2977C31.853 70.6732 31.6758 70.699 31.3612 70.7108H31.1305V71.1239H34.6451V70.7108H34.3841C33.9995 70.699 33.8783 70.6779 33.8713 70.401V68.1783L35.4958 64.9721C35.7894 64.3877 36.0178 64.1178 36.2998 64.1225H36.4117H36.4094ZM5.20201 80.8877C5.09713 81.7796 4.62634 82.5495 3.65213 82.5495C2.97391 82.5495 2.62664 82.0495 2.44019 81.4088C2.25607 80.7704 2.24441 80.0076 2.24441 79.5429C2.24441 78.597 2.32133 77.7661 2.54041 77.177C2.76415 76.5879 3.10675 76.2522 3.67077 76.2499C4.56574 76.2499 5.02255 77.0409 5.19268 77.86L5.20201 77.9069H5.64716V75.8579H5.25794V75.9166C5.2626 75.9941 5.15772 76.0715 5.0645 76.0762C5.05984 76.0762 5.05518 76.0762 5.05285 76.0762C4.91767 76.0809 4.342 75.7993 3.55657 75.7993C2.48447 75.7993 1.66175 76.1677 1.11172 76.7991C0.561686 77.4305 0.284339 78.3177 0.284339 79.3527C0.284339 80.3878 0.559356 81.3313 1.11405 81.9768C1.66874 82.6246 2.50312 83.0001 3.60318 83.0001C4.23712 83.0001 4.83843 82.7677 5.04119 82.7701C5.11111 82.7701 5.19735 82.8382 5.22531 82.9062L5.24163 82.9414H5.73339V80.8361H5.209L5.20201 80.8877ZM12.5156 76.839C13.0376 77.4868 13.2847 78.3857 13.2847 79.3997C13.2847 80.4136 13.0376 81.3126 12.5156 81.9604C11.9935 82.6082 11.1964 83.0001 10.1197 83.0001C9.04291 83.0001 8.2435 82.6105 7.72144 81.9604C7.19937 81.3102 6.95232 80.4136 6.95232 79.3997C6.95232 78.3857 7.19937 77.4868 7.72144 76.839C8.2435 76.1912 9.04291 75.7993 10.1197 75.7993C11.1964 75.7993 11.9935 76.1912 12.5179 76.839H12.5156ZM18.9179 76.3438H18.9761C19.3001 76.3461 19.4516 76.3485 19.5541 76.5621C19.6613 76.785 19.7033 77.2685 19.7033 78.2168V80.1789C19.6986 81.167 19.4446 82.3758 18.1721 82.3781C17.0067 82.3711 16.811 81.6482 16.8016 80.9229V76.8953C16.8226 76.3438 16.8622 76.3672 17.4239 76.3438H17.4822V75.9518H14.2473V76.3438H14.3055C14.6458 76.3461 14.7763 76.3978 14.8486 76.555C14.9255 76.7217 14.9301 77.0409 14.9278 77.569V80.7117C14.9301 82.0378 15.8904 82.9954 17.4915 82.9978C18.3888 82.9978 19.0787 82.7771 19.5402 82.3124C20.004 81.8477 20.2324 81.1483 20.2324 80.2165V77.8365C20.2324 77.1347 20.2627 76.7475 20.3582 76.5574C20.4491 76.3743 20.5889 76.3461 20.8919 76.3414H20.9502V75.9495H18.9155V76.3414L18.9179 76.3438ZM26.4529 76.3438H26.6346C26.9353 76.3461 27.0728 76.5104 27.1567 76.7451C27.236 76.9798 27.2406 77.2803 27.2383 77.5032V80.6718L25.7956 78.4163C25.2852 77.6159 24.7468 76.8273 24.3226 75.9823L24.3063 75.9495H21.7846V76.3414H21.985C22.253 76.3461 22.3369 76.3696 22.3952 76.5104C22.4558 76.6606 22.4581 76.9751 22.4581 77.5314V81.2914C22.4581 81.5144 22.4558 81.8148 22.3742 82.0495C22.2903 82.2866 22.1551 82.4485 21.8545 82.4509H21.7962V82.8429H23.7726V82.4509H23.5932C23.2925 82.4485 23.155 82.2842 23.0711 82.0495C22.9918 81.8148 22.9872 81.5144 22.9872 81.2914V77.5056L26.4995 82.9203H27.772V77.5009C27.772 77.2779 27.7743 76.9775 27.8559 76.7428C27.9398 76.5057 28.0773 76.3438 28.3756 76.3414H28.4339V75.9495H26.4552V76.3414L26.4529 76.3438ZM34.4237 80.8877C34.3165 81.7796 33.848 82.5495 32.8738 82.5495C32.1932 82.5495 31.8483 82.0495 31.6595 81.4088C31.4754 80.7704 31.4637 80.0076 31.4661 79.5405C31.4661 78.597 31.543 77.7638 31.7621 77.1746C31.9835 76.5855 32.3284 76.2499 32.8948 76.2475C33.7897 76.2475 34.2465 77.0385 34.4167 77.8577L34.426 77.9046H34.8712V75.8556H34.4819V75.9143C34.4866 75.9917 34.3817 76.0692 34.2885 76.0739C34.2838 76.0739 34.2792 76.0739 34.2768 76.0739C34.2093 76.0739 34.0275 76.0058 33.7664 75.9354C33.5077 75.8673 33.1698 75.7969 32.7806 75.7969C31.7085 75.7969 30.8857 76.1654 30.3357 76.7968C29.7857 77.4281 29.5083 78.3153 29.5083 79.3504C29.5083 80.3855 29.7834 81.329 30.338 81.9744C30.8927 82.6222 31.7294 82.9978 32.8295 82.9954C33.4634 82.9954 34.0648 82.7631 34.2675 82.7678C34.3398 82.7678 34.4213 82.8358 34.4516 82.9039L34.4656 82.9391H34.9597V80.8314H34.4353L34.4283 80.883L34.4237 80.8877ZM36.153 76.3438H36.3535C36.6215 76.3485 36.7054 76.3719 36.7636 76.5128C36.8242 76.663 36.8266 76.9775 36.8266 77.5337V81.2656C36.8266 81.8219 36.8242 82.134 36.7636 82.2866C36.7077 82.4274 36.6215 82.4509 36.3535 82.4556H36.153V82.8476H39.3693V82.4556H39.1689C38.9008 82.4509 38.8169 82.4274 38.7587 82.2866C38.6981 82.1364 38.6958 81.8219 38.6958 81.2656V77.5337C38.6958 76.9775 38.6981 76.663 38.7587 76.5128C38.8146 76.3719 38.9008 76.3485 39.1689 76.3438H39.3693V75.9518H36.153V76.3438ZM45.4267 80.9511C45.3917 82.0542 44.7834 82.3899 43.7463 82.3969H42.9632V77.5337C42.9632 76.9775 42.9655 76.663 43.0238 76.5128C43.0797 76.3719 43.1659 76.3485 43.434 76.3438H43.6321V75.9518H40.4158V76.3438H40.6162C40.8842 76.3485 40.9705 76.3719 41.0264 76.5128C41.087 76.663 41.0893 76.9775 41.0893 77.5337V81.2656C41.0893 81.8219 41.0893 82.134 41.0264 82.2866C40.9705 82.4274 40.8842 82.4509 40.6162 82.4556H40.4158V82.8476H45.958V80.8948H45.429V80.9511H45.4267ZM34.3281 28.651C34.9924 27.6863 35.6822 27.6018 35.8873 27.6018C35.8943 27.6018 35.9013 27.6018 35.906 27.6018L36.146 27.1183L36.2765 26.7757C35.7661 26.2335 35.7218 25.8204 35.6706 25.6725C35.6473 25.6209 35.6496 25.6303 35.6403 25.6279C35.6403 25.6279 35.6356 25.6279 35.631 25.6279C35.589 25.6326 35.5284 25.635 35.4515 25.635C35.0949 25.635 34.3934 25.5833 34.0508 25.5106C33.7641 25.4496 33.6056 25.3862 33.5334 25.3533C32.8505 26.2945 31.4684 26.6818 31.205 26.7498C31.2027 26.8414 31.2027 26.9282 31.2027 27.0127C31.2027 28.0666 31.3402 28.4843 31.4568 28.6463L31.4801 28.6745L31.4847 28.6838C31.501 28.7284 31.536 28.7472 31.5849 28.773C31.6269 28.7942 31.7061 28.8294 31.7061 28.9233C31.7061 28.9444 31.7015 28.9678 31.6922 28.9937C31.4474 29.6203 30.366 29.6743 29.7973 29.6814C29.6435 29.6814 29.527 29.6767 29.471 29.672C29.4407 29.7166 29.3732 29.8198 29.3755 29.9513C29.3755 30.0006 29.3848 30.0545 29.4104 30.1132C29.5363 30.3996 29.5806 30.7117 29.5806 31.0028C29.5806 31.4581 29.4757 31.8712 29.4035 32.0965C30.2005 31.8853 31.1025 31.2797 31.1584 31.2422C31.3845 31.0943 33.3469 29.8245 33.8107 29.6814C33.9086 29.2683 34.0904 28.9749 34.2768 28.7073L34.3258 28.6533L34.3281 28.651ZM39.7912 37.8351C39.7912 37.8351 38.8869 37.1005 38.7051 36.9738C38.5303 36.8517 37.8824 36.3588 37.1296 35.8964C36.5376 35.5326 36.2602 35.4411 35.9036 35.4223C35.8524 35.42 35.7988 35.4176 35.7451 35.4176C35.1532 35.4176 34.3421 35.5913 32.8691 36.4316C32.5592 36.6076 31.4847 37.3352 31.254 37.4878C30.7529 37.8211 29.8486 38.3937 29.4664 38.4313C29.4454 38.4313 29.4244 38.4336 29.4035 38.4336C29.1308 38.4336 28.5621 38.2623 27.4364 37.3798L27.1637 37.1498C25.6791 35.8988 24.9403 35.4552 23.9684 35.4364C23.9637 35.4364 23.9591 35.4364 23.9544 35.4364C23.5838 35.4364 22.605 35.7181 22.0106 35.9786C21.0085 36.4222 20.2393 36.7789 19.3793 37.2578L18.7454 37.6215C18.4587 37.8117 17.6593 38.2294 17.3447 38.2248C16.8366 38.2248 16.459 37.9501 15.5198 37.2061L15.303 37.0324C14.4221 36.3072 13.1775 35.2909 11.9795 35.2322C11.9352 35.2299 11.8933 35.2299 11.8513 35.2299C10.665 35.2299 9.46243 35.9669 9.05457 36.1898C8.75624 36.3541 8.18524 36.7156 8.03374 36.8118C7.87759 36.9104 6.45356 37.8398 5.10179 38.9829L5.08081 38.9993V42.9166L5.17637 42.8344C5.36049 42.6725 6.38365 41.5201 8.94037 39.856L9.32492 39.6025C10.8981 38.7622 11.4715 38.6754 11.7302 38.6754C11.7861 38.6754 11.8304 38.6801 11.87 38.6824C11.9958 38.6895 12.6974 38.774 13.6762 39.5086C14.0188 39.7644 14.6831 40.3629 14.9278 40.5812C15.1282 40.7573 16.0931 41.5107 16.4614 41.6538C16.762 41.7665 17.0184 41.8134 17.2491 41.8134C17.6383 41.8134 17.9483 41.682 18.2653 41.5365C18.6126 41.3769 19.5471 40.7878 19.8152 40.6164L20.7334 40.0672C20.9059 40.0085 22.0386 39.4194 22.2437 39.342C22.88 39.0979 23.2575 39.0181 23.5815 39.0181C23.6817 39.0181 23.7773 39.0251 23.8752 39.0392C24.1945 39.0838 24.6722 39.1964 26.1336 40.2996C26.1336 40.2996 27.6811 41.5388 28.1379 41.8322C28.5248 42.081 28.8861 42.1397 29.0399 42.1397C29.0585 42.1397 29.0748 42.1397 29.0888 42.1373C30.0584 41.9989 32.4263 40.4005 32.4333 40.3982C32.4403 40.3935 33.0602 39.8748 34.3118 39.3866C34.7709 39.2058 35.3583 39.1589 35.7312 39.1589C35.8617 39.1589 35.9666 39.1636 36.0295 39.173C36.6145 39.241 37.2741 39.6424 38.1084 40.2808C38.1084 40.2808 38.4557 40.5296 38.6398 40.6868C38.8263 40.8464 39.9799 41.8346 40.8842 42.6607L40.9798 42.7499V38.9101L40.9635 38.8937C40.6628 38.5839 40.0382 38.044 39.7912 37.8351ZM38.8169 43.3578C38.6305 43.1912 38.1574 42.811 38.1574 42.811C37.316 42.1702 36.6471 41.7571 36.0202 41.6797C35.9502 41.6703 35.843 41.6656 35.7102 41.6656C35.3256 41.6656 34.7313 41.7149 34.2489 41.9026C32.9833 42.3955 32.3471 42.926 32.3424 42.9283C32.3424 42.9283 31.7504 43.325 31.0419 43.7381C30.3334 44.1535 29.499 44.583 29.0515 44.644C29.0445 44.644 29.0329 44.644 29.0189 44.644C28.8907 44.644 28.5434 44.59 28.1775 44.3553C27.7324 44.0713 26.1825 42.8297 26.1802 42.8274C24.7165 41.7196 24.2108 41.5928 23.8682 41.5459C23.7656 41.5318 23.6654 41.5224 23.5582 41.5248C23.2156 41.5248 22.8217 41.6116 22.1808 41.8557C21.964 41.9402 20.7544 42.5622 20.6728 42.5809H20.6659L19.7336 43.1395C19.4656 43.3085 18.5263 43.9 18.1954 44.0526C17.8784 44.1981 17.5894 44.3201 17.2258 44.3201C17.0114 44.3201 16.769 44.2779 16.4777 44.1676C16.1537 44.0479 15.1632 43.2827 14.9814 43.1184C14.7344 42.9001 14.0725 42.304 13.7229 42.0411C12.7253 41.2947 12.0028 41.2009 11.8537 41.1915C11.8187 41.1915 11.7698 41.1844 11.7092 41.1844C11.4202 41.1844 10.8305 41.283 9.24568 42.128L8.85646 42.3838C6.29508 44.0502 5.25095 45.2238 5.07848 45.3716L5.05984 45.3881V45.4139L5.04119 49.4297L5.13675 49.3452C5.32087 49.1833 6.34402 48.0309 8.90075 46.3668L9.2853 46.1157C10.8585 45.2754 11.4318 45.1886 11.6882 45.1886C11.7441 45.1886 11.7884 45.1932 11.828 45.1956C11.9539 45.2026 12.6554 45.2871 13.6343 46.0218C13.9746 46.2776 14.6411 46.8761 14.8858 47.0944C15.084 47.2704 16.0512 48.0238 16.4194 48.167C16.7201 48.2797 16.9764 48.3266 17.2072 48.3266C17.5964 48.3266 17.9064 48.1952 18.2233 48.0497C18.5706 47.89 19.5052 47.3009 19.7732 47.1296L20.6892 46.5827C20.8546 46.5264 21.9967 45.9349 22.2018 45.8575C22.838 45.6134 23.2156 45.5336 23.5395 45.5336C23.6398 45.5336 23.7353 45.5406 23.8332 45.5547C24.1455 45.5969 24.6909 45.8504 25.3644 46.3997C25.3644 46.3997 25.8469 46.7846 26.2151 47.0827C26.7186 47.4864 28.0983 48.6223 29.1075 48.627C29.1471 48.627 29.189 48.6247 29.2287 48.6223C30.1283 48.5261 32.3657 47.0897 32.3704 47.0873L33.6382 46.348C34.5052 45.8457 35.4259 45.6932 35.7032 45.6885C35.7358 45.6885 35.7661 45.6885 35.7964 45.6885C36.3744 45.6885 36.7986 45.834 38.3765 47.1578L38.7494 47.491C38.9125 47.6413 39.7166 48.2468 40.8796 49.3499L40.9775 49.4415V45.4913L40.9635 45.4749C40.199 44.5807 39.0943 43.616 38.8123 43.3625L38.8169 43.3578ZM12.977 10.9939C12.6671 10.9117 12.1473 10.8812 11.7721 10.8812C11.7628 10.8812 11.7535 10.8812 11.7441 10.8812C11.1452 10.8812 10.7256 11.0502 10.5019 11.4703C10.4413 11.583 10.3924 11.6839 10.3924 11.8036C10.3924 11.8904 10.418 11.9796 10.4739 12.0829C10.5578 12.2355 10.7373 12.442 10.8795 12.5476C10.9168 12.5735 10.9564 12.5805 10.9867 12.5899C11.003 12.5946 11.0146 12.5993 11.0216 12.604C11.0263 12.604 11.024 12.6063 11.0263 12.604C11.0356 12.6204 11.0706 13.01 11.0776 13.064L11.0822 13.1039L11.1219 13.1133C11.1219 13.1133 11.1498 13.118 11.1755 13.1227C11.1871 13.125 11.1988 13.1274 11.2058 13.1297H11.2104L11.25 13.1579L11.285 13.1227C11.3456 13.0616 11.5857 12.8528 11.6299 12.7706C11.6509 12.7213 11.6532 12.6767 11.6532 12.6345C11.6532 12.6087 11.6532 12.5852 11.6532 12.5617C11.6532 12.5336 11.6532 12.5077 11.6626 12.4819C11.6812 12.4021 11.7465 12.2308 11.7931 12.1651C11.8234 12.1111 11.9259 12.0806 12.0075 12.0055C12.0844 11.9257 12.2266 11.7707 12.2266 11.7707C12.2266 11.7707 12.7976 11.3201 12.9444 11.2004C12.977 11.1699 12.984 11.1394 12.991 11.1159C12.9934 11.1042 12.998 11.0948 13.0004 11.0901L13.0913 11.0173L12.9794 10.9868L12.977 10.9939ZM26.003 5.59322C26.2641 5.98987 26.5694 6.35367 26.5694 6.35367C26.6766 6.48746 26.898 6.79962 26.898 6.79962C27.0239 7.00382 27.2243 7.25965 27.2616 7.51079C27.2756 7.59998 27.2802 7.70559 27.2802 7.81356C27.2802 8.10929 27.2429 8.44023 27.2336 8.67025C27.2336 8.67025 27.1754 9.45887 27.1777 9.7546C27.1777 9.82501 27.1707 9.90247 27.1707 9.98462C27.1707 10.2264 27.1893 10.5104 27.2057 10.7427L27.3175 11.6933C27.4014 12.273 27.5319 12.8692 27.6998 13.409C27.793 13.7094 27.9491 14.5121 28.7672 15.4627C29.5806 16.4297 30.366 16.8123 30.373 16.817C31.212 17.3404 32.1536 17.6619 33.3586 17.7722C33.3562 17.7722 33.6266 17.8098 33.9133 17.8286C34.0717 17.838 34.2512 17.8474 34.433 17.8474C34.5775 17.8474 34.7243 17.8427 34.8642 17.8286C35.2044 17.7957 35.3373 17.8098 35.617 17.7652C36.3744 17.6479 37.1855 17.3709 37.8357 17.1221C38.4883 16.8733 39.0826 16.5541 39.0826 16.5518C39.5511 16.256 40.1477 15.8195 40.5253 15.4228C40.8469 15.0848 40.9402 14.8994 41.1103 14.5826C41.2898 14.2516 41.4226 13.74 41.4226 13.7376C41.5322 13.348 41.5881 12.9302 41.5904 12.5195C41.5904 12.0853 41.5275 11.6581 41.3946 11.2755C41.2665 10.9094 41.1592 10.5761 40.9844 10.2522C40.9821 10.2428 40.9821 10.2451 40.9798 10.2428C40.9798 10.2428 40.9798 10.2428 40.9798 10.2404C40.9798 10.2404 40.9798 10.2381 40.9798 10.2358C40.9472 10.1724 40.8143 9.93063 40.6488 9.70766C40.4274 9.40958 40.241 9.23589 40.2386 9.23355C39.4485 8.51769 38.4324 8.12338 37.2717 8.12338C37.1412 8.12338 37.0107 8.12807 36.8778 8.13746C36.4607 8.16797 36.0644 8.32053 35.7358 8.3886L35.3443 8.4684C35.279 8.41207 35.1112 8.21726 35.0623 8.17736C34.7593 7.945 34.3351 7.69621 33.9039 7.60936C33.7944 7.58589 33.6918 7.5765 33.5963 7.5765C33.1465 7.5765 32.8085 7.77601 32.4683 7.8605C31.9975 7.97786 31.5267 8.10695 31.0862 8.19379C30.4662 8.31584 29.8533 8.35574 29.1424 8.41441L29.0562 8.63974C29.0678 8.9472 29.0865 9.05047 29.1051 9.34151C29.1331 9.80154 29.1354 10.2076 29.2123 10.6301C29.2123 10.6301 29.2543 10.7005 29.3056 10.7333C29.3405 10.7451 29.3778 10.7474 29.4198 10.7474C29.6389 10.7474 30.0444 10.6606 30.1586 10.6535C30.9137 10.5972 31.5873 10.5338 32.2981 10.4024C32.4543 10.3719 32.9111 10.2311 33.0975 10.2334C33.1138 10.2334 33.1278 10.2334 33.1348 10.2358H33.1465H33.1581C33.1581 10.2358 33.1581 10.2358 33.1744 10.2358C33.2304 10.2358 33.4122 10.2545 33.6685 10.5104C33.7571 10.5996 34.0065 10.8343 34.3095 11.3271C34.5728 11.752 34.7476 12.719 34.7453 13.7141C34.7453 13.9207 34.7383 14.1272 34.7243 14.3314C34.708 14.5497 34.687 14.8079 34.6684 15.0567L34.6264 15.4744L34.6964 15.4674C35.6123 15.3641 36.5446 15.12 37.1692 14.6905L37.1995 14.6694L37.1948 14.6342C37.1785 14.5168 37.1715 14.3995 37.1715 14.2868C37.1715 13.8057 37.288 13.3386 37.288 12.7847C37.288 12.6978 37.2857 12.6087 37.2787 12.5171C37.2205 11.7332 37.006 11.1722 36.8266 10.5714C37.4861 10.5784 37.8707 10.6794 38.2063 10.9234C38.6888 11.2708 38.9008 11.9726 38.8985 12.4678C38.8985 12.5289 38.8962 12.5875 38.8892 12.6415C38.8892 12.6439 38.8892 12.6486 38.8892 12.6556C38.8892 12.7331 38.8752 13.4278 38.465 14.038C38.2133 14.4159 37.9826 14.6577 37.8148 14.8079C37.6493 14.9557 37.5491 15.0074 37.5514 15.0074C36.7054 15.5801 35.4631 15.8899 34.1999 15.8899C33.4285 15.8899 32.6477 15.7749 31.9462 15.5331C30.7576 15.1271 30.0281 14.2328 29.8416 13.9653C29.6528 13.6954 29.2916 13.0241 29.2916 13.0217C28.9909 12.3012 28.7509 11.0948 28.66 10.1841L28.6017 9.29927C28.6017 9.28049 28.6017 9.25937 28.6017 9.23589C28.6017 8.89557 28.653 8.31818 28.653 7.76662C28.653 7.35353 28.625 6.95453 28.5201 6.66818C28.3873 6.30908 28.0983 6.13539 27.9002 5.89834C27.8 5.77864 27.7301 5.68006 27.6392 5.55097C27.3665 5.1637 27.0122 4.69663 26.9446 4.14272C26.9376 4.09108 26.9353 4.03945 26.9353 3.98781C26.9353 3.67565 27.0472 3.34236 27.2173 3.09122C27.3898 2.83774 27.6182 2.67344 27.8419 2.67579C27.8536 2.67579 27.8652 2.67579 27.8792 2.67579C28.0377 2.68987 28.1286 2.65936 28.3523 2.83774C28.5481 2.99265 28.653 3.37053 28.653 3.77188C28.653 4.11221 28.5784 4.46662 28.4479 4.70602C28.3523 4.8797 28.1869 5.08625 28.0424 5.22238L27.7743 5.443L27.8116 5.4876C28.0237 5.75047 28.3057 6.02743 28.6064 6.20581L28.6367 6.22458L28.667 6.20581C28.7136 6.17295 28.9909 5.88895 29.1448 5.65894C29.2916 5.43831 29.4081 5.20829 29.4081 5.20829C29.5363 4.93838 29.6948 4.60509 29.774 4.27415C29.8346 4.00893 29.8626 3.70851 29.8626 3.40339C29.8626 2.84478 29.7717 2.27209 29.6342 1.86839C29.5736 1.6994 29.3848 1.42714 29.3592 1.31448L29.2729 1.11028C29.2333 1.04456 29.189 0.94364 29.1611 0.884962C29.0609 0.683113 29.0166 0.528205 28.921 0.324009C28.9 0.288803 28.8837 0.14563 28.8231 0.0752177C28.7905 0.054094 28.7812 0.0564411 28.7719 0.0564411C28.7672 0.0564411 28.7625 0.0564411 28.7579 0.0564411C28.7299 0.0564411 28.6879 0.0587881 28.66 0.0611352L28.6274 0.00245809L28.5761 0.0869532C28.3873 0.394421 28.2544 0.650254 28.0703 0.960069C28.0051 1.06804 27.9025 1.19947 27.8186 1.32152C27.6718 0.99997 27.525 0.699543 27.4061 0.471875C27.3408 0.345133 27.2826 0.241861 27.236 0.166754C27.1824 0.0893003 27.1684 0.0470527 27.1078 0.0188877C27.0938 0.0141935 27.0775 0.0118464 27.0658 0.0118464C27.0285 0.0118464 26.9866 0.0188877 26.9656 0.0188877H26.9633L26.9003 -0.00927734L26.884 0.0587881C26.7395 0.659642 26.7069 1.11967 26.5135 1.55623L26.32 1.9435C26.2617 2.06085 26.1708 2.17586 25.9821 2.4669L25.6581 2.99734C25.5206 3.2344 25.3598 3.59585 25.3598 4.00424C25.3598 4.07231 25.3644 4.14037 25.3738 4.20844C25.4483 4.73418 25.7676 5.18952 26.0263 5.58148L26.003 5.59322ZM41.5694 27.7943L41.5811 27.8131L41.5764 27.8365C41.5764 27.8365 41.383 28.6721 40.8073 28.7801C40.4181 28.8458 39.8191 28.9772 39.4835 28.9772C39.3949 28.9772 39.3204 28.9725 39.2644 28.9373C39.2365 28.9561 39.1968 28.989 39.2038 29.0124C39.2038 29.0218 39.2085 29.0383 39.2271 29.0641C39.3483 29.2166 39.4392 29.3974 39.4695 29.5851C39.4835 29.6837 39.5791 29.9724 39.5791 30.4136C39.5791 30.6742 39.5488 30.991 39.4509 31.3595L39.5371 31.4276C39.7981 31.6365 39.8448 31.7022 39.8424 31.6999C40.0918 31.9111 40.6675 32.4392 40.9681 32.7467L40.9844 32.7631V36.5137L40.8842 36.4128C40.5882 36.11 39.945 35.5045 39.7026 35.3003C39.7026 35.3003 38.7936 34.5656 38.6235 34.4459C38.444 34.3215 37.8008 33.831 37.0526 33.3733C36.4607 33.0119 36.2183 32.9344 35.8827 32.918C35.8337 32.9156 35.7824 32.9133 35.7312 32.9133C35.1648 32.9133 34.3747 33.0776 32.9134 33.9132C32.6128 34.0845 31.508 34.7816 31.2866 34.9294C30.7902 35.258 30.3264 35.7345 29.4734 35.927C29.4361 35.934 29.3965 35.9387 29.3522 35.9387C29.0189 35.9363 28.4386 35.7016 27.3502 34.852L27.0751 34.6196C25.6534 33.4226 24.8261 32.9814 23.9521 32.9321L23.8682 32.9274C23.8682 32.9274 23.8612 32.9274 23.8588 32.9274C23.8309 32.9274 23.7889 32.9321 23.7493 32.9321C23.7493 32.9321 23.7446 32.9321 23.74 32.9321H23.7307C23.4114 32.9321 22.6213 33.209 22.0433 33.4672C21.0434 33.9108 20.2766 34.2652 19.4213 34.7417L18.7897 35.1031C18.4867 35.2979 17.7129 35.7181 17.3307 35.7228C16.769 35.7228 16.3705 35.4176 15.4336 34.6783L15.2168 34.5023C14.3381 33.7747 13.0982 32.7795 11.9609 32.7279C11.9189 32.7255 11.8793 32.7232 11.8374 32.7232C10.6953 32.7232 9.50438 33.4437 9.09652 33.6691C8.80519 33.8287 8.23418 34.1901 8.08036 34.2887C7.92886 34.3849 6.48386 35.3144 5.14141 36.4504L5.04585 36.5302V32.8499L5.06683 32.8335C6.4186 31.6928 7.9312 30.7774 8.08502 30.6789C8.23884 30.5826 8.80985 30.2212 9.10817 30.0569C9.51604 29.8339 10.7187 29.0969 11.905 29.0969C11.9492 29.0969 11.9912 29.0969 12.0331 29.1016C12.3548 29.1157 12.6135 29.1861 12.8885 29.287L12.9304 29.226L13.4642 28.6533C13.7998 28.3271 14.189 27.9797 14.4733 27.9703C14.4896 27.9703 14.506 27.9703 14.5223 27.975C14.5735 27.9234 14.5759 27.7943 14.7786 27.5713C14.9814 27.3484 15.0816 27.3484 15.2611 27.0479C15.2611 26.9799 15.2611 26.7358 15.3054 26.6278C15.317 26.5691 15.4545 25.9072 15.4545 25.2031C15.4545 25.1304 15.4545 25.0576 15.4499 24.9872C15.2168 25.4895 14.5805 26.7311 13.858 26.7498C13.8371 26.7498 13.8184 26.7498 13.7974 26.7475C12.8955 26.6489 12.6787 25.8533 12.173 24.0319C12.173 24.0319 12.173 24.0038 12.1497 23.9521C12.1287 23.9005 12.0844 23.8277 11.9958 23.7526C11.8164 23.6024 11.4505 23.4428 10.707 23.4428C10.4343 23.4428 10.1127 23.4639 9.72813 23.5156L9.70948 23.6705C9.84699 23.7151 10.2735 23.8582 10.7023 24.0577C11.2197 24.3042 11.7535 24.607 11.7674 24.9895C11.7674 25.0881 11.8607 25.3838 11.8607 25.8134C11.8607 26.4729 11.6393 27.4704 10.5415 28.7355C10.5415 28.7355 10.3201 28.9843 10.1966 29.1134C10.1919 29.1134 10.094 29.2401 9.94721 29.2448C9.88195 29.2448 9.8097 29.2119 9.75842 29.1368C9.68617 29.0312 9.38319 28.7378 9.38319 28.7402C9.38319 28.7378 9.19674 28.5665 9.16644 28.5289H9.16411C9.16411 28.5289 9.14546 28.5172 9.13148 28.5078C9.10351 28.4914 9.06156 28.4656 9.01262 28.4374C8.9124 28.3811 8.77722 28.306 8.62806 28.2238C8.32974 28.0572 7.97315 27.8624 7.73076 27.7145C7.56528 27.6065 7.4674 27.5643 7.42778 27.4774C7.42778 27.4774 7.40913 27.4634 7.39282 27.4516C7.36019 27.4305 7.31357 27.4023 7.25764 27.3695C7.14577 27.3061 6.99428 27.2287 6.84744 27.1442C6.56544 26.9775 6.2741 26.8132 6.23448 26.6043C6.1902 26.5668 6.07367 26.4682 6.03871 26.4166L6.03405 26.4095V26.4001C6.03405 26.4001 5.85925 25.8321 5.78467 25.0881C5.75903 25.013 5.54228 24.4051 5.54228 23.9944C5.54228 23.9498 5.54461 23.9075 5.5516 23.8676C5.52597 23.8207 5.47236 23.6986 5.47236 23.5062C5.47236 23.3654 5.50033 23.1893 5.58656 22.9757C5.8173 22.403 5.67979 22.7316 5.77068 22.3021C5.8406 21.9759 6.21118 21.2835 6.39064 20.9572L6.48386 20.7906L6.48852 20.7836C6.48852 20.7836 6.49319 20.7765 6.49552 20.7718C6.50484 20.7507 6.5095 20.7437 6.5095 20.7437C6.5095 20.739 6.51416 20.7343 6.51882 20.7319C6.57942 20.6404 6.71926 20.469 6.96631 20.3986C7.29493 20.3212 10.5252 20.1592 10.9517 18.974C10.7373 19.0444 10.2502 19.204 10.1406 19.2063C10.1406 19.2063 10.136 19.2063 10.1337 19.2063C10.1337 19.2063 10.1313 19.2063 10.129 19.2087C10.1173 19.2181 10.0987 19.2345 10.0777 19.2533C10.0334 19.2932 9.9775 19.3471 9.90759 19.4011C9.76775 19.5091 9.58362 19.6241 9.37154 19.6264C9.30162 19.6264 9.2317 19.6147 9.15945 19.5842C9.13614 19.5912 9.09652 19.6006 9.04291 19.6006C8.88676 19.6006 8.6234 19.5232 8.29012 19.1476C8.29012 19.1406 7.91255 18.6102 7.90789 18.2886C7.90789 18.2675 7.90789 18.2464 7.91488 18.2252C7.84496 18.1243 7.56062 17.7136 7.49536 17.5774C7.44176 17.5117 7.00593 16.9813 6.87308 16.3945C6.76121 16.4837 6.53281 16.6245 6.19486 16.6245C5.83827 16.6245 5.37214 16.4673 4.8058 15.9486L4.79647 15.9415L4.79181 15.9298C4.79181 15.9298 4.79181 15.9298 4.78249 15.9157C4.77317 15.904 4.75452 15.8852 4.72655 15.8664C4.66829 15.8265 4.55875 15.7843 4.36297 15.7843C4.23945 15.7843 4.08096 15.803 3.8782 15.85L3.83392 15.8594L3.6498 15.5073L3.67776 15.4768C3.67776 15.4768 3.77798 15.3688 3.9015 15.0661C4.02503 14.7633 4.16953 14.2704 4.23945 13.5193C4.23945 13.5193 4.25343 13.4207 4.28606 13.2705C4.36763 12.8927 4.55875 12.1862 4.96661 11.8341C4.79647 11.6229 4.12292 10.7193 4.12059 9.62316C4.12059 8.80872 4.50281 7.89101 5.72407 7.10005L5.77068 7.06953L5.94082 7.31598V7.33006C5.94082 7.33006 6.05502 8.46605 6.9127 8.7477C6.98495 8.77117 7.04555 8.78056 7.09682 8.78056C7.18772 8.78056 7.23899 8.75709 7.25764 8.74535C7.33921 8.63035 8.13396 7.55069 9.3995 7.54834C9.49506 7.54834 9.59295 7.55538 9.69317 7.56712H9.70249L9.71181 7.57181C9.71181 7.56946 9.72346 7.57885 9.75609 7.57885C9.81902 7.57885 9.96119 7.54599 10.136 7.24557C10.2036 7.12821 10.2362 6.99443 10.2362 6.85595C10.2362 6.47572 9.98683 6.06029 9.47408 5.89599L9.43446 5.88426V5.52515L9.47642 5.51342C9.47642 5.51342 10.1849 5.32095 11.031 5.32095C11.4901 5.32095 11.9889 5.37729 12.4387 5.55566C13.315 5.89834 13.9909 6.41704 14.1587 7.66569C14.6411 7.51548 17.6057 6.59308 18.263 6.59073C18.3002 6.59073 18.3305 6.59308 18.3445 6.60012C18.3469 6.60012 22.5071 6.75502 26.8654 8.3088L26.905 8.32288C26.905 8.32288 26.6789 9.45652 26.8258 10.6465C26.8258 10.6629 26.7558 10.6301 26.7558 10.6301C26.7558 10.6301 25.8399 10.4141 24.861 10.1959C23.8798 9.97757 22.831 9.76164 22.5677 9.76164C22.5607 9.76164 22.5537 9.76164 22.5467 9.76164V9.76634L22.5141 9.77572C22.5141 9.77572 22.4208 9.80389 22.3299 9.84848C22.2344 9.89073 22.1621 9.96349 22.1691 9.98931C22.1691 10.1184 22.2787 10.7028 23.4696 12.8668L23.5326 12.9818L22.4185 12.7213H21.449L21.4373 12.6791C21.4373 12.6791 21.1809 11.7003 20.4375 10.6676C19.6916 9.6349 18.4657 8.55289 16.5243 8.34165C16.4987 8.33931 16.4707 8.33696 16.4404 8.33696C15.7132 8.33696 13.6273 9.0716 13.625 9.07395C13.6203 9.07395 13.0073 9.27345 12.7673 9.27345C12.7463 9.27345 12.7277 9.27345 12.709 9.26875L12.6578 9.25467L12.6671 9.20069C12.6671 9.20069 12.7207 8.9073 12.7207 8.51299C12.716 7.74549 12.5202 6.63767 11.3572 6.49215C11.5227 6.70104 11.8537 7.18219 11.856 7.71968C11.856 8.09991 11.6812 8.50595 11.1615 8.83924C11.1591 8.83924 10.5998 9.01996 10.2012 9.02231C10.0754 9.02231 9.96352 9.00588 9.87962 8.9472C9.85631 8.93077 9.80737 8.91669 9.73745 8.91669C9.32026 8.9073 8.32508 9.36968 8.19456 9.66072C8.00111 10.048 7.54664 10.2381 7.08983 10.2381C7.05487 10.2381 7.01991 10.2381 6.98495 10.2358C6.3953 10.1888 5.82196 9.48234 5.62618 9.22181C5.60288 9.31804 5.57491 9.4706 5.57491 9.65602C5.57957 10.2451 5.84294 11.1582 7.4674 11.6323L7.56062 11.6581L7.3229 11.8975H7.30192C7.30192 11.8975 7.14111 11.9092 6.96631 11.9374C6.79384 11.9632 6.6004 12.0242 6.56777 12.0759C6.56777 12.0759 6.15058 12.5054 6.08299 12.7847C6.06202 12.8715 5.92917 13.4419 5.92917 13.4442C5.79865 13.923 5.57724 14.3385 5.44206 14.5403C5.50033 14.5427 5.57957 14.5473 5.67513 14.5473C6.29042 14.5473 7.50702 14.4112 7.66317 13.4184L7.67016 13.3808L8.07337 13.2799L8.08502 13.3386C8.08502 13.3386 8.41597 14.8783 8.49521 15.0168C8.5931 15.1341 9.15945 16.2654 9.1711 16.6034C9.1711 16.6245 9.1711 16.6456 9.16178 16.6691C9.15012 16.6973 9.14313 16.7395 9.14313 16.7912C9.14313 16.9625 9.20839 17.1925 9.21072 17.3333C9.21072 17.3545 9.21072 17.3756 9.2014 17.3991C9.20606 17.4249 9.3156 17.5657 9.44845 17.6643C9.5813 17.7793 9.75609 17.8755 9.78406 17.8685C9.8936 17.8286 11.1615 17.0118 12.6578 17.0141C12.716 17.0141 12.7743 17.0141 12.8325 17.0188C12.8745 16.9813 12.998 16.8569 13.1379 16.6011C13.308 16.2865 13.4945 15.7819 13.5527 15.0144C13.6296 13.9934 13.7438 13.1274 13.7462 13.125C13.7462 13.1203 13.7252 12.8973 13.6902 12.6626C13.6623 12.4444 13.6063 12.1979 13.576 12.151C13.5714 12.151 13.5667 12.151 13.5457 12.1416C13.5411 12.1369 13.5201 12.1322 13.5178 12.0923C13.5224 12.0501 13.5434 12.0454 13.5457 12.0407C13.5527 12.036 13.555 12.036 13.5574 12.036C13.562 12.036 13.5644 12.036 13.5644 12.036C13.5667 12.036 13.569 12.036 13.5714 12.036C13.576 12.036 13.583 12.036 13.59 12.036C13.604 12.036 13.625 12.0336 13.6553 12.0313C13.7089 12.0289 13.7904 12.0242 13.8883 12.0195C14.0888 12.0101 14.3661 11.9961 14.6831 11.982C15.4708 11.9515 16.2027 11.5102 16.2889 11.3178C16.2912 11.3131 16.2936 11.3037 16.2936 11.2919C16.3006 11.1981 16.1304 10.9305 15.7762 10.7122C15.4219 10.4892 14.8882 10.2991 14.1727 10.2991C14.0561 10.2991 13.9326 10.3038 13.8068 10.3156H13.7718L13.4408 9.7945L13.5178 9.77572C13.5178 9.77572 14.0725 9.63255 14.8066 9.63255C15.5128 9.63255 16.3914 9.76399 17.107 10.2897C17.107 10.2897 17.2748 10.4141 17.4985 10.5409C17.7246 10.6676 18.0043 10.7944 18.2303 10.792C18.2653 10.792 18.3002 10.7897 18.3305 10.7826L18.3818 10.7732L18.4914 11.1065L18.4401 11.1276C18.4401 11.1276 18.1581 11.2403 18.0905 11.4774C18.0392 11.6487 18.193 11.8599 17.1489 12.9372C17.1442 12.9419 16.5802 13.4325 15.6946 13.4372C15.6899 13.7775 15.6223 15.4979 14.6738 16.655C14.6668 16.6597 13.9443 17.5845 13.8347 17.6572C13.8277 17.6572 13.6716 17.8474 13.5317 18.0187C13.3756 18.1947 13.2567 18.3637 13.1262 18.3801C13.0027 18.4576 12.3338 18.8707 11.7348 18.873H11.7138V18.8848C11.7138 19.0538 11.7488 19.5537 12.0728 20.4479L12.0867 20.4902L12.0518 20.516C12.0518 20.516 11.7628 20.7225 11.0985 20.9901L10.9424 21.0417C10.2269 21.3281 9.255 21.6262 8.3041 21.6285C8.16892 21.6285 8.03374 21.6238 7.9009 21.6097C7.85195 21.7365 7.70046 22.1331 7.54897 22.5392C7.37417 22.9969 7.19937 23.4921 7.18539 23.5461C7.20403 23.6212 7.26696 23.9263 7.26696 24.0836C7.26696 24.1141 7.26696 24.1375 7.25298 24.1681C7.25298 24.1681 7.25298 24.1704 7.25298 24.1727C7.24599 24.3277 7.54664 25.4707 7.60257 25.52C7.64919 25.5904 8.16426 25.7265 8.52085 26.0363C8.5931 26.0997 8.61641 26.1208 8.62806 26.1326C8.62806 26.1396 8.63272 26.1232 8.64204 26.1678C8.64204 26.1678 8.64204 26.1537 8.63738 26.149C8.63738 26.149 8.64204 26.1584 8.64204 26.1678C9.0266 26.5104 9.24801 26.602 9.53934 26.9306C9.544 26.9259 9.551 26.9188 9.56032 26.9095C9.5813 26.8836 9.6046 26.8437 9.62558 26.8015C9.66287 26.7264 9.6955 26.6395 9.71181 26.5879L9.69783 26.5809C9.69783 26.5809 10.0125 25.8181 10.0078 25.6256C10.0078 25.6162 10.0078 25.6092 10.0078 25.6068L9.99382 25.5904V25.5669C9.99382 25.5669 9.99848 25.5481 9.99848 25.5129C9.99848 25.3627 9.95886 24.959 9.53468 24.7079C9.28996 24.5624 9.06855 24.438 8.66069 24.3652L8.60941 24.3558L8.63971 23.7221C8.63971 23.7221 8.67001 22.9969 8.85879 22.7575C8.86112 22.7035 8.87278 22.572 9.00796 22.5345C9.09186 22.5251 9.57663 22.3326 9.8936 22.3162C10.1873 22.3021 11.1125 22.058 11.1941 22.0533C11.2221 22.0533 11.5204 22.0533 11.8187 22.0604C12.1287 22.0721 12.4037 22.0721 12.4946 22.1214C12.5995 22.1989 13.0493 22.6706 13.1239 22.9241C13.1752 23.1259 13.4758 23.6188 13.5248 23.7291C13.555 23.8136 13.8487 24.2619 14.1074 24.2479C14.1191 24.2479 14.1307 24.2479 14.1424 24.2479C14.4454 24.208 15.056 23.9357 16.0046 22.342L16.0209 22.3139H16.2236L16.233 22.3186C16.2609 22.3279 16.79 22.565 16.7877 24.2009C16.7877 24.7971 16.7201 25.5833 16.5313 26.6161C16.5429 26.6794 16.6035 27.0362 16.6035 27.1606C16.6035 27.1723 16.6035 27.1817 16.6012 27.1958C16.5849 27.2709 16.3705 28.1745 15.8834 28.7261L15.8601 28.7613C15.8228 28.8012 15.8041 28.8106 15.7785 28.8364L15.7692 28.8458L15.7575 28.8505C15.7575 28.8505 15.4102 28.9678 15.324 28.996C15.2588 29.0124 14.7763 29.2941 14.7344 29.3903C14.6714 29.5053 14.3754 29.9137 14.2729 30.0545C14.6505 30.3151 14.8952 30.423 15.2168 30.6883L15.7389 31.0591C15.9906 31.2586 16.0675 31.2656 16.2493 31.3924C16.4031 31.1882 17.0417 30.3245 17.0347 29.855C17.0347 29.7447 17.0021 29.6649 16.9298 29.6109L16.8925 29.5828L17.3074 28.5947C17.5125 28.2473 17.7339 28.0032 17.939 27.9844C17.9437 27.9844 18.0555 27.9962 18.3329 28.0642C18.3935 28.0783 18.4541 28.0853 18.5147 28.0853C18.7361 28.0853 18.9645 27.9915 19.2908 27.9281C19.356 27.914 19.3793 27.8718 19.384 27.7638C19.384 27.6018 19.2954 27.3484 19.1812 27.1395C19.0717 26.9282 18.9179 26.7616 18.8713 26.7639H18.8573L18.8456 26.7522C18.8316 26.7428 18.4587 26.4541 18.3422 25.4026C18.3189 25.3486 18.2024 25.0693 18.2024 24.6868C18.2024 24.5647 18.214 24.4286 18.2466 24.2901C18.3842 23.6775 18.6755 23.2104 18.6708 23.2175C18.6755 23.2128 18.778 22.9053 18.9458 22.7997C18.9785 22.7856 18.9855 22.734 18.9994 22.6307C19.0134 22.5321 19.0507 22.3984 19.1882 22.2833C19.2628 22.2317 19.5145 21.6074 19.7173 20.9455C19.7173 20.9455 20.2277 18.9998 20.2254 18.8097V18.7956V18.7838L20.279 18.6008L20.3279 18.6055C20.3279 18.6055 20.4048 18.6125 20.5423 18.6125C20.9595 18.6125 21.9151 18.5374 22.8683 17.9342L22.9079 17.9107L22.9406 17.9436L23.0804 18.0844L23.0688 18.1196C23.0688 18.1196 22.6912 19.2157 22.4535 19.9316C22.26 20.516 22.0479 20.9643 22.0456 20.9643C21.6634 21.7717 21.1553 22.6448 20.547 23.2832C20.505 23.478 20.1088 25.3838 19.9713 25.6561C19.9643 25.6631 19.962 25.6725 19.9573 25.6819C19.962 25.6937 19.9713 25.7101 19.9806 25.7312C20.004 25.7758 20.0366 25.8392 20.0785 25.9143C20.1601 26.0645 20.2696 26.264 20.3792 26.4964C20.6006 26.9587 20.822 27.5408 20.822 28.083C20.822 28.1135 20.822 28.1417 20.822 28.1722C20.8267 28.1886 20.8313 28.2285 20.8313 28.2801C20.8313 28.3952 20.7987 28.5782 20.6262 28.7331L20.5796 28.7777C20.5237 28.8317 20.4911 28.8575 20.3372 28.9115C20.1927 28.9655 20.0203 28.9772 19.8385 28.9772C19.638 28.9772 19.4236 28.9608 19.2255 28.9608C18.8829 28.9608 18.6056 29.0101 18.4984 29.2237C18.5147 29.2706 18.5496 29.388 18.6079 29.6321C18.6289 29.7236 18.6429 29.8339 18.6429 29.9654C18.6429 30.3221 18.5403 30.8408 18.2047 31.6764L18.1977 31.7186C18.4447 31.5966 18.6988 31.444 18.8316 31.3572L19.5611 30.9699C20.4188 30.4911 21.0458 30.1531 22.0479 29.7072C22.5374 29.4889 23.2529 29.1814 23.9008 29.1791L23.9754 29.1744C24.1082 29.1744 24.2364 29.1885 24.3506 29.2166L24.4438 29.2307C24.5138 29.1533 24.7515 28.9021 25.0778 28.6533L25.1104 28.6252C25.3621 28.4327 25.6581 28.2496 25.9494 28.1698C25.9867 28.0501 26.1405 27.6112 26.4598 27.0644C26.4668 27.0385 26.4948 26.9188 26.4948 26.8132C26.4948 26.7545 26.4832 26.7029 26.4668 26.6841C26.3759 26.5527 26.2105 25.9565 26.2058 25.7077C26.2081 25.6631 26.2035 25.6232 26.2501 25.5833C26.3387 25.5247 27.4014 24.7994 27.9678 24.6163L27.9841 24.6117L28.0004 24.6163C28.0191 24.6163 28.1636 24.6797 28.1589 24.9332C28.1589 25.0905 28.1449 25.2735 28.1449 25.4144C28.1449 25.4848 28.1496 25.5481 28.1566 25.5904C28.1752 25.7007 28.3663 26.0387 28.3687 26.2617C28.3687 26.2898 28.3663 26.318 28.357 26.3462C28.3034 26.5081 28.1729 27.3343 27.7743 27.9586C27.5599 28.2966 27.4504 28.5242 27.3781 28.7003L27.3618 28.7284C27.3035 28.8716 27.2919 28.9373 27.2453 29.0312L27.222 29.0758L27.1754 29.0594C27.1754 29.0594 27.159 29.0523 27.1078 29.0523C27.0635 29.0523 26.9982 29.0594 26.9073 29.0829C26.609 29.1603 26.2338 29.4584 25.9238 29.8198C25.9401 29.8316 25.9611 29.8504 25.9891 29.8691C26.0543 29.9137 26.1452 29.9747 26.2548 30.0452C26.4715 30.186 26.7488 30.3667 26.9936 30.5568C27.3292 30.8244 27.6764 31.1694 27.8046 31.3008L27.8256 31.268C28.1519 30.7728 28.2358 30.4301 28.2358 30.2095C28.2358 30.0804 28.2055 29.9912 28.1799 29.9348C28.1519 29.8785 28.1309 29.8597 28.1309 29.8597L28.0843 29.8175L28.1286 29.7729C28.2335 29.679 28.2847 29.2612 28.6064 28.7942C28.6623 28.7144 28.7416 28.658 28.8324 28.6158L28.8604 28.604C29.0236 28.5313 29.217 28.5078 29.4058 28.5078C29.7554 28.5078 30.0863 28.5876 30.1493 28.6017L30.1842 28.6064C30.2122 28.5501 30.2285 28.4773 30.2262 28.3928C30.2355 27.9727 29.8393 27.2873 29.8043 27.2779C29.6948 27.1841 29.5806 26.7874 29.5713 26.5527C29.5736 26.4917 29.5736 26.4306 29.6365 26.3931C29.6528 26.3861 29.6645 26.3626 29.6645 26.318C29.6645 26.2523 29.6365 26.1748 29.6365 26.1748L29.6202 26.1302L29.6598 26.1044C30.3311 25.6819 31.0233 24.5154 31.1701 24.2572C30.7529 24.0225 30.394 23.6846 30.3054 23.5977C29.1984 23.7479 27.7114 24.4004 26.5065 25.02C25.2899 25.6444 24.3553 26.2288 24.3646 26.2218C23.9474 26.67 23.4906 26.8226 23.1387 26.8226C22.8567 26.8226 22.6353 26.7311 22.5444 26.5926C22.4651 26.4705 22.3952 26.3931 22.3463 26.3485C22.3276 26.3297 22.3113 26.318 22.2996 26.3086C22.0456 26.44 21.5002 26.7475 21.2042 26.7522C21.1436 26.7522 20.8593 26.7334 20.8546 26.6442C20.8546 26.6278 20.8663 26.5856 20.8663 26.5715C20.8756 26.3227 20.5283 25.9636 20.519 25.6585C20.519 25.6232 20.526 25.588 20.5493 25.5575C20.5913 25.5153 20.7637 24.6915 20.8546 24.2901C20.9455 23.8864 20.9991 23.4991 20.9991 23.5015L21.2252 23.2621C21.4513 23.2856 21.5399 23.309 22.0782 23.309C22.8334 23.309 23.8192 23.2386 24.8237 22.9593C26.6043 22.4688 28.8581 21.3915 29.3102 21.1356C29.3149 21.1356 29.7647 20.8328 30.2052 20.8305C30.3357 20.8305 30.4662 20.8587 30.5851 20.9338C30.5851 20.9338 31.4591 21.5534 31.9835 22.2857C31.9835 22.2857 32.2585 22.68 32.7946 23.079C33.3306 23.4757 34.1184 23.8723 35.1438 23.8723C35.2441 23.8723 35.3466 23.8676 35.4538 23.8606C35.547 23.8535 35.6356 23.8489 35.7195 23.8489C37.2228 23.8442 37.1482 24.9919 37.2438 25.7312C37.2438 25.7312 37.3253 25.973 37.4232 26.2288C37.5141 26.4752 37.6306 26.7522 37.6726 26.7991C37.6819 26.8015 37.6936 26.8085 37.7006 26.8179C37.7145 26.8343 37.7169 26.8508 37.7169 26.8602C37.7029 26.9681 37.5234 27.1864 37.323 27.5033C37.1226 27.806 36.9058 28.1604 36.8429 28.3811C36.8079 28.482 36.7194 28.4843 36.6308 28.5125C36.5352 28.5383 36.4071 28.5829 36.2276 28.7191L36.1484 28.7801C36.0015 28.8927 35.7824 29.0688 35.6473 29.2894C35.7242 29.2847 35.8267 29.28 35.9036 29.28C35.9223 29.28 35.9386 29.28 35.9549 29.28C36.3185 29.2988 37.0387 29.6016 37.8357 30.2376C37.9313 30.0874 37.9639 29.8809 37.9639 29.6837C37.9639 29.4161 37.908 29.172 37.8917 29.111C37.8357 29.0547 37.8148 28.9772 37.8148 28.9021C37.8218 28.5172 38.3019 27.9656 38.3042 27.9586L38.3112 27.9492L38.6421 27.7826H38.6561C38.6748 27.7826 38.6958 27.7826 38.7144 27.7826C39.3297 27.7826 39.656 27.4422 39.7609 27.3085C39.5674 27.1841 39.3856 26.7991 39.1992 26.4166C38.9987 25.9847 38.8403 25.5646 38.8403 25.5622V25.5528L38.8379 25.5411C38.8333 22.4265 38.5536 22.227 38.3811 21.8773C38.3531 21.7905 37.9336 21.6097 37.5444 21.49C37.1505 21.3633 36.7753 21.2694 36.766 21.2647C34.8782 20.4503 34.8245 18.4834 34.8245 18.2675C34.8245 18.2534 34.8245 18.1947 34.8292 18.1947C36.4677 18.2792 37.5887 17.6126 37.5887 17.6126L37.5957 17.7159C37.5957 17.7159 37.6306 18.0328 37.8381 18.6641C38.0432 19.2955 38.4207 20.0348 39.092 20.4878C39.1642 20.5089 39.6723 20.6592 39.945 20.7953C40.0405 20.8516 40.1198 20.8751 40.1338 20.976C40.1361 20.976 40.1338 20.976 40.1431 20.9878C40.1547 21.0018 40.178 21.023 40.2037 21.0511C40.2573 21.1098 40.3342 21.2013 40.4064 21.3609C40.5509 21.6778 40.6885 22.2599 40.6885 23.4099C40.6885 23.5672 40.6885 23.7338 40.6815 23.9122C40.6745 24.1094 40.6721 24.2948 40.6721 24.4685C40.6745 26.7452 41.1592 27.0597 41.5671 27.7755L41.5694 27.7943Z" fill="white"/>
</svg>
