<svg width="364" height="87" viewBox="0 0 364 87" fill="none" xmlns="http://www.w3.org/2000/svg" aria-hidden="true" focusable="false">
<path d="M91.8498 33.38C91.8498 32.44 91.9498 31.53 92.1498 30.65C92.3698 29.77 92.7098 28.99 93.1698 28.31C93.6298 27.61 94.2298 27.06 94.9698 26.66C95.7098 26.24 96.6098 26.03 97.6698 26.03C98.7298 26.03 99.6298 26.24 100.37 26.66C101.11 27.06 101.71 27.61 102.17 28.31C102.63 28.99 102.96 29.77 103.16 30.65C103.38 31.53 103.49 32.44 103.49 33.38C103.49 34.28 103.38 35.16 103.16 36.02C102.96 36.86 102.63 37.62 102.17 38.3C101.71 38.98 101.11 39.53 100.37 39.95C99.6298 40.35 98.7298 40.55 97.6698 40.55C96.6098 40.55 95.7098 40.35 94.9698 39.95C94.2298 39.53 93.6298 38.98 93.1698 38.3C92.7098 37.62 92.3698 36.86 92.1498 36.02C91.9498 35.16 91.8498 34.28 91.8498 33.38ZM87.1398 33.38C87.1398 34.94 87.3798 36.4 87.8598 37.76C88.3398 39.1 89.0298 40.27 89.9298 41.27C90.8298 42.27 91.9298 43.06 93.2298 43.64C94.5498 44.2 96.0298 44.48 97.6698 44.48C99.3298 44.48 100.81 44.2 102.11 43.64C103.41 43.06 104.51 42.27 105.41 41.27C106.31 40.27 107 39.1 107.48 37.76C107.96 36.4 108.2 34.94 108.2 33.38C108.2 31.78 107.96 30.3 107.48 28.94C107 27.56 106.31 26.36 105.41 25.34C104.51 24.32 103.41 23.52 102.11 22.94C100.81 22.36 99.3298 22.07 97.6698 22.07C96.0298 22.07 94.5498 22.36 93.2298 22.94C91.9298 23.52 90.8298 24.32 89.9298 25.34C89.0298 26.36 88.3398 27.56 87.8598 28.94C87.3798 30.3 87.1398 31.78 87.1398 33.38Z" fill="black"/>
<path d="M114.929 35.84L109.349 44H114.119L117.359 39.11L120.599 44H125.459L119.729 35.75L124.829 28.49H120.119L117.419 32.54L114.689 28.49H109.829L114.929 35.84Z" fill="black"/>
<path d="M128.013 31.34V44H132.273V31.34H135.213V28.49H132.273V27.56C132.273 26.92 132.393 26.47 132.633 26.21C132.893 25.93 133.313 25.79 133.893 25.79C134.433 25.79 134.953 25.82 135.453 25.88V22.7C135.093 22.68 134.723 22.66 134.343 22.64C133.963 22.6 133.583 22.58 133.203 22.58C131.463 22.58 130.163 23.02 129.303 23.9C128.443 24.78 128.013 25.91 128.013 27.29V28.49H125.463V31.34H128.013Z" fill="black"/>
<path d="M140.853 36.26C140.853 35.64 140.913 35.03 141.033 34.43C141.153 33.83 141.353 33.3 141.633 32.84C141.933 32.38 142.323 32.01 142.803 31.73C143.283 31.43 143.883 31.28 144.603 31.28C145.323 31.28 145.923 31.43 146.403 31.73C146.903 32.01 147.293 32.38 147.573 32.84C147.873 33.3 148.083 33.83 148.203 34.43C148.323 35.03 148.383 35.64 148.383 36.26C148.383 36.88 148.323 37.49 148.203 38.09C148.083 38.67 147.873 39.2 147.573 39.68C147.293 40.14 146.903 40.51 146.403 40.79C145.923 41.07 145.323 41.21 144.603 41.21C143.883 41.21 143.283 41.07 142.803 40.79C142.323 40.51 141.933 40.14 141.633 39.68C141.353 39.2 141.153 38.67 141.033 38.09C140.913 37.49 140.853 36.88 140.853 36.26ZM136.593 36.26C136.593 37.5 136.783 38.62 137.163 39.62C137.543 40.62 138.083 41.48 138.783 42.2C139.483 42.9 140.323 43.44 141.303 43.82C142.283 44.2 143.383 44.39 144.603 44.39C145.823 44.39 146.923 44.2 147.903 43.82C148.903 43.44 149.753 42.9 150.453 42.2C151.153 41.48 151.693 40.62 152.073 39.62C152.453 38.62 152.643 37.5 152.643 36.26C152.643 35.02 152.453 33.9 152.073 32.9C151.693 31.88 151.153 31.02 150.453 30.32C149.753 29.6 148.903 29.05 147.903 28.67C146.923 28.27 145.823 28.07 144.603 28.07C143.383 28.07 142.283 28.27 141.303 28.67C140.323 29.05 139.483 29.6 138.783 30.32C138.083 31.02 137.543 31.88 137.163 32.9C136.783 33.9 136.593 35.02 136.593 36.26Z" fill="black"/>
<path d="M155.413 28.49V44H159.673V37.01C159.673 36.31 159.743 35.66 159.883 35.06C160.023 34.46 160.253 33.94 160.573 33.5C160.913 33.04 161.353 32.68 161.893 32.42C162.433 32.16 163.093 32.03 163.873 32.03C164.133 32.03 164.403 32.05 164.683 32.09C164.963 32.11 165.203 32.14 165.403 32.18V28.22C165.063 28.12 164.753 28.07 164.473 28.07C163.933 28.07 163.413 28.15 162.913 28.31C162.413 28.47 161.943 28.7 161.503 29C161.063 29.28 160.673 29.63 160.333 30.05C159.993 30.45 159.723 30.89 159.523 31.37H159.463V28.49H155.413Z" fill="black"/>
<path d="M177.556 36.2C177.556 36.84 177.496 37.46 177.376 38.06C177.256 38.66 177.056 39.2 176.776 39.68C176.496 40.14 176.116 40.51 175.636 40.79C175.176 41.07 174.596 41.21 173.896 41.21C173.236 41.21 172.666 41.07 172.186 40.79C171.726 40.49 171.336 40.11 171.016 39.65C170.716 39.17 170.496 38.63 170.356 38.03C170.216 37.43 170.146 36.83 170.146 36.23C170.146 35.59 170.206 34.98 170.326 34.4C170.466 33.8 170.676 33.27 170.956 32.81C171.256 32.35 171.646 31.98 172.126 31.7C172.606 31.42 173.196 31.28 173.896 31.28C174.596 31.28 175.176 31.42 175.636 31.7C176.096 31.98 176.466 32.35 176.746 32.81C177.046 33.25 177.256 33.77 177.376 34.37C177.496 34.95 177.556 35.56 177.556 36.2ZM177.616 42.02V44H181.666V22.58H177.406V30.38H177.346C176.866 29.62 176.206 29.05 175.366 28.67C174.546 28.27 173.676 28.07 172.756 28.07C171.616 28.07 170.616 28.3 169.756 28.76C168.896 29.2 168.176 29.79 167.596 30.53C167.036 31.27 166.606 32.13 166.306 33.11C166.026 34.07 165.886 35.07 165.886 36.11C165.886 37.19 166.026 38.23 166.306 39.23C166.606 40.23 167.036 41.12 167.596 41.9C168.176 42.66 168.906 43.27 169.786 43.73C170.666 44.17 171.686 44.39 172.846 44.39C173.866 44.39 174.776 44.21 175.576 43.85C176.396 43.47 177.056 42.86 177.556 42.02H177.616Z" fill="black"/>
<path d="M207.965 29.78H212.525C212.385 28.54 212.045 27.44 211.505 26.48C210.965 25.52 210.275 24.72 209.435 24.08C208.615 23.42 207.675 22.92 206.615 22.58C205.575 22.24 204.465 22.07 203.285 22.07C201.645 22.07 200.165 22.36 198.845 22.94C197.545 23.52 196.445 24.32 195.545 25.34C194.645 26.36 193.955 27.56 193.475 28.94C192.995 30.3 192.755 31.78 192.755 33.38C192.755 34.94 192.995 36.4 193.475 37.76C193.955 39.1 194.645 40.27 195.545 41.27C196.445 42.27 197.545 43.06 198.845 43.64C200.165 44.2 201.645 44.48 203.285 44.48C204.605 44.48 205.815 44.28 206.915 43.88C208.015 43.48 208.975 42.9 209.795 42.14C210.615 41.38 211.275 40.46 211.775 39.38C212.275 38.3 212.585 37.09 212.705 35.75H208.145C207.965 37.19 207.465 38.35 206.645 39.23C205.845 40.11 204.725 40.55 203.285 40.55C202.225 40.55 201.325 40.35 200.585 39.95C199.845 39.53 199.245 38.98 198.785 38.3C198.325 37.62 197.985 36.86 197.765 36.02C197.565 35.16 197.465 34.28 197.465 33.38C197.465 32.44 197.565 31.53 197.765 30.65C197.985 29.77 198.325 28.99 198.785 28.31C199.245 27.61 199.845 27.06 200.585 26.66C201.325 26.24 202.225 26.03 203.285 26.03C203.865 26.03 204.415 26.13 204.935 26.33C205.475 26.51 205.955 26.77 206.375 27.11C206.795 27.45 207.145 27.85 207.425 28.31C207.705 28.75 207.885 29.24 207.965 29.78Z" fill="black"/>
<path d="M219.851 26.09V22.58H215.591V26.09H219.851ZM215.591 28.49V44H219.851V28.49H215.591Z" fill="black"/>
<path d="M228.606 28.49V23.84H224.346V28.49H221.766V31.34H224.346V40.49C224.346 41.27 224.476 41.9 224.736 42.38C224.996 42.86 225.346 43.23 225.786 43.49C226.246 43.75 226.766 43.92 227.346 44C227.946 44.1 228.576 44.15 229.236 44.15C229.656 44.15 230.086 44.14 230.526 44.12C230.966 44.1 231.366 44.06 231.726 44V40.7C231.526 40.74 231.316 40.77 231.096 40.79C230.876 40.81 230.646 40.82 230.406 40.82C229.686 40.82 229.206 40.7 228.966 40.46C228.726 40.22 228.606 39.74 228.606 39.02V31.34H231.726V28.49H228.606Z" fill="black"/>
<path d="M241.403 45.92L247.883 28.49H243.473L240.083 39.11H240.023L236.513 28.49H231.983L237.413 43.04C237.533 43.34 237.593 43.66 237.593 44C237.593 44.46 237.453 44.88 237.173 45.26C236.913 45.64 236.503 45.86 235.943 45.92C235.523 45.94 235.103 45.93 234.683 45.89C234.263 45.85 233.853 45.81 233.453 45.77V49.28C233.893 49.32 234.323 49.35 234.743 49.37C235.183 49.41 235.623 49.43 236.063 49.43C237.523 49.43 238.663 49.16 239.483 48.62C240.303 48.08 240.943 47.18 241.403 45.92Z" fill="black"/>
<path d="M272.389 29.78H276.949C276.809 28.54 276.469 27.44 275.929 26.48C275.389 25.52 274.699 24.72 273.859 24.08C273.039 23.42 272.099 22.92 271.039 22.58C269.999 22.24 268.889 22.07 267.709 22.07C266.069 22.07 264.589 22.36 263.269 22.94C261.969 23.52 260.869 24.32 259.969 25.34C259.069 26.36 258.379 27.56 257.899 28.94C257.419 30.3 257.179 31.78 257.179 33.38C257.179 34.94 257.419 36.4 257.899 37.76C258.379 39.1 259.069 40.27 259.969 41.27C260.869 42.27 261.969 43.06 263.269 43.64C264.589 44.2 266.069 44.48 267.709 44.48C269.029 44.48 270.239 44.28 271.339 43.88C272.439 43.48 273.399 42.9 274.219 42.14C275.039 41.38 275.699 40.46 276.199 39.38C276.699 38.3 277.009 37.09 277.129 35.75H272.569C272.389 37.19 271.889 38.35 271.069 39.23C270.269 40.11 269.149 40.55 267.709 40.55C266.649 40.55 265.749 40.35 265.009 39.95C264.269 39.53 263.669 38.98 263.209 38.3C262.749 37.62 262.409 36.86 262.189 36.02C261.989 35.16 261.889 34.28 261.889 33.38C261.889 32.44 261.989 31.53 262.189 30.65C262.409 29.77 262.749 28.99 263.209 28.31C263.669 27.61 264.269 27.06 265.009 26.66C265.749 26.24 266.649 26.03 267.709 26.03C268.289 26.03 268.839 26.13 269.359 26.33C269.899 26.51 270.379 26.77 270.799 27.11C271.219 27.45 271.569 27.85 271.849 28.31C272.129 28.75 272.309 29.24 272.389 29.78Z" fill="black"/>
<path d="M283.675 36.26C283.675 35.64 283.735 35.03 283.855 34.43C283.975 33.83 284.175 33.3 284.455 32.84C284.755 32.38 285.145 32.01 285.625 31.73C286.105 31.43 286.705 31.28 287.425 31.28C288.145 31.28 288.745 31.43 289.225 31.73C289.725 32.01 290.115 32.38 290.395 32.84C290.695 33.3 290.905 33.83 291.025 34.43C291.145 35.03 291.205 35.64 291.205 36.26C291.205 36.88 291.145 37.49 291.025 38.09C290.905 38.67 290.695 39.2 290.395 39.68C290.115 40.14 289.725 40.51 289.225 40.79C288.745 41.07 288.145 41.21 287.425 41.21C286.705 41.21 286.105 41.07 285.625 40.79C285.145 40.51 284.755 40.14 284.455 39.68C284.175 39.2 283.975 38.67 283.855 38.09C283.735 37.49 283.675 36.88 283.675 36.26ZM279.415 36.26C279.415 37.5 279.605 38.62 279.985 39.62C280.365 40.62 280.905 41.48 281.605 42.2C282.305 42.9 283.145 43.44 284.125 43.82C285.105 44.2 286.205 44.39 287.425 44.39C288.645 44.39 289.745 44.2 290.725 43.82C291.725 43.44 292.575 42.9 293.275 42.2C293.975 41.48 294.515 40.62 294.895 39.62C295.275 38.62 295.465 37.5 295.465 36.26C295.465 35.02 295.275 33.9 294.895 32.9C294.515 31.88 293.975 31.02 293.275 30.32C292.575 29.6 291.725 29.05 290.725 28.67C289.745 28.27 288.645 28.07 287.425 28.07C286.205 28.07 285.105 28.27 284.125 28.67C283.145 29.05 282.305 29.6 281.605 30.32C280.905 31.02 280.365 31.88 279.985 32.9C279.605 33.9 279.415 35.02 279.415 36.26Z" fill="black"/>
<path d="M312.785 44V28.49H308.525V36.62C308.525 38.2 308.265 39.34 307.745 40.04C307.225 40.72 306.385 41.06 305.225 41.06C304.205 41.06 303.495 40.75 303.095 40.13C302.695 39.49 302.495 38.53 302.495 37.25V28.49H298.235V38.03C298.235 38.99 298.315 39.87 298.475 40.67C298.655 41.45 298.955 42.12 299.375 42.68C299.795 43.22 300.365 43.64 301.085 43.94C301.825 44.24 302.765 44.39 303.905 44.39C304.805 44.39 305.685 44.19 306.545 43.79C307.405 43.39 308.105 42.74 308.645 41.84H308.735V44H312.785Z" fill="black"/>
<path d="M316.018 28.49V44H320.278V35.87C320.278 34.29 320.538 33.16 321.058 32.48C321.578 31.78 322.418 31.43 323.578 31.43C324.598 31.43 325.308 31.75 325.708 32.39C326.108 33.01 326.308 33.96 326.308 35.24V44H330.568V34.46C330.568 33.5 330.478 32.63 330.298 31.85C330.138 31.05 329.848 30.38 329.428 29.84C329.008 29.28 328.428 28.85 327.688 28.55C326.968 28.23 326.038 28.07 324.898 28.07C323.998 28.07 323.118 28.28 322.258 28.7C321.398 29.1 320.698 29.75 320.158 30.65H320.068V28.49H316.018Z" fill="black"/>
<path d="M344.361 33.95H348.531C348.471 32.95 348.231 32.09 347.811 31.37C347.391 30.63 346.841 30.02 346.161 29.54C345.501 29.04 344.741 28.67 343.881 28.43C343.041 28.19 342.161 28.07 341.241 28.07C339.981 28.07 338.861 28.28 337.881 28.7C336.901 29.12 336.071 29.71 335.391 30.47C334.711 31.21 334.191 32.1 333.831 33.14C333.491 34.16 333.321 35.27 333.321 36.47C333.321 37.63 333.511 38.7 333.891 39.68C334.271 40.64 334.801 41.47 335.481 42.17C336.161 42.87 336.981 43.42 337.941 43.82C338.921 44.2 339.991 44.39 341.151 44.39C343.211 44.39 344.901 43.85 346.221 42.77C347.541 41.69 348.341 40.12 348.621 38.06H344.511C344.371 39.02 344.021 39.79 343.461 40.37C342.921 40.93 342.141 41.21 341.121 41.21C340.461 41.21 339.901 41.06 339.441 40.76C338.981 40.46 338.611 40.08 338.331 39.62C338.071 39.14 337.881 38.61 337.761 38.03C337.641 37.45 337.581 36.88 337.581 36.32C337.581 35.74 337.641 35.16 337.761 34.58C337.881 33.98 338.081 33.44 338.361 32.96C338.661 32.46 339.041 32.06 339.501 31.76C339.961 31.44 340.531 31.28 341.211 31.28C343.031 31.28 344.081 32.17 344.361 33.95Z" fill="black"/>
<path d="M355.408 26.09V22.58H351.148V26.09H355.408ZM351.148 28.49V44H355.408V28.49H351.148Z" fill="black"/>
<path d="M358.882 22.58V44H363.142V22.58H358.882Z" fill="black"/>
<path d="M88.4218 60.302V57.124H91.0818C91.3711 57.124 91.6418 57.1427 91.8938 57.18C92.1551 57.208 92.3838 57.278 92.5798 57.39C92.7758 57.502 92.9298 57.6607 93.0418 57.866C93.1538 58.0713 93.2098 58.3513 93.2098 58.706C93.2098 59.238 93.0418 59.6393 92.7058 59.91C92.3791 60.1713 91.8378 60.302 91.0818 60.302H88.4218ZM87.0918 56.004V66H91.9218C92.4165 66 92.8505 65.9207 93.2238 65.762C93.6065 65.594 93.9238 65.3793 94.1758 65.118C94.4371 64.8473 94.6331 64.5393 94.7638 64.194C94.8945 63.8487 94.9598 63.494 94.9598 63.13C94.9598 62.514 94.7965 61.9913 94.4698 61.562C94.1431 61.1327 93.6718 60.8527 93.0558 60.722V60.694C93.5318 60.5073 93.8958 60.2227 94.1478 59.84C94.4091 59.448 94.5398 58.986 94.5398 58.454C94.5398 57.95 94.4231 57.5253 94.1898 57.18C93.9658 56.8347 93.6905 56.564 93.3638 56.368C93.2145 56.2747 93.0325 56.2047 92.8178 56.158C92.6125 56.1113 92.3885 56.0787 92.1458 56.06C91.9031 56.032 91.6558 56.018 91.4038 56.018C91.1611 56.0087 90.9325 56.004 90.7178 56.004H87.0918ZM88.4218 64.88V61.422H91.4598C91.7398 61.422 92.0105 61.45 92.2718 61.506C92.5331 61.5527 92.7618 61.6413 92.9578 61.772C93.1631 61.8933 93.3265 62.0613 93.4478 62.276C93.5691 62.4907 93.6298 62.7613 93.6298 63.088C93.6298 63.648 93.4618 64.0867 93.1258 64.404C92.7991 64.7213 92.3418 64.88 91.7538 64.88H88.4218Z" fill="black"/>
<path d="M102.472 66V58.762H101.282V62.85C101.282 63.1767 101.235 63.48 101.142 63.76C101.058 64.0307 100.927 64.2687 100.75 64.474C100.572 64.6793 100.348 64.838 100.078 64.95C99.8164 65.062 99.5038 65.118 99.1398 65.118C98.6824 65.118 98.3231 64.9873 98.0618 64.726C97.8004 64.4647 97.6698 64.11 97.6698 63.662V58.762H96.4798V63.522C96.4798 63.914 96.5171 64.2733 96.5918 64.6C96.6758 64.9173 96.8158 65.1927 97.0118 65.426C97.2078 65.6593 97.4644 65.8413 97.7818 65.972C98.0991 66.0933 98.4958 66.154 98.9718 66.154C99.5038 66.154 99.9658 66.0513 100.358 65.846C100.75 65.6313 101.072 65.3 101.324 64.852H101.352V66H102.472Z" fill="black"/>
<path d="M105.519 57.46V56.004H104.329V57.46H105.519ZM104.329 58.762V66H105.519V58.762H104.329Z" fill="black"/>
<path d="M107.433 56.004V66H108.623V56.004H107.433Z" fill="black"/>
<path d="M111.334 62.444C111.334 62.0893 111.371 61.744 111.446 61.408C111.521 61.072 111.642 60.7733 111.81 60.512C111.978 60.2507 112.202 60.0407 112.482 59.882C112.762 59.7233 113.103 59.644 113.504 59.644C113.915 59.644 114.265 59.7233 114.554 59.882C114.843 60.0313 115.077 60.232 115.254 60.484C115.441 60.736 115.576 61.03 115.66 61.366C115.744 61.6927 115.786 62.0333 115.786 62.388C115.786 62.724 115.744 63.0553 115.66 63.382C115.585 63.7087 115.459 64.0027 115.282 64.264C115.105 64.516 114.876 64.7213 114.596 64.88C114.316 65.0387 113.975 65.118 113.574 65.118C113.191 65.118 112.855 65.0433 112.566 64.894C112.286 64.7447 112.053 64.544 111.866 64.292C111.689 64.04 111.553 63.7553 111.46 63.438C111.376 63.1113 111.334 62.78 111.334 62.444ZM116.934 66V56.004H115.744V59.728H115.716C115.585 59.5133 115.422 59.336 115.226 59.196C115.039 59.0467 114.839 58.93 114.624 58.846C114.409 58.7527 114.195 58.6873 113.98 58.65C113.765 58.6127 113.565 58.594 113.378 58.594C112.827 58.594 112.342 58.6967 111.922 58.902C111.511 59.098 111.166 59.3687 110.886 59.714C110.615 60.05 110.41 60.4467 110.27 60.904C110.139 61.3613 110.074 61.8467 110.074 62.36C110.074 62.8733 110.144 63.3587 110.284 63.816C110.424 64.2733 110.629 64.6747 110.9 65.02C111.18 65.3653 111.525 65.6407 111.936 65.846C112.356 66.0513 112.846 66.154 113.406 66.154C113.91 66.154 114.372 66.0653 114.792 65.888C115.212 65.7107 115.52 65.4213 115.716 65.02H115.744V66H116.934Z" fill="black"/>
<path d="M120.025 57.46V56.004H118.835V57.46H120.025ZM118.835 58.762V66H120.025V58.762H118.835Z" fill="black"/>
<path d="M121.868 58.762V66H123.058V61.912C123.058 61.5853 123.1 61.2867 123.184 61.016C123.278 60.736 123.413 60.4933 123.59 60.288C123.768 60.0827 123.987 59.924 124.248 59.812C124.519 59.7 124.836 59.644 125.2 59.644C125.658 59.644 126.017 59.7747 126.278 60.036C126.54 60.2973 126.67 60.652 126.67 61.1V66H127.86V61.24C127.86 60.848 127.818 60.4933 127.734 60.176C127.66 59.8493 127.524 59.5693 127.328 59.336C127.132 59.1027 126.876 58.9207 126.558 58.79C126.241 58.6593 125.844 58.594 125.368 58.594C124.295 58.594 123.511 59.0327 123.016 59.91H122.988V58.762H121.868Z" fill="black"/>
<path d="M135.892 65.384V58.762H134.772V59.798H134.758C134.543 59.3967 134.244 59.098 133.862 58.902C133.479 58.6967 133.059 58.594 132.602 58.594C131.976 58.594 131.449 58.7153 131.02 58.958C130.59 59.1913 130.245 59.4947 129.984 59.868C129.722 60.232 129.536 60.6427 129.424 61.1C129.312 61.548 129.256 61.9867 129.256 62.416C129.256 62.9107 129.321 63.382 129.452 63.83C129.592 64.2687 129.797 64.656 130.068 64.992C130.338 65.3187 130.674 65.58 131.076 65.776C131.477 65.972 131.948 66.07 132.49 66.07C132.956 66.07 133.395 65.9673 133.806 65.762C134.226 65.5473 134.538 65.216 134.744 64.768H134.772V65.244C134.772 65.6453 134.73 66.014 134.646 66.35C134.571 66.686 134.445 66.9707 134.268 67.204C134.09 67.4467 133.866 67.6333 133.596 67.764C133.325 67.904 132.994 67.974 132.602 67.974C132.406 67.974 132.2 67.9507 131.986 67.904C131.771 67.8667 131.57 67.8013 131.384 67.708C131.206 67.6147 131.052 67.4933 130.922 67.344C130.8 67.1947 130.735 67.0127 130.726 66.798H129.536C129.554 67.19 129.657 67.5213 129.844 67.792C130.03 68.0627 130.264 68.282 130.544 68.45C130.833 68.618 131.15 68.7393 131.496 68.814C131.85 68.8887 132.196 68.926 132.532 68.926C133.689 68.926 134.538 68.632 135.08 68.044C135.621 67.456 135.892 66.5693 135.892 65.384ZM132.56 65.034C132.168 65.034 131.841 64.9547 131.58 64.796C131.318 64.628 131.108 64.4133 130.95 64.152C130.791 63.8813 130.679 63.5827 130.614 63.256C130.548 62.9293 130.516 62.6027 130.516 62.276C130.516 61.9307 130.553 61.5993 130.628 61.282C130.712 60.9647 130.838 60.6847 131.006 60.442C131.183 60.1993 131.407 60.008 131.678 59.868C131.948 59.7187 132.275 59.644 132.658 59.644C133.031 59.644 133.348 59.7187 133.61 59.868C133.871 60.0173 134.081 60.218 134.24 60.47C134.408 60.7127 134.529 60.988 134.604 61.296C134.678 61.604 134.716 61.9167 134.716 62.234C134.716 62.57 134.674 62.906 134.59 63.242C134.515 63.578 134.394 63.8813 134.226 64.152C134.058 64.4133 133.834 64.628 133.554 64.796C133.283 64.9547 132.952 65.034 132.56 65.034Z" fill="black"/>
<path d="M147.995 65.972C147.79 66.0933 147.505 66.154 147.141 66.154C146.833 66.154 146.586 66.07 146.399 65.902C146.222 65.7247 146.133 65.44 146.133 65.048C145.807 65.44 145.424 65.7247 144.985 65.902C144.556 66.07 144.089 66.154 143.585 66.154C143.259 66.154 142.946 66.1167 142.647 66.042C142.358 65.9673 142.106 65.8507 141.891 65.692C141.677 65.5333 141.504 65.328 141.373 65.076C141.252 64.8147 141.191 64.502 141.191 64.138C141.191 63.7273 141.261 63.3913 141.401 63.13C141.541 62.8687 141.723 62.6587 141.947 62.5C142.181 62.332 142.442 62.206 142.731 62.122C143.03 62.038 143.333 61.968 143.641 61.912C143.968 61.8467 144.276 61.8 144.565 61.772C144.864 61.7347 145.125 61.688 145.349 61.632C145.573 61.5667 145.751 61.478 145.881 61.366C146.012 61.2447 146.077 61.072 146.077 60.848C146.077 60.5867 146.026 60.3767 145.923 60.218C145.83 60.0593 145.704 59.938 145.545 59.854C145.396 59.77 145.223 59.714 145.027 59.686C144.841 59.658 144.654 59.644 144.467 59.644C143.963 59.644 143.543 59.742 143.207 59.938C142.871 60.1247 142.689 60.484 142.661 61.016H141.471C141.49 60.568 141.583 60.19 141.751 59.882C141.919 59.574 142.143 59.3267 142.423 59.14C142.703 58.944 143.021 58.804 143.375 58.72C143.739 58.636 144.127 58.594 144.537 58.594C144.864 58.594 145.186 58.6173 145.503 58.664C145.83 58.7107 146.124 58.8087 146.385 58.958C146.647 59.098 146.857 59.2987 147.015 59.56C147.174 59.8213 147.253 60.162 147.253 60.582V64.306C147.253 64.586 147.267 64.7913 147.295 64.922C147.333 65.0527 147.445 65.118 147.631 65.118C147.734 65.118 147.855 65.0947 147.995 65.048V65.972ZM146.063 62.262C145.914 62.374 145.718 62.458 145.475 62.514C145.233 62.5607 144.976 62.6027 144.705 62.64C144.444 62.668 144.178 62.7053 143.907 62.752C143.637 62.7893 143.394 62.8547 143.179 62.948C142.965 63.0413 142.787 63.1767 142.647 63.354C142.517 63.522 142.451 63.7553 142.451 64.054C142.451 64.25 142.489 64.418 142.563 64.558C142.647 64.6887 142.75 64.796 142.871 64.88C143.002 64.964 143.151 65.0247 143.319 65.062C143.487 65.0993 143.665 65.118 143.851 65.118C144.243 65.118 144.579 65.0667 144.859 64.964C145.139 64.852 145.368 64.7167 145.545 64.558C145.723 64.39 145.853 64.2127 145.937 64.026C146.021 63.83 146.063 63.648 146.063 63.48V62.262Z" fill="black"/>
<path d="M160.167 66L162.477 58.762H161.245L159.621 64.684H159.593L158.081 58.762H156.779L155.323 64.684H155.295L153.657 58.762H152.341L154.665 66H155.953L157.409 60.246H157.437L158.907 66H160.167Z" fill="black"/>
<path d="M164.477 62.388C164.477 61.9493 164.533 61.562 164.645 61.226C164.766 60.8807 164.929 60.5913 165.135 60.358C165.34 60.1247 165.578 59.9473 165.849 59.826C166.129 59.7047 166.423 59.644 166.731 59.644C167.039 59.644 167.328 59.7047 167.599 59.826C167.879 59.9473 168.121 60.1247 168.327 60.358C168.532 60.5913 168.691 60.8807 168.803 61.226C168.924 61.562 168.985 61.9493 168.985 62.388C168.985 62.8267 168.924 63.2187 168.803 63.564C168.691 63.9 168.532 64.1847 168.327 64.418C168.121 64.642 167.879 64.8147 167.599 64.936C167.328 65.0573 167.039 65.118 166.731 65.118C166.423 65.118 166.129 65.0573 165.849 64.936C165.578 64.8147 165.34 64.642 165.135 64.418C164.929 64.1847 164.766 63.9 164.645 63.564C164.533 63.2187 164.477 62.8267 164.477 62.388ZM163.217 62.388C163.217 62.92 163.291 63.4147 163.441 63.872C163.59 64.3293 163.814 64.7307 164.113 65.076C164.411 65.412 164.78 65.678 165.219 65.874C165.657 66.0607 166.161 66.154 166.731 66.154C167.309 66.154 167.813 66.0607 168.243 65.874C168.681 65.678 169.05 65.412 169.349 65.076C169.647 64.7307 169.871 64.3293 170.021 63.872C170.17 63.4147 170.245 62.92 170.245 62.388C170.245 61.856 170.17 61.3613 170.021 60.904C169.871 60.4373 169.647 60.036 169.349 59.7C169.05 59.3547 168.681 59.084 168.243 58.888C167.813 58.692 167.309 58.594 166.731 58.594C166.161 58.594 165.657 58.692 165.219 58.888C164.78 59.084 164.411 59.3547 164.113 59.7C163.814 60.036 163.59 60.4373 163.441 60.904C163.291 61.3613 163.217 61.856 163.217 62.388Z" fill="black"/>
<path d="M171.606 58.762V66H172.796V62.78C172.796 62.3133 172.842 61.9027 172.936 61.548C173.029 61.184 173.178 60.876 173.384 60.624C173.589 60.372 173.86 60.1807 174.196 60.05C174.532 59.9193 174.938 59.854 175.414 59.854V58.594C174.77 58.5753 174.238 58.706 173.818 58.986C173.398 59.266 173.043 59.7 172.754 60.288H172.726V58.762H171.606Z" fill="black"/>
<path d="M176.38 56.004V66H177.57V56.004H176.38Z" fill="black"/>
<path d="M180.281 62.444C180.281 62.0893 180.319 61.744 180.393 61.408C180.468 61.072 180.589 60.7733 180.757 60.512C180.925 60.2507 181.149 60.0407 181.429 59.882C181.709 59.7233 182.05 59.644 182.451 59.644C182.862 59.644 183.212 59.7233 183.501 59.882C183.791 60.0313 184.024 60.232 184.201 60.484C184.388 60.736 184.523 61.03 184.607 61.366C184.691 61.6927 184.733 62.0333 184.733 62.388C184.733 62.724 184.691 63.0553 184.607 63.382C184.533 63.7087 184.407 64.0027 184.229 64.264C184.052 64.516 183.823 64.7213 183.543 64.88C183.263 65.0387 182.923 65.118 182.521 65.118C182.139 65.118 181.803 65.0433 181.513 64.894C181.233 64.7447 181 64.544 180.813 64.292C180.636 64.04 180.501 63.7553 180.407 63.438C180.323 63.1113 180.281 62.78 180.281 62.444ZM185.881 66V56.004H184.691V59.728H184.663C184.533 59.5133 184.369 59.336 184.173 59.196C183.987 59.0467 183.786 58.93 183.571 58.846C183.357 58.7527 183.142 58.6873 182.927 58.65C182.713 58.6127 182.512 58.594 182.325 58.594C181.775 58.594 181.289 58.6967 180.869 58.902C180.459 59.098 180.113 59.3687 179.833 59.714C179.563 60.05 179.357 60.4467 179.217 60.904C179.087 61.3613 179.021 61.8467 179.021 62.36C179.021 62.8733 179.091 63.3587 179.231 63.816C179.371 64.2733 179.577 64.6747 179.847 65.02C180.127 65.3653 180.473 65.6407 180.883 65.846C181.303 66.0513 181.793 66.154 182.353 66.154C182.857 66.154 183.319 66.0653 183.739 65.888C184.159 65.7107 184.467 65.4213 184.663 65.02H184.691V66H185.881Z" fill="black"/>
<path d="M196.523 61.086H197.755C197.708 60.6567 197.596 60.288 197.419 59.98C197.241 59.6627 197.013 59.4013 196.733 59.196C196.462 58.9907 196.145 58.8413 195.781 58.748C195.426 58.6453 195.043 58.594 194.633 58.594C194.063 58.594 193.564 58.6967 193.135 58.902C192.705 59.098 192.346 59.3733 192.057 59.728C191.777 60.0733 191.567 60.484 191.427 60.96C191.287 61.4267 191.217 61.9307 191.217 62.472C191.217 63.0133 191.287 63.5127 191.427 63.97C191.576 64.418 191.791 64.8053 192.071 65.132C192.36 65.4587 192.715 65.7107 193.135 65.888C193.564 66.0653 194.054 66.154 194.605 66.154C195.529 66.154 196.257 65.9113 196.789 65.426C197.33 64.9407 197.666 64.25 197.797 63.354H196.579C196.504 63.914 196.299 64.348 195.963 64.656C195.636 64.964 195.179 65.118 194.591 65.118C194.217 65.118 193.895 65.0433 193.625 64.894C193.354 64.7447 193.135 64.5487 192.967 64.306C192.799 64.054 192.673 63.7693 192.589 63.452C192.514 63.1347 192.477 62.808 192.477 62.472C192.477 62.108 192.514 61.758 192.589 61.422C192.663 61.0767 192.785 60.7733 192.953 60.512C193.13 60.2507 193.363 60.0407 193.653 59.882C193.942 59.7233 194.301 59.644 194.731 59.644C195.235 59.644 195.636 59.77 195.935 60.022C196.233 60.274 196.429 60.6287 196.523 61.086Z" fill="black"/>
<path d="M199.198 56.004V66H200.388V56.004H199.198Z" fill="black"/>
<path d="M208.644 65.972C208.438 66.0933 208.154 66.154 207.79 66.154C207.482 66.154 207.234 66.07 207.048 65.902C206.87 65.7247 206.782 65.44 206.782 65.048C206.455 65.44 206.072 65.7247 205.634 65.902C205.204 66.07 204.738 66.154 204.234 66.154C203.907 66.154 203.594 66.1167 203.296 66.042C203.006 65.9673 202.754 65.8507 202.54 65.692C202.325 65.5333 202.152 65.328 202.022 65.076C201.9 64.8147 201.84 64.502 201.84 64.138C201.84 63.7273 201.91 63.3913 202.05 63.13C202.19 62.8687 202.372 62.6587 202.596 62.5C202.829 62.332 203.09 62.206 203.38 62.122C203.678 62.038 203.982 61.968 204.29 61.912C204.616 61.8467 204.924 61.8 205.214 61.772C205.512 61.7347 205.774 61.688 205.998 61.632C206.222 61.5667 206.399 61.478 206.53 61.366C206.66 61.2447 206.726 61.072 206.726 60.848C206.726 60.5867 206.674 60.3767 206.572 60.218C206.478 60.0593 206.352 59.938 206.194 59.854C206.044 59.77 205.872 59.714 205.676 59.686C205.489 59.658 205.302 59.644 205.116 59.644C204.612 59.644 204.192 59.742 203.856 59.938C203.52 60.1247 203.338 60.484 203.31 61.016H202.12C202.138 60.568 202.232 60.19 202.4 59.882C202.568 59.574 202.792 59.3267 203.072 59.14C203.352 58.944 203.669 58.804 204.024 58.72C204.388 58.636 204.775 58.594 205.186 58.594C205.512 58.594 205.834 58.6173 206.152 58.664C206.478 58.7107 206.772 58.8087 207.034 58.958C207.295 59.098 207.505 59.2987 207.664 59.56C207.822 59.8213 207.902 60.162 207.902 60.582V64.306C207.902 64.586 207.916 64.7913 207.944 64.922C207.981 65.0527 208.093 65.118 208.28 65.118C208.382 65.118 208.504 65.0947 208.644 65.048V65.972ZM206.712 62.262C206.562 62.374 206.366 62.458 206.124 62.514C205.881 62.5607 205.624 62.6027 205.354 62.64C205.092 62.668 204.826 62.7053 204.556 62.752C204.285 62.7893 204.042 62.8547 203.828 62.948C203.613 63.0413 203.436 63.1767 203.296 63.354C203.165 63.522 203.1 63.7553 203.1 64.054C203.1 64.25 203.137 64.418 203.212 64.558C203.296 64.6887 203.398 64.796 203.52 64.88C203.65 64.964 203.8 65.0247 203.968 65.062C204.136 65.0993 204.313 65.118 204.5 65.118C204.892 65.118 205.228 65.0667 205.508 64.964C205.788 64.852 206.016 64.7167 206.194 64.558C206.371 64.39 206.502 64.2127 206.586 64.026C206.67 63.83 206.712 63.648 206.712 63.48V62.262Z" fill="black"/>
<path d="M210.479 63.718H209.289C209.308 64.166 209.401 64.5487 209.569 64.866C209.737 65.174 209.961 65.426 210.241 65.622C210.521 65.8087 210.843 65.944 211.207 66.028C211.571 66.112 211.954 66.154 212.355 66.154C212.719 66.154 213.083 66.1167 213.447 66.042C213.821 65.9767 214.152 65.8553 214.441 65.678C214.74 65.5007 214.978 65.2673 215.155 64.978C215.342 64.6887 215.435 64.3247 215.435 63.886C215.435 63.5407 215.365 63.2513 215.225 63.018C215.095 62.7847 214.917 62.5933 214.693 62.444C214.479 62.2853 214.227 62.1593 213.937 62.066C213.657 61.9727 213.368 61.8933 213.069 61.828C212.789 61.7627 212.509 61.702 212.229 61.646C211.949 61.5807 211.697 61.506 211.473 61.422C211.249 61.3287 211.063 61.2167 210.913 61.086C210.773 60.946 210.703 60.7733 210.703 60.568C210.703 60.3813 210.75 60.232 210.843 60.12C210.937 59.9987 211.058 59.9053 211.207 59.84C211.357 59.7653 211.52 59.714 211.697 59.686C211.884 59.658 212.066 59.644 212.243 59.644C212.439 59.644 212.631 59.6673 212.817 59.714C213.013 59.7513 213.191 59.8167 213.349 59.91C213.508 60.0033 213.639 60.1293 213.741 60.288C213.844 60.4373 213.905 60.6287 213.923 60.862H215.113C215.085 60.4233 214.992 60.0593 214.833 59.77C214.675 59.4713 214.46 59.238 214.189 59.07C213.928 58.8927 213.625 58.7713 213.279 58.706C212.934 58.6313 212.556 58.594 212.145 58.594C211.828 58.594 211.506 58.636 211.179 58.72C210.862 58.7947 210.573 58.916 210.311 59.084C210.059 59.2427 209.849 59.4527 209.681 59.714C209.523 59.9753 209.443 60.288 209.443 60.652C209.443 61.1187 209.56 61.4827 209.793 61.744C210.027 62.0053 210.316 62.2107 210.661 62.36C211.016 62.5 211.399 62.612 211.809 62.696C212.22 62.7707 212.598 62.8593 212.943 62.962C213.298 63.0553 213.592 63.1813 213.825 63.34C214.059 63.4987 214.175 63.732 214.175 64.04C214.175 64.264 214.119 64.4507 214.007 64.6C213.895 64.74 213.751 64.8473 213.573 64.922C213.405 64.9967 213.219 65.048 213.013 65.076C212.808 65.104 212.612 65.118 212.425 65.118C212.183 65.118 211.945 65.0947 211.711 65.048C211.487 65.0013 211.282 64.9267 211.095 64.824C210.918 64.712 210.773 64.5673 210.661 64.39C210.549 64.2033 210.489 63.9793 210.479 63.718Z" fill="black"/>
<path d="M217.479 63.718H216.289C216.308 64.166 216.401 64.5487 216.569 64.866C216.737 65.174 216.961 65.426 217.241 65.622C217.521 65.8087 217.843 65.944 218.207 66.028C218.571 66.112 218.954 66.154 219.355 66.154C219.719 66.154 220.083 66.1167 220.447 66.042C220.821 65.9767 221.152 65.8553 221.441 65.678C221.74 65.5007 221.978 65.2673 222.155 64.978C222.342 64.6887 222.435 64.3247 222.435 63.886C222.435 63.5407 222.365 63.2513 222.225 63.018C222.095 62.7847 221.917 62.5933 221.693 62.444C221.479 62.2853 221.227 62.1593 220.937 62.066C220.657 61.9727 220.368 61.8933 220.069 61.828C219.789 61.7627 219.509 61.702 219.229 61.646C218.949 61.5807 218.697 61.506 218.473 61.422C218.249 61.3287 218.063 61.2167 217.913 61.086C217.773 60.946 217.703 60.7733 217.703 60.568C217.703 60.3813 217.75 60.232 217.843 60.12C217.937 59.9987 218.058 59.9053 218.207 59.84C218.357 59.7653 218.52 59.714 218.697 59.686C218.884 59.658 219.066 59.644 219.243 59.644C219.439 59.644 219.631 59.6673 219.817 59.714C220.013 59.7513 220.191 59.8167 220.349 59.91C220.508 60.0033 220.639 60.1293 220.741 60.288C220.844 60.4373 220.905 60.6287 220.923 60.862H222.113C222.085 60.4233 221.992 60.0593 221.833 59.77C221.675 59.4713 221.46 59.238 221.189 59.07C220.928 58.8927 220.625 58.7713 220.279 58.706C219.934 58.6313 219.556 58.594 219.145 58.594C218.828 58.594 218.506 58.636 218.179 58.72C217.862 58.7947 217.573 58.916 217.311 59.084C217.059 59.2427 216.849 59.4527 216.681 59.714C216.523 59.9753 216.443 60.288 216.443 60.652C216.443 61.1187 216.56 61.4827 216.793 61.744C217.027 62.0053 217.316 62.2107 217.661 62.36C218.016 62.5 218.399 62.612 218.809 62.696C219.22 62.7707 219.598 62.8593 219.943 62.962C220.298 63.0553 220.592 63.1813 220.825 63.34C221.059 63.4987 221.175 63.732 221.175 64.04C221.175 64.264 221.119 64.4507 221.007 64.6C220.895 64.74 220.751 64.8473 220.573 64.922C220.405 64.9967 220.219 65.048 220.013 65.076C219.808 65.104 219.612 65.118 219.425 65.118C219.183 65.118 218.945 65.0947 218.711 65.048C218.487 65.0013 218.282 64.9267 218.095 64.824C217.918 64.712 217.773 64.5673 217.661 64.39C217.549 64.2033 217.489 63.9793 217.479 63.718Z" fill="black"/>
<path d="M232.562 61.086H233.794C233.747 60.6567 233.635 60.288 233.458 59.98C233.28 59.6627 233.052 59.4013 232.772 59.196C232.501 58.9907 232.184 58.8413 231.82 58.748C231.465 58.6453 231.082 58.594 230.672 58.594C230.102 58.594 229.603 58.6967 229.174 58.902C228.744 59.098 228.385 59.3733 228.096 59.728C227.816 60.0733 227.606 60.484 227.466 60.96C227.326 61.4267 227.256 61.9307 227.256 62.472C227.256 63.0133 227.326 63.5127 227.466 63.97C227.615 64.418 227.83 64.8053 228.11 65.132C228.399 65.4587 228.754 65.7107 229.174 65.888C229.603 66.0653 230.093 66.154 230.644 66.154C231.568 66.154 232.296 65.9113 232.828 65.426C233.369 64.9407 233.705 64.25 233.836 63.354H232.618C232.543 63.914 232.338 64.348 232.002 64.656C231.675 64.964 231.218 65.118 230.63 65.118C230.256 65.118 229.934 65.0433 229.664 64.894C229.393 64.7447 229.174 64.5487 229.006 64.306C228.838 64.054 228.712 63.7693 228.628 63.452C228.553 63.1347 228.516 62.808 228.516 62.472C228.516 62.108 228.553 61.758 228.628 61.422C228.702 61.0767 228.824 60.7733 228.992 60.512C229.169 60.2507 229.402 60.0407 229.692 59.882C229.981 59.7233 230.34 59.644 230.77 59.644C231.274 59.644 231.675 59.77 231.974 60.022C232.272 60.274 232.468 60.6287 232.562 61.086Z" fill="black"/>
<path d="M236.427 57.46V56.004H235.237V57.46H236.427ZM235.237 58.762V66H236.427V58.762H235.237Z" fill="black"/>
<path d="M239.923 58.762V56.592H238.733V58.762H237.501V59.812H238.733V64.418C238.733 64.754 238.765 65.0247 238.831 65.23C238.896 65.4353 238.994 65.594 239.125 65.706C239.265 65.818 239.442 65.8973 239.657 65.944C239.881 65.9813 240.147 66 240.455 66H241.365V64.95H240.819C240.632 64.95 240.478 64.9453 240.357 64.936C240.245 64.9173 240.156 64.8847 240.091 64.838C240.025 64.7913 239.979 64.726 239.951 64.642C239.932 64.558 239.923 64.446 239.923 64.306V59.812H241.365V58.762H239.923Z" fill="black"/>
<path d="M245.529 66.966C245.389 67.3207 245.249 67.6193 245.109 67.862C244.978 68.1047 244.829 68.3007 244.661 68.45C244.502 68.6087 244.32 68.7207 244.115 68.786C243.919 68.8607 243.69 68.898 243.429 68.898C243.289 68.898 243.149 68.8887 243.009 68.87C242.869 68.8513 242.733 68.8187 242.603 68.772V67.68C242.705 67.7267 242.822 67.764 242.953 67.792C243.093 67.8293 243.209 67.848 243.303 67.848C243.545 67.848 243.746 67.7873 243.905 67.666C244.073 67.554 244.199 67.3907 244.283 67.176L244.773 65.958L241.903 58.762H243.247L245.361 64.684H245.389L247.419 58.762H248.679L245.529 66.966Z" fill="black"/>
<path d="M254.073 59.812V66H255.263V59.812H256.663V58.762H255.263V57.754C255.263 57.4367 255.343 57.222 255.501 57.11C255.66 56.998 255.884 56.942 256.173 56.942C256.276 56.942 256.388 56.9513 256.509 56.97C256.631 56.9793 256.743 57.0027 256.845 57.04V56.004C256.733 55.9667 256.603 55.9387 256.453 55.92C256.313 55.9013 256.187 55.892 256.075 55.892C255.422 55.892 254.923 56.046 254.577 56.354C254.241 56.6527 254.073 57.096 254.073 57.684V58.762H252.855V59.812H254.073Z" fill="black"/>
<path d="M258.594 62.388C258.594 61.9493 258.65 61.562 258.762 61.226C258.883 60.8807 259.047 60.5913 259.252 60.358C259.457 60.1247 259.695 59.9473 259.966 59.826C260.246 59.7047 260.54 59.644 260.848 59.644C261.156 59.644 261.445 59.7047 261.716 59.826C261.996 59.9473 262.239 60.1247 262.444 60.358C262.649 60.5913 262.808 60.8807 262.92 61.226C263.041 61.562 263.102 61.9493 263.102 62.388C263.102 62.8267 263.041 63.2187 262.92 63.564C262.808 63.9 262.649 64.1847 262.444 64.418C262.239 64.642 261.996 64.8147 261.716 64.936C261.445 65.0573 261.156 65.118 260.848 65.118C260.54 65.118 260.246 65.0573 259.966 64.936C259.695 64.8147 259.457 64.642 259.252 64.418C259.047 64.1847 258.883 63.9 258.762 63.564C258.65 63.2187 258.594 62.8267 258.594 62.388ZM257.334 62.388C257.334 62.92 257.409 63.4147 257.558 63.872C257.707 64.3293 257.931 64.7307 258.23 65.076C258.529 65.412 258.897 65.678 259.336 65.874C259.775 66.0607 260.279 66.154 260.848 66.154C261.427 66.154 261.931 66.0607 262.36 65.874C262.799 65.678 263.167 65.412 263.466 65.076C263.765 64.7307 263.989 64.3293 264.138 63.872C264.287 63.4147 264.362 62.92 264.362 62.388C264.362 61.856 264.287 61.3613 264.138 60.904C263.989 60.4373 263.765 60.036 263.466 59.7C263.167 59.3547 262.799 59.084 262.36 58.888C261.931 58.692 261.427 58.594 260.848 58.594C260.279 58.594 259.775 58.692 259.336 58.888C258.897 59.084 258.529 59.3547 258.23 59.7C257.931 60.036 257.707 60.4373 257.558 60.904C257.409 61.3613 257.334 61.856 257.334 62.388Z" fill="black"/>
<path d="M265.723 58.762V66H266.913V62.78C266.913 62.3133 266.96 61.9027 267.053 61.548C267.146 61.184 267.296 60.876 267.501 60.624C267.706 60.372 267.977 60.1807 268.313 60.05C268.649 59.9193 269.055 59.854 269.531 59.854V58.594C268.887 58.5753 268.355 58.706 267.935 58.986C267.515 59.266 267.16 59.7 266.871 60.288H266.843V58.762H265.723Z" fill="black"/>
<path d="M279.35 61.688H275.192C275.21 61.408 275.271 61.1467 275.374 60.904C275.476 60.652 275.616 60.4327 275.794 60.246C275.971 60.0593 276.181 59.9147 276.424 59.812C276.676 59.7 276.956 59.644 277.264 59.644C277.562 59.644 277.833 59.7 278.076 59.812C278.328 59.9147 278.542 60.0593 278.72 60.246C278.906 60.4233 279.051 60.638 279.154 60.89C279.266 61.142 279.331 61.408 279.35 61.688ZM280.498 63.704H279.322C279.219 64.18 279.004 64.5347 278.678 64.768C278.36 65.0013 277.95 65.118 277.446 65.118C277.054 65.118 276.713 65.0527 276.424 64.922C276.134 64.7913 275.896 64.6187 275.71 64.404C275.523 64.18 275.388 63.928 275.304 63.648C275.22 63.3587 275.182 63.0553 275.192 62.738H280.61C280.628 62.2993 280.586 61.8373 280.484 61.352C280.39 60.8667 280.213 60.4187 279.952 60.008C279.7 59.5973 279.359 59.2613 278.93 59C278.51 58.7293 277.978 58.594 277.334 58.594C276.839 58.594 276.382 58.6873 275.962 58.874C275.551 59.0607 275.192 59.322 274.884 59.658C274.585 59.994 274.352 60.3907 274.184 60.848C274.016 61.3053 273.932 61.8093 273.932 62.36C273.95 62.9107 274.03 63.4193 274.17 63.886C274.319 64.3527 274.538 64.754 274.828 65.09C275.117 65.426 275.472 65.6873 275.892 65.874C276.321 66.0607 276.825 66.154 277.404 66.154C278.225 66.154 278.906 65.9487 279.448 65.538C279.989 65.1273 280.339 64.516 280.498 63.704Z" fill="black"/>
<path d="M285.105 66L287.751 58.762H286.505L284.531 64.796H284.503L282.473 58.762H281.143L283.831 66H285.105Z" fill="black"/>
<path d="M293.869 61.688H289.711C289.73 61.408 289.79 61.1467 289.893 60.904C289.996 60.652 290.136 60.4327 290.313 60.246C290.49 60.0593 290.7 59.9147 290.943 59.812C291.195 59.7 291.475 59.644 291.783 59.644C292.082 59.644 292.352 59.7 292.595 59.812C292.847 59.9147 293.062 60.0593 293.239 60.246C293.426 60.4233 293.57 60.638 293.673 60.89C293.785 61.142 293.85 61.408 293.869 61.688ZM295.017 63.704H293.841C293.738 64.18 293.524 64.5347 293.197 64.768C292.88 65.0013 292.469 65.118 291.965 65.118C291.573 65.118 291.232 65.0527 290.943 64.922C290.654 64.7913 290.416 64.6187 290.229 64.404C290.042 64.18 289.907 63.928 289.823 63.648C289.739 63.3587 289.702 63.0553 289.711 62.738H295.129C295.148 62.2993 295.106 61.8373 295.003 61.352C294.91 60.8667 294.732 60.4187 294.471 60.008C294.219 59.5973 293.878 59.2613 293.449 59C293.029 58.7293 292.497 58.594 291.853 58.594C291.358 58.594 290.901 58.6873 290.481 58.874C290.07 59.0607 289.711 59.322 289.403 59.658C289.104 59.994 288.871 60.3907 288.703 60.848C288.535 61.3053 288.451 61.8093 288.451 62.36C288.47 62.9107 288.549 63.4193 288.689 63.886C288.838 64.3527 289.058 64.754 289.347 65.09C289.636 65.426 289.991 65.6873 290.411 65.874C290.84 66.0607 291.344 66.154 291.923 66.154C292.744 66.154 293.426 65.9487 293.967 65.538C294.508 65.1273 294.858 64.516 295.017 63.704Z" fill="black"/>
<path d="M296.321 58.762V66H297.511V62.78C297.511 62.3133 297.557 61.9027 297.651 61.548C297.744 61.184 297.893 60.876 298.099 60.624C298.304 60.372 298.575 60.1807 298.911 60.05C299.247 59.9193 299.653 59.854 300.129 59.854V58.594C299.485 58.5753 298.953 58.706 298.533 58.986C298.113 59.266 297.758 59.7 297.469 60.288H297.441V58.762H296.321Z" fill="black"/>
<path d="M303.867 66.966C303.727 67.3207 303.587 67.6193 303.447 67.862C303.316 68.1047 303.167 68.3007 302.999 68.45C302.84 68.6087 302.658 68.7207 302.453 68.786C302.257 68.8607 302.028 68.898 301.767 68.898C301.627 68.898 301.487 68.8887 301.347 68.87C301.207 68.8513 301.071 68.8187 300.941 68.772V67.68C301.043 67.7267 301.16 67.764 301.291 67.792C301.431 67.8293 301.547 67.848 301.641 67.848C301.883 67.848 302.084 67.7873 302.243 67.666C302.411 67.554 302.537 67.3907 302.621 67.176L303.111 65.958L300.241 58.762H301.585L303.699 64.684H303.727L305.757 58.762H307.017L303.867 66.966Z" fill="black"/>
<path d="M308.893 62.388C308.893 61.9493 308.949 61.562 309.061 61.226C309.182 60.8807 309.345 60.5913 309.551 60.358C309.756 60.1247 309.994 59.9473 310.265 59.826C310.545 59.7047 310.839 59.644 311.147 59.644C311.455 59.644 311.744 59.7047 312.015 59.826C312.295 59.9473 312.537 60.1247 312.743 60.358C312.948 60.5913 313.107 60.8807 313.219 61.226C313.34 61.562 313.401 61.9493 313.401 62.388C313.401 62.8267 313.34 63.2187 313.219 63.564C313.107 63.9 312.948 64.1847 312.743 64.418C312.537 64.642 312.295 64.8147 312.015 64.936C311.744 65.0573 311.455 65.118 311.147 65.118C310.839 65.118 310.545 65.0573 310.265 64.936C309.994 64.8147 309.756 64.642 309.551 64.418C309.345 64.1847 309.182 63.9 309.061 63.564C308.949 63.2187 308.893 62.8267 308.893 62.388ZM307.633 62.388C307.633 62.92 307.707 63.4147 307.857 63.872C308.006 64.3293 308.23 64.7307 308.529 65.076C308.827 65.412 309.196 65.678 309.635 65.874C310.073 66.0607 310.577 66.154 311.147 66.154C311.725 66.154 312.229 66.0607 312.659 65.874C313.097 65.678 313.466 65.412 313.765 65.076C314.063 64.7307 314.287 64.3293 314.437 63.872C314.586 63.4147 314.661 62.92 314.661 62.388C314.661 61.856 314.586 61.3613 314.437 60.904C314.287 60.4373 314.063 60.036 313.765 59.7C313.466 59.3547 313.097 59.084 312.659 58.888C312.229 58.692 311.725 58.594 311.147 58.594C310.577 58.594 310.073 58.692 309.635 58.888C309.196 59.084 308.827 59.3547 308.529 59.7C308.23 60.036 308.006 60.4373 307.857 60.904C307.707 61.3613 307.633 61.856 307.633 62.388Z" fill="black"/>
<path d="M316.064 58.762V66H317.254V61.912C317.254 61.5853 317.296 61.2867 317.38 61.016C317.473 60.736 317.608 60.4933 317.786 60.288C317.963 60.0827 318.182 59.924 318.444 59.812C318.714 59.7 319.032 59.644 319.396 59.644C319.853 59.644 320.212 59.7747 320.474 60.036C320.735 60.2973 320.866 60.652 320.866 61.1V66H322.056V61.24C322.056 60.848 322.014 60.4933 321.93 60.176C321.855 59.8493 321.72 59.5693 321.524 59.336C321.328 59.1027 321.071 58.9207 320.754 58.79C320.436 58.6593 320.04 58.594 319.564 58.594C318.49 58.594 317.706 59.0327 317.212 59.91H317.184V58.762H316.064Z" fill="black"/>
<path d="M328.869 61.688H324.711C324.73 61.408 324.79 61.1467 324.893 60.904C324.996 60.652 325.136 60.4327 325.313 60.246C325.49 60.0593 325.7 59.9147 325.943 59.812C326.195 59.7 326.475 59.644 326.783 59.644C327.082 59.644 327.352 59.7 327.595 59.812C327.847 59.9147 328.062 60.0593 328.239 60.246C328.426 60.4233 328.57 60.638 328.673 60.89C328.785 61.142 328.85 61.408 328.869 61.688ZM330.017 63.704H328.841C328.738 64.18 328.524 64.5347 328.197 64.768C327.88 65.0013 327.469 65.118 326.965 65.118C326.573 65.118 326.232 65.0527 325.943 64.922C325.654 64.7913 325.416 64.6187 325.229 64.404C325.042 64.18 324.907 63.928 324.823 63.648C324.739 63.3587 324.702 63.0553 324.711 62.738H330.129C330.148 62.2993 330.106 61.8373 330.003 61.352C329.91 60.8667 329.732 60.4187 329.471 60.008C329.219 59.5973 328.878 59.2613 328.449 59C328.029 58.7293 327.497 58.594 326.853 58.594C326.358 58.594 325.901 58.6873 325.481 58.874C325.07 59.0607 324.711 59.322 324.403 59.658C324.104 59.994 323.871 60.3907 323.703 60.848C323.535 61.3053 323.451 61.8093 323.451 62.36C323.47 62.9107 323.549 63.4193 323.689 63.886C323.838 64.3527 324.058 64.754 324.347 65.09C324.636 65.426 324.991 65.6873 325.411 65.874C325.84 66.0607 326.344 66.154 326.923 66.154C327.744 66.154 328.426 65.9487 328.967 65.538C329.508 65.1273 329.858 64.516 330.017 63.704Z" fill="black"/>
<rect x="187" y="62" width="3" height="1.2" fill="black"/>
<g clip-path="url(#clip0_939_2321)">
<path d="M57.4622 47.4111C58.5741 45.8148 59.7289 45.675 60.0722 45.675C60.0839 45.675 60.0956 45.675 60.1034 45.675L60.5052 44.8749L60.7237 44.3078C59.8693 43.4106 59.7952 42.7271 59.7094 42.4824C59.6704 42.3969 59.6743 42.4125 59.6586 42.4086C59.6586 42.4086 59.6508 42.4086 59.643 42.4086C59.5728 42.4164 59.4714 42.4202 59.3426 42.4202C58.7457 42.4202 57.5715 42.3348 56.998 42.2144C56.5181 42.1134 56.2528 42.0085 56.1319 41.9542C54.9888 43.5116 52.6753 44.1525 52.2345 44.2651C52.2306 44.4166 52.2306 44.5603 52.2306 44.7001C52.2306 46.444 52.4607 47.1353 52.6558 47.4033L52.6948 47.4499L52.7026 47.4655C52.7299 47.5393 52.7885 47.5703 52.8704 47.613C52.9406 47.648 53.0732 47.7063 53.0732 47.8616C53.0732 47.8966 53.0654 47.9354 53.0498 47.9781C52.6402 49.0151 50.83 49.1045 49.8781 49.1161C49.6206 49.1161 49.4255 49.1084 49.3319 49.1006C49.2812 49.1744 49.168 49.3453 49.172 49.5628C49.172 49.6443 49.1876 49.7337 49.2305 49.8308C49.4411 50.3046 49.5153 50.8212 49.5153 51.3028C49.5153 52.0563 49.3397 52.7398 49.2188 53.1127C50.553 52.7631 52.0628 51.7611 52.1564 51.6989C52.5349 51.4543 55.8198 49.353 56.5961 49.1161C56.76 48.4326 57.0643 47.9471 57.3764 47.5043L57.4583 47.415L57.4622 47.4111ZM66.6069 62.6089C66.6069 62.6089 65.0932 61.3932 64.7889 61.1835C64.4963 60.9815 63.4117 60.1659 62.1516 59.4008C61.1606 58.7988 60.6964 58.6473 60.0995 58.6162C60.0137 58.6123 59.9239 58.6084 59.8342 58.6084C58.8433 58.6084 57.4856 58.8959 55.02 60.2863C54.5011 60.5776 52.7026 61.7816 52.3164 62.0341C51.4776 62.5856 49.9639 63.5333 49.3241 63.5954C49.289 63.5954 49.2539 63.5993 49.2188 63.5993C48.7623 63.5993 47.8104 63.3158 45.9261 61.8554L45.4696 61.4748C42.9845 59.4047 41.7478 58.6706 40.1209 58.6395C40.1131 58.6395 40.1053 58.6395 40.0975 58.6395C39.4772 58.6395 37.8387 59.1056 36.8438 59.5367C35.1663 60.2708 33.8788 60.8611 32.4393 61.6535L31.3781 62.2555C30.8983 62.5701 29.5601 63.2614 29.0334 63.2536C28.1829 63.2536 27.5509 62.7992 25.9787 61.568L25.6159 61.2806C24.1412 60.0805 22.0579 58.3987 20.0526 58.3016C19.9785 58.2977 19.9083 58.2977 19.8381 58.2977C17.8523 58.2977 15.8392 59.5173 15.1565 59.8863C14.6571 60.1581 13.7013 60.7563 13.4477 60.9155C13.1863 61.0786 10.8026 62.6167 8.53989 64.5081L8.50477 64.5353V71.0176L8.66473 70.8817C8.97293 70.6137 10.6856 68.7067 14.9653 65.953L15.609 65.5335C18.2424 64.143 19.2021 63.9993 19.6352 63.9993C19.7288 63.9993 19.8029 64.0071 19.8693 64.011C20.0799 64.0226 21.2542 64.1625 22.8928 65.3781C23.4663 65.8015 24.5781 66.7919 24.9878 67.1531C25.3233 67.4444 26.9384 68.6911 27.5548 68.928C28.0581 69.1145 28.4872 69.1922 28.8735 69.1922C29.525 69.1922 30.0439 68.9747 30.5744 68.7338C31.1557 68.4697 32.7202 67.4949 33.1688 67.2114L34.7059 66.3025C34.9946 66.2054 36.8906 65.2305 37.234 65.1024C38.299 64.6984 38.931 64.5664 39.4733 64.5664C39.6411 64.5664 39.801 64.578 39.9649 64.6014C40.4994 64.6751 41.2991 64.8616 43.7452 66.687C43.7452 66.687 46.3357 68.7377 47.1004 69.2232C47.748 69.6349 48.3527 69.732 48.6102 69.732C48.6414 69.732 48.6687 69.732 48.6921 69.7281C50.315 69.499 54.2788 66.854 54.2905 66.8501C54.3022 66.8424 55.3399 65.984 57.4349 65.1762C58.2035 64.8771 59.1866 64.7994 59.8108 64.7994C60.0293 64.7994 60.2048 64.8072 60.3102 64.8227C61.2894 64.9354 62.3935 65.5995 63.7901 66.6559C63.7901 66.6559 64.3714 67.0676 64.6796 67.3279C64.9917 67.592 66.9229 69.2271 68.4366 70.5942L68.5965 70.7418V64.3877L68.5692 64.3605C68.066 63.8479 67.0204 62.9546 66.6069 62.6089ZM64.9761 71.7478C64.664 71.472 63.8721 70.8428 63.8721 70.8428C62.4637 69.7825 61.344 69.0989 60.2946 68.9708C60.1775 68.9552 59.9981 68.9475 59.7757 68.9475C59.132 68.9475 58.1371 69.029 57.3296 69.3397C55.2112 70.1554 54.1461 71.0331 54.1383 71.037C54.1383 71.037 53.1474 71.6934 51.9614 72.377C50.7754 73.0644 49.3787 73.7752 48.6297 73.8762C48.618 73.8762 48.5985 73.8762 48.5751 73.8762C48.3605 73.8762 47.7792 73.7868 47.1667 73.3984C46.4215 72.9285 43.8272 70.8739 43.8233 70.87C41.3732 69.0368 40.5267 68.8271 39.9532 68.7494C39.7815 68.7261 39.6138 68.7105 39.4343 68.7144C38.8608 68.7144 38.2015 68.8581 37.1286 69.2621C36.7658 69.4019 34.741 70.4311 34.6045 70.4622H34.5928L33.0323 71.3866C32.5836 71.6662 31.0114 72.645 30.4574 72.8974C29.9268 73.1382 29.4431 73.3402 28.8345 73.3402C28.4755 73.3402 28.0698 73.2703 27.5821 73.0877C27.0399 72.8896 25.3818 71.6235 25.0775 71.3516C24.664 70.9904 23.556 70.0039 22.9708 69.5689C21.301 68.3338 20.0916 68.1784 19.842 68.1629C19.7834 68.1629 19.7015 68.1513 19.6001 68.1513C19.1163 68.1513 18.1293 68.3144 15.4764 69.7126L14.8249 70.1359C10.5374 72.8935 8.78957 74.8355 8.50087 75.0802L8.46966 75.1074V75.1501L8.43845 81.7955L8.59841 81.6557C8.90661 81.3877 10.6193 79.4807 14.899 76.727L15.5427 76.3114C18.1761 74.9209 19.1358 74.7772 19.565 74.7772C19.6586 74.7772 19.7327 74.785 19.799 74.7889C20.0097 74.8005 21.184 74.9404 22.8226 76.156C23.3921 76.5794 24.5079 77.5698 24.9176 77.931C25.2492 78.2223 26.8682 79.469 27.4846 79.7059C27.9879 79.8924 28.417 79.9701 28.8033 79.9701C29.4548 79.9701 29.9736 79.7526 30.5042 79.5118C31.0855 79.2476 32.6499 78.2728 33.0986 77.9893L34.6318 77.0843C34.9088 76.9911 36.8204 76.0123 37.1637 75.8842C38.2288 75.4802 38.8608 75.3482 39.4031 75.3482C39.5708 75.3482 39.7308 75.3598 39.8947 75.3831C40.4174 75.453 41.3303 75.8725 42.4578 76.7813C42.4578 76.7813 43.2654 77.4183 43.8818 77.9116C44.7245 78.5796 47.034 80.4594 48.7233 80.4672C48.7896 80.4672 48.8598 80.4633 48.9262 80.4594C50.4321 80.3002 54.1773 77.9232 54.1851 77.9193L56.3074 76.6959C57.7587 75.8647 59.2997 75.6123 59.764 75.6045C59.8186 75.6045 59.8693 75.6045 59.92 75.6045C60.8876 75.6045 61.5976 75.8453 64.2388 78.0359L64.863 78.5874C65.1361 78.8359 66.482 79.838 68.4288 81.6634L68.5926 81.8149V75.2783L68.5692 75.2511C67.2896 73.7713 65.4404 72.175 64.9683 71.7555L64.9761 71.7478ZM21.7224 18.1923C21.2035 18.0564 20.3335 18.0059 19.7054 18.0059C19.6898 18.0059 19.6742 18.0059 19.6586 18.0059C18.656 18.0059 17.9537 18.2855 17.5792 18.9807C17.4778 19.1672 17.3958 19.3342 17.3958 19.5322C17.3958 19.676 17.4388 19.8235 17.5324 19.9944C17.6728 20.2469 17.9732 20.5887 18.2112 20.7635C18.2736 20.8062 18.34 20.8178 18.3907 20.8334C18.418 20.8411 18.4375 20.8489 18.4492 20.8567C18.457 20.8567 18.4531 20.8606 18.457 20.8567C18.4726 20.8839 18.5311 21.5286 18.5428 21.6179L18.5506 21.6839L18.617 21.6995C18.617 21.6995 18.6638 21.7072 18.7067 21.715C18.7262 21.7189 18.7457 21.7228 18.7574 21.7267H18.7652L18.8315 21.7733L18.89 21.715C18.9915 21.614 19.3933 21.2684 19.4674 21.1324C19.5025 21.0509 19.5064 20.9771 19.5064 20.9072C19.5064 20.8644 19.5064 20.8256 19.5064 20.7868C19.5064 20.7401 19.5064 20.6974 19.5221 20.6547C19.5533 20.5226 19.6625 20.2391 19.7405 20.1304C19.7912 20.041 19.9629 19.9906 20.0994 19.8663C20.2282 19.7342 20.4662 19.4779 20.4662 19.4779C20.4662 19.4779 21.422 18.7322 21.6678 18.5341C21.7224 18.4836 21.7341 18.4331 21.7458 18.3943C21.7497 18.3748 21.7575 18.3593 21.7614 18.3515L21.9135 18.2311L21.7263 18.1806L21.7224 18.1923ZM43.5268 9.25537C43.9637 9.91176 44.4748 10.5138 44.4748 10.5138C44.6542 10.7351 45.0249 11.2517 45.0249 11.2517C45.2355 11.5896 45.571 12.013 45.6335 12.4285C45.6569 12.5761 45.6647 12.7509 45.6647 12.9296C45.6647 13.4189 45.6023 13.9666 45.5867 14.3472C45.5867 14.3472 45.4891 15.6522 45.493 16.1416C45.493 16.2581 45.4813 16.3863 45.4813 16.5222C45.4813 16.9222 45.5125 17.3922 45.5398 17.7767L45.7271 19.3497C45.8675 20.309 46.086 21.2956 46.3669 22.1889C46.523 22.686 46.7844 24.0143 48.1537 25.5873C49.5153 27.1875 50.83 27.8206 50.8417 27.8283C52.2462 28.6944 53.8223 29.2265 55.8393 29.4091C55.8354 29.4091 56.2879 29.4712 56.7678 29.5023C57.0331 29.5178 57.3335 29.5334 57.6378 29.5334C57.8797 29.5334 58.1254 29.5256 58.3595 29.5023C58.9291 29.4479 59.1515 29.4712 59.6196 29.3974C60.8876 29.2032 62.2452 28.7449 63.3337 28.3332C64.426 27.9215 65.4209 27.3933 65.4209 27.3894C66.205 26.9001 67.2038 26.1776 67.8358 25.5213C68.3742 24.962 68.5302 24.6551 68.815 24.1308C69.1154 23.5832 69.3378 22.7365 69.3378 22.7326C69.5211 22.0879 69.6148 21.3965 69.6187 20.7168C69.6187 19.9983 69.5133 19.2914 69.291 18.6584C69.0764 18.0525 68.8969 17.501 68.6043 16.965C68.6004 16.9494 68.6004 16.9533 68.5965 16.9494C68.5965 16.9494 68.5965 16.9494 68.5965 16.9456C68.5965 16.9456 68.5965 16.9417 68.5965 16.9378C68.5419 16.8329 68.3195 16.4329 68.0425 16.0639C67.6719 15.5706 67.3598 15.2832 67.3559 15.2793C66.0334 14.0947 64.3324 13.4422 62.3896 13.4422C62.1711 13.4422 61.9526 13.45 61.7302 13.4656C61.0319 13.516 60.3687 13.7685 59.8186 13.8811L59.1632 14.0132C59.0539 13.92 58.7731 13.5976 58.6911 13.5316C58.184 13.1471 57.4739 12.7354 56.7522 12.5917C56.5688 12.5528 56.3972 12.5373 56.2372 12.5373C55.4843 12.5373 54.9186 12.8674 54.349 13.0072C53.5609 13.2014 52.7729 13.4151 52.0355 13.5588C50.9978 13.7607 49.9717 13.8268 48.7818 13.9239L48.6375 14.2967C48.657 14.8055 48.6882 14.9764 48.7194 15.458C48.7662 16.2193 48.7701 16.8912 48.8989 17.5903C48.8989 17.5903 48.9691 17.7068 49.0549 17.7612C49.1134 17.7806 49.1759 17.7845 49.2461 17.7845C49.6128 17.7845 50.2916 17.6408 50.4828 17.6291C51.7468 17.5359 52.8743 17.431 54.0642 17.2135C54.3256 17.1631 55.0902 16.93 55.4023 16.9339C55.4296 16.9339 55.453 16.9339 55.4647 16.9378H55.4843H55.5038C55.5038 16.9378 55.5038 16.9378 55.5311 16.9378C55.6247 16.9378 55.929 16.9689 56.3581 17.3922C56.5064 17.5398 56.9238 17.9282 57.431 18.7438C57.8719 19.4468 58.1644 21.047 58.1605 22.6938C58.1605 23.0356 58.1488 23.3773 58.1254 23.7152C58.0981 24.0764 58.063 24.5037 58.0318 24.9154L57.9616 25.6067L58.0786 25.5951C59.6118 25.4242 61.1724 25.0202 62.2179 24.3095L62.2686 24.2745L62.2608 24.2163C62.2335 24.0221 62.2218 23.8279 62.2218 23.6414C62.2218 22.8452 62.4169 22.0723 62.4169 21.1557C62.4169 21.012 62.413 20.8644 62.4013 20.713C62.3037 19.4157 61.9448 18.4875 61.6444 17.4932C62.7485 17.5048 63.3922 17.6718 63.954 18.0758C64.7615 18.6506 65.1166 19.8119 65.1127 20.6314C65.1127 20.7324 65.1088 20.8295 65.0971 20.9188C65.0971 20.9227 65.0971 20.9305 65.0971 20.9421C65.0971 21.0703 65.0737 22.2199 64.387 23.2297C63.9657 23.8551 63.5795 24.2551 63.2986 24.5037C63.0216 24.7484 62.8538 24.8338 62.8577 24.8338C61.4415 25.7815 59.3622 26.2942 57.2476 26.2942C55.9563 26.2942 54.6494 26.1039 53.4751 25.7038C51.4854 25.0319 50.2643 23.5521 49.9522 23.1093C49.6362 22.6627 49.0315 21.5519 49.0315 21.548C48.5282 20.3556 48.1264 18.3593 47.9742 16.8523L47.8767 15.3881C47.8767 15.357 47.8767 15.3221 47.8767 15.2832C47.8767 14.7201 47.9625 13.7646 47.9625 12.8519C47.9625 12.1683 47.9157 11.5081 47.7402 11.0342C47.5178 10.44 47.034 10.1526 46.7024 9.76028C46.5347 9.5622 46.4176 9.39908 46.2655 9.18546C45.809 8.54461 45.216 7.77171 45.1029 6.85511C45.0912 6.76966 45.0873 6.68421 45.0873 6.59877C45.0873 6.0822 45.2745 5.53069 45.5593 5.11511C45.848 4.69564 46.2304 4.42377 46.6049 4.42765C46.6244 4.42765 46.6439 4.42765 46.6673 4.42765C46.9326 4.45095 47.0848 4.40046 47.4593 4.69564C47.787 4.95198 47.9625 5.57729 47.9625 6.24144C47.9625 6.80461 47.8377 7.39109 47.6192 7.78725C47.4593 8.07466 47.1823 8.41644 46.9404 8.64171L46.4918 9.0068L46.5542 9.0806C46.9092 9.5156 47.3813 9.9739 47.8845 10.2691L47.9352 10.3002L47.986 10.2691C48.064 10.2147 48.5282 9.74475 48.7857 9.36412C49.0315 8.99903 49.2266 8.61841 49.2266 8.61841C49.4411 8.17176 49.7064 7.62024 49.8391 7.07261C49.9405 6.63372 49.9873 6.13658 49.9873 5.63167C49.9873 4.70729 49.8352 3.75961 49.605 3.09158C49.5036 2.81194 49.1876 2.3614 49.1446 2.17497L49.0003 1.83707C48.934 1.72832 48.8598 1.56131 48.813 1.46421C48.6453 1.13019 48.5711 0.873856 48.4112 0.535954C48.3761 0.477695 48.3488 0.240775 48.2473 0.124257C48.1927 0.0893021 48.1771 0.093186 48.1615 0.093186C48.1537 0.093186 48.1459 0.093186 48.1381 0.093186C48.0913 0.093186 48.0211 0.09707 47.9742 0.100954L47.9196 0.00385568L47.8338 0.143677C47.5178 0.652472 47.2954 1.07582 46.9872 1.5885C46.878 1.76716 46.7063 1.98466 46.5659 2.18662C46.3201 1.65453 46.0743 1.15738 45.8753 0.780641C45.7661 0.570909 45.6686 0.400016 45.5906 0.275731C45.5008 0.147561 45.4774 0.0776503 45.376 0.0310432C45.3526 0.0232753 45.3253 0.0193914 45.3058 0.0193914C45.2433 0.0193914 45.1731 0.0310432 45.138 0.0310432H45.1341L45.0288 -0.015564L45.0015 0.09707C44.7596 1.09136 44.705 1.85261 44.3812 2.57502L44.0573 3.21586C43.9598 3.41006 43.8077 3.60037 43.4917 4.08198L42.9494 4.95975C42.7192 5.35203 42.45 5.95015 42.45 6.62595C42.45 6.73859 42.4578 6.85122 42.4734 6.96386C42.5983 7.83386 43.1327 8.58734 43.5658 9.23595L43.5268 9.25537ZM69.5836 45.9935L69.6031 46.0245L69.5953 46.0634C69.5953 46.0634 69.2715 47.446 68.3078 47.6247C67.6563 47.7335 66.6537 47.951 66.0919 47.951C65.9436 47.951 65.8188 47.9432 65.7252 47.8849C65.6784 47.916 65.612 47.9704 65.6237 48.0092C65.6237 48.0247 65.6315 48.0519 65.6628 48.0947C65.8656 48.3471 66.0178 48.6462 66.0685 48.9569C66.0919 49.12 66.2519 49.5977 66.2519 50.3279C66.2519 50.759 66.2011 51.2834 66.0373 51.8931L66.1816 52.0058C66.6186 52.3514 66.6966 52.4602 66.6927 52.4563C67.1101 52.8059 68.0738 53.6797 68.577 54.1885L68.6043 54.2157V60.4222L68.4366 60.2552C67.9411 59.7542 66.8644 58.7522 66.4586 58.4142C66.4586 58.4142 64.9371 57.1986 64.6523 57.0005C64.3519 56.7947 63.2752 55.9829 62.0228 55.2255C61.0319 54.6274 60.6262 54.4993 60.0644 54.4721C59.9825 54.4682 59.8966 54.4643 59.8108 54.4643C58.8628 54.4643 57.5402 54.7362 55.0941 56.1189C54.5909 56.4024 52.7416 57.5559 52.371 57.8006C51.54 58.3443 50.7637 59.1328 49.3358 59.4513C49.2734 59.4629 49.2071 59.4707 49.1329 59.4707C48.575 59.4668 47.6036 59.0784 45.7817 57.6724L45.3214 57.2879C42.9416 55.3071 41.5566 54.5769 40.0936 54.4954L39.9532 54.4876C39.9532 54.4876 39.9415 54.4876 39.9376 54.4876C39.8908 54.4876 39.8205 54.4954 39.7542 54.4954C39.7542 54.4954 39.7464 54.4954 39.7386 54.4954H39.723C39.1885 54.4954 37.866 54.9537 36.8985 55.3809C35.2248 56.115 33.9413 56.7014 32.5095 57.4899L31.4522 58.088C30.9451 58.4104 29.6498 59.1056 29.01 59.1134C28.0698 59.1134 27.4027 58.6084 25.8344 57.385L25.4715 57.0937C24.0007 55.8897 21.9253 54.2429 20.0214 54.1575C19.9512 54.1536 19.8849 54.1497 19.8147 54.1497C17.903 54.1497 15.9094 55.3421 15.2267 55.7149C14.7391 55.979 13.7832 56.5772 13.5257 56.7403C13.2722 56.8995 10.8534 58.4376 8.60621 60.3174L8.44625 60.4494V54.3594L8.48137 54.3322C10.7441 52.4447 13.2761 50.9299 13.5336 50.7668C13.791 50.6076 14.7469 50.0094 15.2462 49.7376C15.929 49.3686 17.942 48.149 19.9278 48.149C20.0019 48.149 20.0721 48.149 20.1424 48.1568C20.6807 48.1801 21.1138 48.2966 21.5741 48.4636L21.6444 48.3626L22.5378 47.415C23.0995 46.8751 23.7511 46.3003 24.227 46.2847C24.2543 46.2847 24.2816 46.2847 24.309 46.2925C24.3948 46.2071 24.3987 45.9935 24.7381 45.6245C25.0775 45.2555 25.2453 45.2555 25.5457 44.7584C25.5457 44.6457 25.5457 44.2418 25.6198 44.0631C25.6393 43.966 25.8695 42.8708 25.8695 41.7056C25.8695 41.5852 25.8695 41.4648 25.8617 41.3483C25.4715 42.1794 24.4065 44.234 23.1971 44.2651C23.162 44.2651 23.1308 44.2651 23.0956 44.2612C21.5858 44.0981 21.223 42.7814 20.3764 39.7675C20.3764 39.7675 20.3764 39.7209 20.3374 39.6355C20.3023 39.55 20.2282 39.4296 20.0799 39.3053C19.7795 39.0568 19.167 38.7926 17.9225 38.7926C17.4661 38.7926 16.9277 38.8276 16.284 38.9131L16.2528 39.1694C16.4829 39.2432 17.1969 39.4801 17.9147 39.8102C18.7808 40.2181 19.6742 40.7191 19.6976 41.3522C19.6976 41.5153 19.8537 42.0047 19.8537 42.7154C19.8537 43.8068 19.483 45.4575 17.6455 47.5509C17.6455 47.5509 17.2749 47.9626 17.0681 48.1762C17.0603 48.1762 16.8965 48.386 16.6507 48.3937C16.5415 48.3937 16.4205 48.3393 16.3347 48.2151C16.2137 48.0403 15.7066 47.5548 15.7066 47.5587C15.7066 47.5548 15.3945 47.2713 15.3438 47.2091H15.3399C15.3399 47.2091 15.3086 47.1897 15.2852 47.1742C15.2384 47.147 15.1682 47.1043 15.0863 47.0576C14.9185 46.9644 14.6922 46.8401 14.4426 46.7042C13.9432 46.4285 13.3463 46.1061 12.9406 45.8614C12.6636 45.6827 12.4997 45.6128 12.4334 45.4691C12.4334 45.4691 12.4022 45.4458 12.3749 45.4264C12.3202 45.3914 12.2422 45.3448 12.1486 45.2905C11.9613 45.1856 11.7077 45.0574 11.462 44.9176C10.9899 44.6418 10.5022 44.37 10.4359 44.0243C10.3618 43.9622 10.1667 43.799 10.1082 43.7136L10.1004 43.7019V43.6864C10.1004 43.6864 9.80781 42.7465 9.68297 41.5153C9.64005 41.391 9.27723 40.3851 9.27723 39.7054C9.27723 39.6316 9.28113 39.5617 9.29284 39.4956C9.24992 39.418 9.16019 39.216 9.16019 38.8975C9.16019 38.6645 9.20701 38.3732 9.35136 38.0197C9.73759 37.0721 9.50741 37.6158 9.65956 36.9051C9.7766 36.3652 10.3969 35.2194 10.6973 34.6796L10.8534 34.4038L10.8612 34.3922C10.8612 34.3922 10.869 34.3805 10.8729 34.3727C10.8885 34.3378 10.8963 34.3261 10.8963 34.3261C10.8963 34.3184 10.9041 34.3106 10.9119 34.3067C11.0133 34.1552 11.2474 33.8717 11.6609 33.7552C12.211 33.627 17.6182 33.359 18.3322 31.3976C17.9732 31.5142 17.1579 31.7783 16.9745 31.7822C16.9745 31.7822 16.9667 31.7822 16.9628 31.7822C16.9628 31.7822 16.9589 31.7822 16.955 31.786C16.9355 31.8016 16.9043 31.8288 16.8692 31.8598C16.795 31.9259 16.7014 32.0152 16.5844 32.1045C16.3503 32.2832 16.0421 32.4735 15.6871 32.4774C15.57 32.4774 15.453 32.458 15.3321 32.4075C15.293 32.4191 15.2267 32.4347 15.137 32.4347C14.8756 32.4347 14.4348 32.3065 13.8769 31.6851C13.8769 31.6734 13.2449 30.7956 13.2371 30.2635C13.2371 30.2286 13.2371 30.1936 13.2488 30.1587C13.1317 29.9917 12.6558 29.312 12.5465 29.0867C12.4568 28.978 11.7273 28.1002 11.5049 27.1292C11.3176 27.2768 10.9353 27.5098 10.3696 27.5098C9.7727 27.5098 8.99244 27.2496 8.04442 26.3913L8.02882 26.3796L8.02101 26.3602C8.02101 26.3602 8.02101 26.3602 8.00541 26.3369C7.9898 26.3175 7.95859 26.2864 7.91178 26.2553C7.81424 26.1893 7.63088 26.1194 7.30317 26.1194C7.0964 26.1194 6.83112 26.1505 6.4917 26.2281L6.41758 26.2437L6.10938 25.6611L6.15619 25.6106C6.15619 25.6106 6.32395 25.4319 6.53072 24.9309C6.73748 24.4299 6.97937 23.6143 7.0964 22.3714C7.0964 22.3714 7.11981 22.2083 7.17443 21.9597C7.31098 21.3344 7.63088 20.1653 8.31361 19.5827C8.02882 19.2332 6.90134 17.7379 6.89744 15.9241C6.89744 14.5764 7.53725 13.0577 9.58153 11.7489L9.65956 11.6984L9.94436 12.1062V12.1295C9.94436 12.1295 10.1355 14.0093 11.5712 14.4754C11.6921 14.5142 11.7936 14.5297 11.8794 14.5297C12.0316 14.5297 12.1174 14.4909 12.1486 14.4715C12.2851 14.2812 13.6155 12.4946 15.7339 12.4907C15.8938 12.4907 16.0577 12.5023 16.2255 12.5218H16.2411L16.2567 12.5295C16.2567 12.5256 16.2762 12.5412 16.3308 12.5412C16.4361 12.5412 16.6741 12.4868 16.9667 11.9897C17.0798 11.7955 17.1345 11.5741 17.1345 11.3449C17.1345 10.7157 16.717 10.0283 15.8587 9.7564L15.7924 9.73698V9.14274L15.8626 9.12332C15.8626 9.12332 17.0486 8.80484 18.4648 8.80484C19.2334 8.80484 20.0682 8.89805 20.8212 9.19323C22.2881 9.76028 23.4195 10.6186 23.7003 12.6849C24.5079 12.4363 29.4704 10.9099 30.5705 10.906C30.633 10.906 30.6837 10.9099 30.7071 10.9216C30.711 10.9216 37.6748 11.1779 44.9702 13.7491L45.0366 13.7724C45.0366 13.7724 44.6581 15.6483 44.9039 17.6175C44.9039 17.6447 44.7869 17.5903 44.7869 17.5903C44.7869 17.5903 43.2537 17.233 41.6151 16.8718C39.9727 16.5106 38.2171 16.1532 37.7762 16.1532C37.7645 16.1532 37.7528 16.1532 37.7411 16.1532V16.161L37.6865 16.1765C37.6865 16.1765 37.5305 16.2231 37.3783 16.2969C37.2184 16.3668 37.0974 16.4872 37.1091 16.53C37.1091 16.7436 37.2925 17.7107 39.286 21.2917L39.3914 21.482L37.5266 21.0509H35.9036L35.8841 20.981C35.8841 20.981 35.455 19.3614 34.2105 17.6524C32.962 15.9435 30.91 14.153 27.6602 13.8035C27.6173 13.7996 27.5704 13.7957 27.5197 13.7957C26.3025 13.7957 22.8108 15.0114 22.8069 15.0152C22.7991 15.0152 21.7731 15.3454 21.3713 15.3454C21.3362 15.3454 21.3049 15.3454 21.2737 15.3376L21.1879 15.3143L21.2035 15.225C21.2035 15.225 21.2932 14.7395 21.2932 14.087C21.2854 12.8169 20.9577 10.9837 19.011 10.7429C19.288 11.0886 19.842 11.8848 19.8459 12.7742C19.8459 13.4034 19.5533 14.0753 18.6833 14.6268C18.6794 14.6268 17.7431 14.9259 17.0759 14.9298C16.8653 14.9298 16.678 14.9026 16.5376 14.8055C16.4985 14.7783 16.4166 14.755 16.2996 14.755C15.6012 14.7395 13.9354 15.5046 13.7169 15.9862C13.3931 16.6271 12.6324 16.9417 11.8677 16.9417C11.8092 16.9417 11.7507 16.9417 11.6921 16.9378C10.7051 16.8601 9.74539 15.691 9.41768 15.2599C9.37867 15.4192 9.33185 15.6716 9.33185 15.9785C9.33965 16.9533 9.7805 18.4642 12.4997 19.2487L12.6558 19.2914L12.2578 19.6876H12.2227C12.2227 19.6876 11.9535 19.707 11.6609 19.7536C11.3722 19.7964 11.0484 19.8973 10.9938 19.9828C10.9938 19.9828 10.2955 20.6935 10.1823 21.1557C10.1472 21.2994 9.92485 22.2432 9.92485 22.2471C9.70638 23.0394 9.33575 23.7269 9.10948 24.0609C9.20701 24.0648 9.33965 24.0726 9.49961 24.0726C10.5296 24.0726 12.566 23.8473 12.8274 22.2044L12.8391 22.1422L13.514 21.9752L13.5336 22.0723C13.5336 22.0723 14.0875 24.6202 14.2202 24.8493C14.384 25.0435 15.3321 26.9156 15.3516 27.4749C15.3516 27.5098 15.3516 27.5448 15.336 27.5836C15.3164 27.6302 15.3047 27.7001 15.3047 27.7856C15.3047 28.0691 15.414 28.4497 15.4179 28.6828C15.4179 28.7177 15.4179 28.7527 15.4023 28.7915C15.4101 28.8343 15.5934 29.0673 15.8158 29.2304C16.0382 29.4207 16.3308 29.58 16.3776 29.5683C16.561 29.5023 18.6833 28.1507 21.1879 28.1546C21.2854 28.1546 21.383 28.1546 21.4805 28.1623C21.5507 28.1002 21.7575 27.8943 21.9916 27.471C22.2764 26.9506 22.5885 26.1155 22.686 24.8455C22.8148 23.156 23.0059 21.7228 23.0098 21.7189C23.0098 21.7111 22.9747 21.3422 22.9162 20.9538C22.8694 20.5926 22.7757 20.1847 22.725 20.1071C22.7172 20.1071 22.7094 20.1071 22.6743 20.0915C22.6665 20.0838 22.6314 20.076 22.6275 20.01C22.6353 19.9401 22.6704 19.9323 22.6743 19.9245C22.686 19.9168 22.6899 19.9168 22.6938 19.9168C22.7016 19.9168 22.7055 19.9168 22.7055 19.9168C22.7094 19.9168 22.7133 19.9168 22.7172 19.9168C22.725 19.9168 22.7367 19.9168 22.7484 19.9168C22.7718 19.9168 22.8069 19.9129 22.8577 19.909C22.9474 19.9051 23.0839 19.8973 23.2478 19.8896C23.5833 19.874 24.0476 19.8507 24.5781 19.8274C25.8968 19.7769 27.1218 19.0468 27.2661 18.7283C27.27 18.7205 27.2739 18.705 27.2739 18.6856C27.2856 18.5302 27.0008 18.0874 26.4079 17.7262C25.8149 17.3572 24.9215 17.0427 23.7238 17.0427C23.5287 17.0427 23.3219 17.0504 23.1113 17.0698H23.0527L22.4987 16.2076L22.6275 16.1765C22.6275 16.1765 23.556 15.9396 24.7849 15.9396C25.967 15.9396 27.4378 16.1571 28.6355 17.0271C28.6355 17.0271 28.9164 17.233 29.2909 17.4427C29.6693 17.6524 30.1375 17.8622 30.5159 17.8583C30.5744 17.8583 30.633 17.8544 30.6837 17.8427L30.7695 17.8272L30.9529 18.3787L30.867 18.4137C30.867 18.4137 30.395 18.6001 30.2818 18.9924C30.196 19.2759 30.4535 19.6255 28.7057 21.4082C28.6979 21.416 27.7538 22.2277 26.2713 22.2355C26.2635 22.7986 26.1504 25.6456 24.5625 27.5603C24.5508 27.5681 23.3414 29.0984 23.1581 29.2188C23.1464 29.2188 22.885 29.5334 22.6509 29.8169C22.3895 30.1082 22.1905 30.3878 21.9721 30.415C21.7653 30.5432 20.6456 31.2268 19.643 31.2306H19.6079V31.2501C19.6079 31.5297 19.6664 32.357 20.2087 33.8368L20.2321 33.9067L20.1736 33.9494C20.1736 33.9494 19.6898 34.2912 18.5779 34.7339L18.3165 34.8194C17.1189 35.2932 15.492 35.7865 13.9003 35.7904C13.674 35.7904 13.4477 35.7826 13.2254 35.7593C13.1434 35.969 12.8898 36.6254 12.6363 37.2973C12.3437 38.0547 12.0511 38.8742 12.0277 38.9635C12.0589 39.0878 12.1642 39.5927 12.1642 39.853C12.1642 39.9035 12.1642 39.9423 12.1408 39.9928C12.1408 39.9928 12.1408 39.9967 12.1408 40.0005C12.1291 40.2569 12.6324 42.1484 12.726 42.2299C12.804 42.3464 13.6662 42.5717 14.2631 43.0844C14.384 43.1893 14.4231 43.2242 14.4426 43.2436C14.4426 43.2553 14.4504 43.2281 14.466 43.3019C14.466 43.3019 14.466 43.2786 14.4582 43.2708C14.4582 43.2708 14.466 43.2864 14.466 43.3019C15.1097 43.8689 15.4803 44.0204 15.968 44.5642C15.9758 44.5564 15.9875 44.5447 16.0031 44.5292C16.0382 44.4865 16.0772 44.4205 16.1123 44.3506C16.1747 44.2263 16.2294 44.0826 16.2567 43.9971L16.2333 43.9855C16.2333 43.9855 16.7599 42.7232 16.7521 42.4047C16.7521 42.3892 16.7521 42.3775 16.7521 42.3736L16.7287 42.3464V42.3076C16.7287 42.3076 16.7365 42.2765 16.7365 42.2183C16.7365 41.9697 16.6702 41.3017 15.9602 40.8861C15.5505 40.6453 15.1799 40.4394 14.4972 40.319L14.4113 40.3035L14.4621 39.2548C14.4621 39.2548 14.5128 38.0547 14.8288 37.6585C14.8327 37.5692 14.8522 37.3517 15.0785 37.2896C15.2189 37.274 16.0304 36.9556 16.561 36.9284C17.0525 36.9051 18.6013 36.5011 18.7379 36.4934C18.7847 36.4934 19.2841 36.4934 19.7834 36.505C20.3023 36.5244 20.7627 36.5244 20.9148 36.606C21.0904 36.7342 21.8433 37.5148 21.9682 37.9343C22.054 38.2683 22.5573 39.0839 22.6392 39.2665C22.6899 39.4063 23.1815 40.1481 23.6145 40.1248C23.634 40.1248 23.6535 40.1248 23.673 40.1248C24.1802 40.0588 25.2023 39.6083 26.7902 36.9711L26.8175 36.9245H27.1569L27.1725 36.9322C27.2193 36.9478 28.1049 37.3401 28.101 40.0472C28.101 41.0337 27.9879 42.3348 27.6719 44.0437C27.6914 44.1486 27.7928 44.7389 27.7928 44.9448C27.7928 44.9642 27.7928 44.9797 27.7889 45.0031C27.7616 45.1273 27.4027 46.6226 26.5873 47.5354L26.5483 47.5936C26.4859 47.6597 26.4547 47.6752 26.4118 47.7179L26.3961 47.7335L26.3766 47.7412C26.3766 47.7412 25.7953 47.9354 25.651 47.982C25.5418 48.0092 24.7342 48.4753 24.664 48.6345C24.5586 48.8248 24.0632 49.5006 23.8915 49.7337C24.5235 50.1648 24.9332 50.3434 25.4715 50.7823L26.3454 51.396C26.7668 51.7261 26.8955 51.7378 27.1998 51.9475C27.4573 51.6096 28.5263 50.1803 28.5146 49.4035C28.5146 49.221 28.4599 49.0889 28.339 48.9996L28.2766 48.953L28.971 47.3179C29.3143 46.7431 29.6849 46.3391 30.0283 46.3081C30.0361 46.3081 30.2233 46.3275 30.6876 46.4401C30.789 46.4634 30.8904 46.4751 30.9919 46.4751C31.3625 46.4751 31.7448 46.3197 32.291 46.2148C32.4003 46.1915 32.4393 46.1216 32.4471 45.943C32.4471 45.675 32.2988 45.2555 32.1077 44.9098C31.9243 44.5603 31.6668 44.2845 31.5888 44.2884H31.5654L31.5459 44.269C31.5225 44.2535 30.8982 43.7757 30.7032 42.0357C30.6642 41.9464 30.4691 41.4842 30.4691 40.8511C30.4691 40.6492 30.4886 40.4239 30.5432 40.1947C30.7734 39.181 31.2611 38.4081 31.2533 38.4198C31.2611 38.412 31.4327 37.9032 31.7136 37.7285C31.7682 37.7051 31.7799 37.6197 31.8034 37.4488C31.8268 37.2857 31.8892 37.0643 32.1194 36.874C32.2442 36.7885 32.6655 35.7554 33.005 34.6601C33.005 34.6601 33.8593 31.4404 33.8554 31.1258V31.1025V31.0831L33.9452 30.7801L34.0271 30.7879C34.0271 30.7879 34.1558 30.7995 34.386 30.7995C35.0843 30.7995 36.6839 30.6752 38.2795 29.6771L38.3458 29.6382L38.4005 29.6926L38.6345 29.9256L38.615 29.9839C38.615 29.9839 37.983 31.7977 37.5851 32.9823C37.2613 33.9494 36.9063 34.6912 36.9024 34.6912C36.2625 36.0273 35.4121 37.4721 34.3938 38.5285C34.3236 38.8509 33.6604 42.0047 33.4302 42.4552C33.4185 42.4668 33.4146 42.4824 33.4068 42.4979C33.4146 42.5173 33.4302 42.5445 33.4458 42.5795C33.4848 42.6533 33.5394 42.7581 33.6097 42.8824C33.7462 43.131 33.9296 43.4611 34.1129 43.8456C34.4835 44.6108 34.8542 45.574 34.8542 46.4712C34.8542 46.5217 34.8542 46.5683 34.8542 46.6188C34.862 46.646 34.8698 46.712 34.8698 46.7974C34.8698 46.9877 34.8152 47.2907 34.5265 47.547L34.4484 47.6208C34.3548 47.7101 34.3002 47.7529 34.0427 47.8422C33.8008 47.9315 33.5121 47.951 33.2078 47.951C32.8723 47.951 32.5134 47.9238 32.1818 47.9238C31.6083 47.9238 31.144 48.0053 30.9646 48.3588C30.9919 48.4364 31.0504 48.6306 31.1479 49.0346C31.183 49.186 31.2065 49.3686 31.2065 49.5861C31.2065 50.1764 31.0348 51.0348 30.473 52.4175L30.4613 52.4874C30.8748 52.2854 31.3001 52.033 31.5225 51.8893L32.7436 51.2484C34.1792 50.4561 35.2287 49.8968 36.9063 49.1589C37.7255 48.7976 38.9232 48.2889 40.0078 48.285L40.1326 48.2772C40.355 48.2772 40.5696 48.3005 40.7607 48.3471L40.9168 48.3704C41.0338 48.2422 41.4318 47.8267 41.9779 47.415L42.0326 47.3684C42.4539 47.0499 42.9494 46.7469 43.437 46.6149C43.4995 46.4168 43.7569 45.6905 44.2914 44.7855C44.3031 44.7428 44.3499 44.5447 44.3499 44.37C44.3499 44.2729 44.3304 44.1874 44.3031 44.1564C44.151 43.9389 43.874 42.9523 43.8662 42.5406C43.8701 42.4668 43.8623 42.4008 43.9403 42.3348C44.0886 42.2377 45.8675 41.0376 46.8156 40.7346L46.8429 40.7268L46.8702 40.7346C46.9014 40.7346 47.1433 40.8395 47.1355 41.2589C47.1355 41.5192 47.1121 41.8221 47.1121 42.0551C47.1121 42.1717 47.1199 42.2765 47.1316 42.3464C47.1628 42.529 47.4827 43.0883 47.4866 43.4572C47.4866 43.5039 47.4827 43.5505 47.4671 43.5971C47.3773 43.8651 47.1589 45.2322 46.4918 46.2653C46.1328 46.8246 45.9495 47.2014 45.8285 47.4926L45.8012 47.5393C45.7037 47.7762 45.6842 47.8849 45.6062 48.0403L45.5671 48.1141L45.4891 48.0869C45.4891 48.0869 45.4618 48.0752 45.376 48.0752C45.3019 48.0752 45.1926 48.0869 45.0405 48.1257C44.5411 48.2539 43.913 48.7472 43.3941 49.3453C43.4214 49.3647 43.4565 49.3958 43.5034 49.4268C43.6126 49.5006 43.7647 49.6016 43.9481 49.7181C44.3109 49.9512 44.7752 50.2502 45.1848 50.5648C45.7466 51.0076 46.3279 51.5785 46.5425 51.796L46.5776 51.7417C47.1238 50.9222 47.2642 50.3551 47.2642 49.99C47.2642 49.7764 47.2135 49.6288 47.1706 49.5356C47.1238 49.4424 47.0887 49.4113 47.0887 49.4113L47.0106 49.3414L47.0848 49.2676C47.2603 49.1122 47.3461 48.4209 47.8845 47.648C47.9782 47.516 48.1108 47.4227 48.2629 47.3528L48.3098 47.3334C48.5829 47.213 48.9067 47.1742 49.2227 47.1742C49.8079 47.1742 50.3618 47.3062 50.4672 47.3295L50.5257 47.3373C50.5725 47.2441 50.5998 47.1237 50.5959 46.9839C50.6115 46.2886 49.9483 45.1545 49.8898 45.139C49.7064 44.9836 49.5153 44.3272 49.4997 43.9389C49.5036 43.8379 49.5036 43.7369 49.6089 43.6747C49.6362 43.6631 49.6557 43.6243 49.6557 43.5505C49.6557 43.4417 49.6089 43.3135 49.6089 43.3135L49.5816 43.2397L49.6479 43.197C50.7715 42.4979 51.9302 40.5676 52.176 40.1404C51.4776 39.752 50.8768 39.1927 50.7286 39.049C48.8754 39.2976 46.3864 40.3773 44.3694 41.4026C42.333 42.4358 40.7685 43.4029 40.7842 43.3912C40.0858 44.1331 39.3212 44.3855 38.7321 44.3855C38.26 44.3855 37.8894 44.234 37.7372 44.0049C37.6046 43.8029 37.4875 43.6747 37.4056 43.601C37.3744 43.5699 37.3471 43.5505 37.3276 43.5349C36.9024 43.7524 35.9895 44.2612 35.494 44.269C35.3926 44.269 34.9166 44.2379 34.9088 44.0903C34.9088 44.0631 34.9283 43.9932 34.9283 43.9699C34.9439 43.5582 34.3626 42.964 34.347 42.4591C34.347 42.4008 34.3587 42.3426 34.3977 42.2921C34.4679 42.2222 34.7566 40.8589 34.9088 40.1947C35.0609 39.5267 35.1507 38.8859 35.1507 38.8897L35.5291 38.4936C35.9075 38.5324 36.0558 38.5713 36.957 38.5713C38.221 38.5713 39.8712 38.4547 41.5527 37.9926C44.5333 37.1808 48.3059 35.3981 49.0627 34.9747C49.0705 34.9747 49.8235 34.4737 50.5608 34.4698C50.7793 34.4698 50.9978 34.5164 51.1967 34.6407C51.1967 34.6407 52.6597 35.6661 53.5375 36.8779C53.5375 36.8779 53.9979 37.5304 54.8952 38.1906C55.7925 38.847 57.1111 39.5034 58.8277 39.5034C58.9954 39.5034 59.1671 39.4956 59.3465 39.484C59.5026 39.4723 59.6508 39.4646 59.7913 39.4646C62.3076 39.4568 62.1828 41.356 62.3427 42.5795C62.3427 42.5795 62.4793 42.9795 62.6431 43.4029C62.7953 43.8107 62.9904 44.269 63.0606 44.3467C63.0762 44.3506 63.0957 44.3622 63.1074 44.3777C63.1308 44.4049 63.1347 44.4321 63.1347 44.4476C63.1113 44.6263 62.8109 44.9875 62.4754 45.5118C62.1399 46.0129 61.7771 46.5993 61.6717 46.9644C61.6132 47.1314 61.465 47.1353 61.3167 47.1819C61.1567 47.2247 60.9422 47.2985 60.6418 47.5237L60.5091 47.6247C60.2634 47.8111 59.8966 48.1024 59.6704 48.4675C59.7991 48.4597 59.9708 48.452 60.0995 48.452C60.1307 48.452 60.158 48.452 60.1853 48.452C60.7939 48.483 61.9994 48.9841 63.3337 50.0366C63.4936 49.788 63.5482 49.4463 63.5482 49.12C63.5482 48.6772 63.4546 48.2733 63.4273 48.1723C63.3337 48.0791 63.2986 47.951 63.2986 47.8267C63.3103 47.1897 64.1139 46.277 64.1178 46.2653L64.1295 46.2498L64.6835 45.974H64.7069C64.7381 45.974 64.7733 45.974 64.8045 45.974C65.8344 45.974 66.3806 45.4109 66.5562 45.1895C66.2323 44.9836 65.928 44.3467 65.6159 43.7136C65.2804 42.9989 65.0151 42.3037 65.0151 42.2998V42.2843L65.0112 42.2649C65.0034 37.1109 64.5353 36.7808 64.2466 36.2021C64.1998 36.0584 63.4975 35.7593 62.846 35.5612C62.1867 35.3515 61.5586 35.1961 61.543 35.1884C58.3829 33.8406 58.2932 30.5859 58.2932 30.2286C58.2932 30.2053 58.2932 30.1082 58.301 30.1082C61.0436 30.248 62.9201 29.145 62.9201 29.145L62.9318 29.3159C62.9318 29.3159 62.9904 29.8402 63.3376 30.885C63.6809 31.9297 64.3129 33.1532 65.4365 33.9028C65.5574 33.9377 66.4079 34.1863 66.8644 34.4116C67.0243 34.5048 67.1569 34.5436 67.1804 34.7106C67.1843 34.7106 67.1804 34.7106 67.196 34.7301C67.2155 34.7534 67.2545 34.7883 67.2974 34.8349C67.3871 34.932 67.5159 35.0835 67.6368 35.3476C67.8787 35.8719 68.1089 36.8351 68.1089 38.7383C68.1089 38.9985 68.1089 39.2743 68.0972 39.5694C68.0855 39.8957 68.0816 40.2025 68.0816 40.4899C68.0855 44.2573 68.8969 44.7778 69.5797 45.9624L69.5836 45.9935Z" fill="black"/>
</g>
<defs>
<clipPath id="clip0_939_2321">
<rect width="77" height="87" fill="black"/>
</clipPath>
</defs>
</svg>
